<svg width="70" height="75" viewBox="0 0 70 75" fill="none" xmlns="http://www.w3.org/2000/svg">
<rect x="31.2104" y="15.6675" width="30.8129" height="4.93007" rx="2.46503" fill="#2AAFD3"/>
<rect x="64.4883" y="15.6675" width="4.93006" height="4.93007" rx="2.46503" fill="#2AAFD3"/>
<rect x="31.061" y="38.9976" width="30.8129" height="4.93007" rx="2.46504" fill="#2AAFD3"/>
<rect x="64.2397" y="38.9976" width="4.93006" height="4.93007" rx="2.46503" fill="#2AAFD3"/>
<rect x="31.061" y="62.9993" width="30.8129" height="4.93005" rx="2.46503" fill="#2AAFD3"/>
<rect x="64.4883" y="62.7551" width="4.93006" height="4.93006" rx="2.46503" fill="#2AAFD3"/>
<path fill-rule="evenodd" clip-rule="evenodd" d="M2.03211 13.9766C2.85916 13.1496 4.20008 13.1496 5.02713 13.9766L9.51964 18.4691L20.5014 7.48742C21.3284 6.66037 22.6693 6.66037 23.4964 7.48742C24.3234 8.31447 24.3234 9.65538 23.4964 10.4824L11.0172 22.9617C10.1901 23.7887 8.84919 23.7887 8.02214 22.9617L2.03211 16.9716C1.20506 16.1446 1.20506 14.8037 2.03211 13.9766Z" fill="#2AAFD3"/>
<path fill-rule="evenodd" clip-rule="evenodd" d="M2.03211 39.1419C2.85916 38.3148 4.20008 38.3148 5.02713 39.1419L9.51964 43.6344L20.5014 32.6527C21.3284 31.8257 22.6693 31.8257 23.4964 32.6527C24.3234 33.4798 24.3234 34.8207 23.4964 35.6477L11.0172 48.1269C10.1901 48.954 8.84919 48.954 8.02214 48.1269L2.03211 42.1369C1.20506 41.3099 1.20506 39.9689 2.03211 39.1419Z" fill="#2AAFD3"/>
<path fill-rule="evenodd" clip-rule="evenodd" d="M2.03211 64.3072C2.85916 63.4801 4.20007 63.4801 5.02712 64.3072L9.51964 68.7997L20.5014 57.818C21.3284 56.9909 22.6693 56.9909 23.4964 57.818C24.3234 58.645 24.3234 59.986 23.4964 60.813L11.0171 73.2922C10.1901 74.1193 8.84919 74.1193 8.02214 73.2922L2.03211 67.3022C1.20506 66.4751 1.20506 65.1342 2.03211 64.3072Z" fill="#2AAFD3"/>
</svg>
