<svg width="12" height="12" viewBox="0 0 12 12" fill="none" xmlns="http://www.w3.org/2000/svg">
<path d="M6 3.60306C5.52593 3.60306 5.06251 3.74364 4.66833 4.00702C4.27416 4.2704 3.96694 4.64475 3.78552 5.08273C3.6041 5.52071 3.55663 6.00266 3.64912 6.46762C3.7416 6.93258 3.96989 7.35967 4.30511 7.69489C4.64033 8.03011 5.06742 8.2584 5.53238 8.35088C5.99734 8.44337 6.47929 8.3959 6.91727 8.21448C7.35525 8.03306 7.7296 7.72584 7.99298 7.33167C8.25636 6.93749 8.39694 6.47407 8.39694 6C8.39694 5.36429 8.14441 4.75462 7.69489 4.30511C7.24538 3.8556 6.63571 3.60306 6 3.60306ZM6 7.68469C5.6668 7.68469 5.34108 7.58589 5.06403 7.40077C4.78699 7.21566 4.57106 6.95254 4.44355 6.6447C4.31604 6.33687 4.28267 5.99813 4.34768 5.67133C4.41268 5.34453 4.57313 5.04435 4.80874 4.80874C5.04435 4.57313 5.34453 4.41268 5.67133 4.34768C5.99813 4.28267 6.33687 4.31604 6.6447 4.44355C6.95254 4.57106 7.21566 4.78699 7.40077 5.06403C7.58589 5.34108 7.68469 5.6668 7.68469 6C7.68335 6.44639 7.50542 6.87412 7.18977 7.18977C6.87412 7.50542 6.44639 7.68335 6 7.68469ZM8.2449 0.95H3.7551C3.01114 0.95 2.29765 1.24554 1.7716 1.7716C1.24554 2.29765 0.95 3.01114 0.95 3.7551V8.2449C0.95 8.98886 1.24554 9.70234 1.7716 10.2284C2.29765 10.7545 3.01114 11.05 3.7551 11.05H8.2449C8.98886 11.05 9.70234 10.7545 10.2284 10.2284C10.7545 9.70234 11.05 8.98886 11.05 8.2449V3.7551C11.05 3.01114 10.7545 2.29765 10.2284 1.7716C9.70234 1.24554 8.98886 0.95 8.2449 0.95ZM10.3378 8.2449C10.3378 8.79996 10.1173 9.33228 9.72477 9.72477C9.33228 10.1173 8.79996 10.3378 8.2449 10.3378H3.7551C3.20004 10.3378 2.66772 10.1173 2.27523 9.72477C1.88274 9.33228 1.66224 8.79996 1.66224 8.2449V3.7551C1.66224 3.20004 1.88274 2.66772 2.27523 2.27523C2.66772 1.88274 3.20004 1.66224 3.7551 1.66224H8.2449C8.79996 1.66224 9.33228 1.88274 9.72477 2.27523C10.1173 2.66772 10.3378 3.20004 10.3378 3.7551V8.2449ZM9.11885 3.65817C9.18041 3.56605 9.21327 3.45774 9.21327 3.34694C9.21327 3.19836 9.15424 3.05587 9.04919 2.95081C8.94413 2.84576 8.80164 2.78673 8.65306 2.78673C8.54226 2.78673 8.43395 2.81959 8.34183 2.88115C8.2497 2.9427 8.1779 3.03019 8.1355 3.13256C8.0931 3.23492 8.08201 3.34756 8.10362 3.45623C8.12524 3.5649 8.17859 3.66472 8.25694 3.74306C8.33528 3.82141 8.4351 3.87476 8.54377 3.89638C8.65244 3.91799 8.76508 3.9069 8.86744 3.8645C8.96981 3.8221 9.0573 3.7503 9.11885 3.65817Z" fill="#fff" stroke="#fff" stroke-width="0.5"/>
</svg>
