<svg width="60" height="60" viewBox="0 0 60 60" fill="none" xmlns="http://www.w3.org/2000/svg">
<circle cx="30" cy="30" r="30" fill="#2AAFD3" fill-opacity="0.14"/>
<path d="M41.2458 24.3334H42.7503C43.5018 24.3334 44.2224 24.6319 44.7538 25.1632C45.2851 25.6946 45.5837 26.4152 45.5837 27.1667V32.8334C45.5837 33.5848 45.2851 34.3055 44.7538 34.8368C44.2224 35.3682 43.5018 35.6667 42.7503 35.6667H41.2458C40.9005 38.4055 39.5675 40.9242 37.497 42.75C35.4265 44.5758 32.7609 45.5833 30.0003 45.5834V42.75C32.2547 42.75 34.4167 41.8545 36.0107 40.2604C37.6048 38.6664 38.5003 36.5044 38.5003 34.25V25.75C38.5003 23.4957 37.6048 21.3337 36.0107 19.7396C34.4167 18.1456 32.2547 17.25 30.0003 17.25C27.746 17.25 25.584 18.1456 23.9899 19.7396C22.3959 21.3337 21.5003 23.4957 21.5003 25.75V35.6667H17.2503C16.4989 35.6667 15.7782 35.3682 15.2469 34.8368C14.7155 34.3055 14.417 33.5848 14.417 32.8334V27.1667C14.417 26.4152 14.7155 25.6946 15.2469 25.1632C15.7782 24.6319 16.4989 24.3334 17.2503 24.3334H18.7548C19.1005 21.5948 20.4337 19.0765 22.5041 17.251C24.5746 15.4255 27.24 14.4182 30.0003 14.4182C32.7606 14.4182 35.4261 15.4255 37.4965 17.251C39.567 19.0765 40.9001 21.5948 41.2458 24.3334ZM17.2503 27.1667V32.8334H18.667V27.1667H17.2503ZM41.3337 27.1667V32.8334H42.7503V27.1667H41.3337ZM23.9937 35.3621L25.4953 32.9594C26.8455 33.8052 28.4071 34.2526 30.0003 34.25C31.5936 34.2526 33.1551 33.8052 34.5053 32.9594L36.007 35.3621C34.2068 36.49 32.1247 37.0866 30.0003 37.0834C27.876 37.0867 25.7938 36.4901 23.9937 35.3621Z" fill="#2AAFD3"/>
</svg>
