<svg xmlns="http://www.w3.org/2000/svg" width="78" height="78" fill="#2aafd3" xmlns:v="https://vecta.io/nano"><circle cx="38.888" cy="38.888" r="38.888" fill-opacity=".14"/><path d="M25.22 18.609l-2.112 2.109 3.142 3.141 2.109-2.109-3.14-3.141zm27.562 0L49.64 21.75l2.111 2.109 3.141-3.139-2.109-2.111zM39 19.545a13.75 13.75 0 0 0-1.5.096c-.015 0-.03-.003-.045 0-6.084.698-10.926 5.613-11.767 11.67-.672 4.875 1.338 9.296 4.688 12.143 1.37 1.169 2.297 2.774 2.625 4.545v9h3.42c.522.896 1.474 1.5 2.58 1.5s2.058-.604 2.58-1.5H45v-6h.141v-1.782c0-2.199 1.143-4.416 3-6.139C50.625 40.59 52.5 37.057 52.5 33c0-7.41-6.099-13.524-13.5-13.455zm0 3C44.798 22.464 49.5 27.21 49.5 33c0 3.141-1.455 5.907-3.469 7.92l.048.048A11.69 11.69 0 0 0 42.419 48h-6.561c-.33-2.571-1.433-5.059-3.516-6.844-2.651-2.25-4.23-5.64-3.702-9.468.656-4.725 4.489-8.524 9.187-9.045.388-.054.779-.086 1.17-.096l.003-.002zM18 33v3h4.5v-3H18zm37.5 0v3H60v-3h-4.5zM26.25 45.141l-3.141 3.139 2.11 2.111 3.138-3.141-2.108-2.109zm25.5 0l-2.109 2.109 3.14 3.141 2.11-2.111-3.141-3.139zM36 51h6v3h-6v-3z"/></svg>