<svg xmlns="http://www.w3.org/2000/svg" width="78" height="78" fill="#2aafd3" xmlns:v="https://vecta.io/nano"><circle cx="38.888" cy="38.888" r="38.888" fill-opacity=".14"/><path fill-rule="evenodd" d="M37.191 28.791l2.24-2.24c1.803-1.806 4.97-3.058 8.114-3.508a14.96 14.96 0 0 1 4.211-.056c1.24.185 1.999.549 2.352.904s.72 1.112.904 2.352c.179 1.196.165 2.66-.056 4.211-.448 3.144-1.702 6.311-3.508 8.114L39 51.02l-3.209-3.209a1.4 1.4 0 0 0-.99-.411 1.4 1.4 0 0 0-.991.41 1.4 1.4 0 0 0-.305 1.526c.07.17.173.325.303.455l4.2 4.2a1.4 1.4 0 0 0 .991.411 1.4 1.4 0 0 0 .991-.411l1.532-1.534 3.276 5.463a1.4 1.4 0 0 0 1.03.671 1.4 1.4 0 0 0 1.163-.4l5.6-5.6a1.4 1.4 0 0 0 .395-1.19l-1.302-9.106 1.747-1.744c2.394-2.397 3.802-6.23 4.298-9.702.252-1.756.28-3.5.053-5.023-.224-1.478-.717-2.94-1.691-3.917s-2.439-1.47-3.92-1.691c-1.668-.22-3.358-.201-5.02.056-3.475.49-7.311 1.898-9.702 4.292l-1.744 1.747-9.106-1.302a1.4 1.4 0 0 0-1.19.395l-5.6 5.6a1.4 1.4 0 0 0-.4 1.163 1.4 1.4 0 0 0 .672 1.03l5.46 3.276-1.532 1.532a1.4 1.4 0 0 0-.411.991 1.4 1.4 0 0 0 .411.991l4.2 4.2a1.4 1.4 0 0 0 .455.304c.17.07.352.107.536.107s.366-.036.537-.107a1.4 1.4 0 0 0 .759-.759 1.4 1.4 0 0 0 0-1.073 1.4 1.4 0 0 0-.304-.455L26.98 39l1.812-1.809 8.4-8.4zm9.086 26.152l-2.716-4.528 5.648-5.645.907 6.334-3.839 3.839zM27.584 34.436l5.645-5.645-6.334-.907-3.836 3.836 4.525 2.716zm-2.996 12.555a1.4 1.4 0 0 0 .411-.99 1.4 1.4 0 0 0-.41-.991 1.4 1.4 0 0 0-.99-.411 1.4 1.4 0 0 0-.991.41l-2.8 2.8a1.4 1.4 0 0 0 .001 1.981 1.4 1.4 0 0 0 1.981-.001l2.797-2.797zm4.2 4.2a1.4 1.4 0 0 0 .427-.995 1.4 1.4 0 0 0-.41-1.002 1.4 1.4 0 0 0-1.002-.41 1.4 1.4 0 0 0-.995.427l-5.6 5.6a1.4 1.4 0 0 0 .001 1.981 1.4 1.4 0 0 0 1.981-.001l5.597-5.6zm4.2 4.2a1.4 1.4 0 0 0 .411-.99 1.4 1.4 0 0 0-.41-.991 1.4 1.4 0 0 0-.99-.411 1.4 1.4 0 0 0-.991.41l-2.8 2.8a1.4 1.4 0 0 0 .001 1.981 1.4 1.4 0 0 0 1.981-.001l2.797-2.797zM44.6 36.897a3.5 3.5 0 0 0 2.473-1.024c.325-.325.582-.71.758-1.135s.266-.879.266-1.338-.09-.914-.266-1.338-.433-.81-.758-1.135a3.5 3.5 0 0 0-2.473-1.024 3.5 3.5 0 0 0-3.497 3.497 3.5 3.5 0 0 0 3.497 3.497z"/></svg>