<svg width="61" height="60" viewBox="0 0 61 60" fill="none" xmlns="http://www.w3.org/2000/svg">
<circle cx="30.333" cy="30" r="30" fill="#2AAFD3" fill-opacity="0.14"/>
<path d="M19.7881 14.3557L18.1589 15.9827L20.5831 18.4058L22.2101 16.7788L19.7881 14.3557ZM41.0509 14.3557L38.6266 16.7788L40.2548 18.4058L42.6778 15.9838L41.0509 14.3557ZM30.4189 15.0778C30.0371 15.0824 29.6506 15.1044 29.2618 15.1518C29.2502 15.1518 29.2386 15.1495 29.2271 15.1518C24.5336 15.6899 20.7983 19.4819 20.1492 24.1545C19.6308 27.9153 21.1814 31.3254 23.7653 33.5217C24.8222 34.4237 25.5372 35.6616 25.7903 37.0279V43.9708H28.4286C28.8313 44.6616 29.5661 45.128 30.4189 45.128C31.2718 45.128 32.0066 44.6616 32.4092 43.9708H35.0476V39.3422H35.1563V37.9675C35.1563 36.2711 36.0381 34.5608 37.4706 33.2312C39.3869 31.3127 40.8333 28.5876 40.8333 25.4575C40.8333 19.7411 36.1283 15.0245 30.4189 15.0778ZM30.4189 17.3921C34.8913 17.3296 38.519 20.9908 38.519 25.4575C38.519 27.8806 37.3966 30.0143 35.8425 31.5673L35.8796 31.6043C34.3352 33.0284 33.3366 34.9471 33.0561 37.029H27.9947C27.7401 35.0457 26.8896 33.1259 25.2823 31.7489C23.2376 30.0132 22.0191 27.398 22.4265 24.445C22.9321 20.7999 25.8898 17.8688 29.514 17.4673C29.8133 17.4256 30.1146 17.4009 30.4166 17.3932L30.4189 17.3921ZM14.2188 25.4575V27.7718H17.6902V25.4575H14.2188ZM43.1476 25.4575V27.7718H46.6191V25.4575H43.1476ZM20.5831 34.8235L18.16 37.2454L19.7881 38.8735L22.2089 36.4505L20.5831 34.8235ZM40.2548 34.8235L38.6278 36.4505L41.0497 38.8735L42.6778 37.2454L40.2548 34.8235ZM28.1046 39.3433H32.7332V41.6577H28.1046V39.3433Z" fill="#2AAFD3"/>
</svg>
