<svg width="61" height="60" viewBox="0 0 61 60" fill="none" xmlns="http://www.w3.org/2000/svg">
<circle cx="30.667" cy="30" r="30" fill="#2AAFD3" fill-opacity="0.14"/>
<path d="M45.7959 35.8717H44.6388V21.9859C44.6388 21.0652 44.273 20.1822 43.622 19.5312C42.971 18.8801 42.088 18.5144 41.1673 18.5144H20.3385C19.4178 18.5144 18.5348 18.8801 17.8838 19.5312C17.2328 20.1822 16.867 21.0652 16.867 21.9859V35.8717H15.7099C15.403 35.8717 15.1087 35.9937 14.8917 36.2107C14.6746 36.4277 14.5527 36.722 14.5527 37.0289V39.3432C14.5527 40.2639 14.9185 41.1469 15.5695 41.7979C16.2205 42.4489 17.1035 42.8147 18.0242 42.8147H43.4816C44.4023 42.8147 45.2853 42.4489 45.9363 41.7979C46.5874 41.1469 46.9531 40.2639 46.9531 39.3432V37.0289C46.9531 36.722 46.8312 36.4277 46.6142 36.2107C46.3972 35.9937 46.1028 35.8717 45.7959 35.8717ZM19.1814 21.9859C19.1814 21.679 19.3033 21.3846 19.5203 21.1676C19.7373 20.9506 20.0316 20.8287 20.3385 20.8287H41.1673C41.4742 20.8287 41.7685 20.9506 41.9856 21.1676C42.2026 21.3846 42.3245 21.679 42.3245 21.9859V35.8717H19.1814V21.9859ZM44.6388 39.3432C44.6388 39.6501 44.5169 39.9444 44.2999 40.1614C44.0829 40.3785 43.7885 40.5004 43.4816 40.5004H18.0242C17.7173 40.5004 17.423 40.3785 17.206 40.1614C16.989 39.9444 16.867 39.6501 16.867 39.3432V38.1861H44.6388V39.3432ZM34.2244 24.3002C34.2244 24.6071 34.1025 24.9014 33.8855 25.1184C33.6685 25.3354 33.3741 25.4573 33.0672 25.4573H28.4386C28.1317 25.4573 27.8374 25.3354 27.6204 25.1184C27.4034 24.9014 27.2814 24.6071 27.2814 24.3002C27.2814 23.9933 27.4034 23.699 27.6204 23.482C27.8374 23.2649 28.1317 23.143 28.4386 23.143H33.0672C33.3741 23.143 33.6685 23.2649 33.8855 23.482C34.1025 23.699 34.2244 23.9933 34.2244 24.3002Z" fill="#2AAFD3"/>
</svg>
