<svg width="61" height="60" viewBox="0 0 61 60" fill="none" xmlns="http://www.w3.org/2000/svg">
<circle cx="30.667" cy="30" r="30" fill="#2AAFD3" fill-opacity="0.14"/>
<path d="M34.2838 33.6165C35.5792 32.3167 35.7541 30.3902 34.6735 29.3073C33.5929 28.2267 31.6643 28.4016 30.3667 29.6993C29.0713 30.9969 27.1426 31.1719 26.062 30.0912C24.9814 29.0106 25.1563 27.0819 26.4539 25.7864M26.4539 25.7864L25.6701 25.0025M26.4539 25.7864C27.1869 25.0513 28.1213 24.6792 28.9916 24.6859M35.0655 34.3982L34.2816 33.6143C33.3959 34.5023 32.2112 34.8655 31.2059 34.6573" stroke="#2AAFD3" stroke-width="2.32716" stroke-linecap="round"/>
<path d="M36.3394 20.2686C34.2523 18.1828 33.2101 17.1393 31.856 16.7518C30.5019 16.363 29.0642 16.6951 26.19 17.3593L24.5322 17.7414C22.1129 18.2989 20.9033 18.5784 20.0744 19.4059C19.2469 20.2348 18.9674 21.4445 18.4099 23.8637L18.0264 25.5215C17.3636 28.397 17.0315 29.8335 17.4189 31.1875C17.8077 32.5416 18.8513 33.5838 20.9371 35.6696L23.4076 38.1401C27.0391 41.773 28.8536 43.5861 31.1081 43.5861C33.364 43.5861 35.1784 41.7716 38.8086 38.1415C42.4401 34.5099 44.2545 32.6955 44.2545 30.4396C44.2545 28.6279 43.0827 27.0997 40.7391 24.6859" stroke="#2AAFD3" stroke-width="2.32716" stroke-linecap="round"/>
</svg>
