<svg width="60" height="60" viewBox="0 0 60 60" fill="none" xmlns="http://www.w3.org/2000/svg">
<circle cx="30" cy="30" r="30" fill="#2AAFD3" fill-opacity="0.14"/>
<path d="M20.0833 38.4999H29.0437C29.209 39.0194 29.3979 39.5152 29.6104 39.9874C29.8229 40.4596 30.0826 40.9083 30.3896 41.3333H17.25V15.8333H42.75V26.6708C42.3014 26.4583 41.841 26.2868 41.3687 26.1565C40.8965 26.0262 40.4125 25.9265 39.9167 25.8576V18.6666H20.0833V31.4166H26.0333C26.2458 32.0541 26.6 32.6089 27.0958 33.0812C27.5917 33.5534 28.1465 33.8839 28.7604 34.0728C28.6896 34.5451 28.6424 35.0234 28.6187 35.5079C28.5951 35.9924 28.6187 36.4703 28.6896 36.9416C27.8396 36.7763 27.0429 36.4632 26.2997 36.0023C25.5564 35.5414 24.9009 34.9573 24.3333 34.2499H20.0833V38.4999ZM37.1187 42.7499L36.6938 40.6249C36.4104 40.5069 36.1446 40.3831 35.8962 40.2538C35.6478 40.1244 35.3942 39.9648 35.1354 39.7749L33.0813 40.4124L31.6646 38.0041L33.2937 36.5874C33.2465 36.3041 33.2229 35.9971 33.2229 35.6666C33.2229 35.336 33.2465 35.0291 33.2937 34.7458L31.6646 33.3291L33.0813 30.9208L35.1354 31.5583C35.3951 31.3694 35.6492 31.2102 35.8976 31.0808C36.146 30.9514 36.4114 30.8273 36.6938 30.7083L37.1187 28.5833H39.9521L40.3771 30.7083C40.6604 30.8263 40.9263 30.9505 41.1747 31.0808C41.4231 31.2112 41.6766 31.3703 41.9354 31.5583L43.9896 30.9208L45.4062 33.3291L43.7771 34.7458C43.8243 35.0291 43.8479 35.336 43.8479 35.6666C43.8479 35.9971 43.8243 36.3041 43.7771 36.5874L45.4062 38.0041L43.9896 40.4124L41.9354 39.7749C41.6757 39.9638 41.4221 40.1234 41.1747 40.2538C40.9272 40.3841 40.6614 40.5078 40.3771 40.6249L39.9521 42.7499H37.1187ZM38.5354 38.4999C39.3146 38.4999 39.9818 38.2227 40.5372 37.6683C41.0925 37.1139 41.3697 36.4467 41.3687 35.6666C41.3678 34.8865 41.0906 34.2197 40.5372 33.6663C39.9837 33.1128 39.3165 32.8351 38.5354 32.8333C37.7544 32.8314 37.0876 33.109 36.5351 33.6663C35.9826 34.2235 35.7049 34.8903 35.7021 35.6666C35.6992 36.4429 35.9769 37.1102 36.5351 37.6683C37.0933 38.2265 37.76 38.5037 38.5354 38.4999Z" fill="#2AAFD3" stroke="#E1F4F9" stroke-width="0.321432"/>
</svg>
