<svg xmlns="http://www.w3.org/2000/svg" width="1440" height="512" fill="none" xmlns:v="https://vecta.io/nano"><path opacity=".15" d="M0 501.505c48.725 10.506 99.151 12.323 147.967 3.555 31.46-5.632 59.069-14.2 84.804-24.866-23.81 9.267-49.16 16.857-77.762 21.871-50.103 8.687-103.346 6.311-155.009-5.992v-1.279c51.622 12.344 104.805 14.72 154.806 6.052 31.865-5.553 59.839-14.201 85.939-25.007-24.175 9.408-49.879 17.058-78.897 21.991-52.291 8.768-108.017 5.472-161.848-8.769v-1.277c53.75 14.281 109.415 17.595 161.625 8.828 32.169-5.473 60.457-14.121 86.871-25.027-24.469 9.487-50.508 17.158-79.819 22.031-54.46 8.847-112.718 4.633-168.677-11.705v-1.257c55.898 16.337 114.076 20.572 168.474 11.743 29.454-4.893 55.614-12.623 80.204-22.19-22.614 8.229-46.515 14.94-73.162 19.174C118.979 498.369 58.198 492.897 0 474.302v-1.299c58.137 18.635 118.838 24.167 175.313 15.16 32.676-5.193 61.501-13.841 88.492-24.887-25.025 9.627-51.602 17.278-81.46 21.891-58.796 9.048-122.04 2.237-182.345-18.715v-1.298c60.245 20.992 123.448 27.843 182.142 18.794 33.03-5.113 62.23-13.78 89.556-24.945-25.39 9.726-52.311 17.416-82.535 21.929-60.953 9.108-126.77.979-189.163-22.469v-1.299c62.311 23.509 128.068 31.679 188.981 22.55 33.385-4.993 62.899-13.701 90.57-24.986-25.725 9.847-53.001 17.557-83.569 21.97-63.183 9.148-131.543-.299-195.982-26.324v-1.319c64.358 26.086 132.678 35.593 195.8 26.446 33.77-4.895 63.649-13.662 91.724-25.087-26.11 9.966-53.74 17.736-84.693 22.07C137.379 481.652 66.425 470.886 0 442.125v-1.339c66.385 28.822 137.318 39.628 202.649 30.48 34.064-4.774 64.247-13.542 92.657-25.067-26.445 10.067-54.399 17.817-85.656 22.051-67.681 9.148-141.229-3.356-209.65-34.973v-1.378c68.36 31.717 141.847 44.28 209.488 35.133 34.459-4.655 65.007-13.482 93.812-25.147-26.83 10.206-55.169 17.996-86.811 22.151C146.508 473.163 70.366 458.903 0 424.269v-1.378c70.306 34.733 146.407 49.074 216.307 39.926 34.783-4.554 65.675-13.402 94.805-25.166-27.144 10.286-55.827 18.116-87.794 22.15-72.23 9.088-151.027-6.91-223.318-44.68v-1.377c72.21 37.868 150.925 53.906 223.176 44.839 35.097-4.415 66.355-13.302 95.889-25.226-27.549 10.425-56.577 18.295-88.928 22.21-74.52 9.088-155.981-8.689-230.137-49.713v-1.398c74.075 41.125 155.454 58.92 229.995 49.912 35.472-4.314 67.084-13.242 96.973-25.265-27.903 10.525-57.296 18.435-89.992 22.25C160.075 460.38 75.939 440.826 0 396.426v-1.417l.486.299c75.757 44.3 159.73 63.754 236.348 54.826 35.796-4.174 67.763-13.142 98.027-25.306-28.258 10.665-58.026 18.595-91.056 22.29-77.418 8.689-162.04-11.625-238.324-57.223L0 386.54v-1.459l6.11 3.776c76.06 45.459 160.398 65.711 237.553 57.063 35.34-3.975 67.064-12.583 97.084-24.467.223-.14.446-.26.669-.4-28.238 10.506-57.914 18.316-90.772 21.851-77.884 8.429-162.942-12.723-239.529-59.46L0 376.473v-1.458l11.763 7.39c76.365 46.598 161.179 67.629 238.739 59.28 34.722-3.734 65.979-12.103 95.636-23.588l.79-.479c-27.903 10.166-57.154 17.717-89.465 21.051-78.401 8.149-163.834-13.801-240.725-61.677L0 366.287v-1.458l17.407 11.125c76.648 47.736 161.878 69.527 239.934 61.518 34.135-3.536 64.966-11.665 94.278-22.79.263-.18.527-.34.811-.5-27.549 9.828-56.395 17.137-88.138 20.273-78.918 7.79-164.756-14.92-241.941-63.933L0 355.961v-1.458l23.04 14.98c76.942 48.894 162.638 71.543 241.13 63.734 31.014-3.056 59.231-10.126 86.233-19.653-24.914 8.149-51.014 14-79.272 16.657-79.394 7.49-165.678-15.979-243.157-66.151L0 345.455v-1.478l28.663 19.074c77.236 49.993 163.277 73.441 242.346 65.952 32.615-3.076 62.372-10.366 90.712-20.612a42.45 42.45 0 0 1 1.276-.799c-26.819 9.167-54.905 15.698-85.047 18.415-79.719 7.19-166.59-17.098-244.322-68.408L0 334.769v-1.497l34.317 23.308c77.489 51.151 164.016 75.419 243.531 68.188 31.967-2.875 61.643-10.066 89.972-20.173l.851-.539c-26.525 8.888-54.216 15.18-83.892 17.717-80.377 6.85-167.542-18.197-245.528-70.626L0 323.924v-1.478l39.94 27.682c77.763 52.291 164.705 77.296 244.737 70.426 31.318-2.696 60.508-9.507 88.381-19.234l1.297-.799c-26.211 8.588-53.547 14.66-82.737 17.037-80.853 6.591-168.495-19.294-246.733-72.882L0 312.999v-1.518c14.945 10.905 30.163 21.591 45.594 32.197 78.016 53.408 165.414 79.193 245.922 72.642 30.812-2.496 59.596-9.068 87.155-18.496.466-.279.912-.578 1.378-.858-25.897 8.329-52.878 14.141-81.612 16.358-7.812.598-15.685.898-23.598.898-74.601 0-153.398-26.544-224.331-75.997L0 301.953v-1.517c16.495 12.303 33.587 24.447 51.217 36.79 78.249 54.547 165.961 81.211 247.138 74.879 30.406-2.357 58.897-8.728 86.183-17.875l1.499-.9c-25.674 8.09-52.392 13.702-80.751 15.779-81.927 5.972-170.42-21.511-249.145-77.356L0 290.828v-1.557c19.149 14.56 38.36 28.341 56.85 41.504 71.441 50.672 150.895 77.895 226.166 77.895 7.426 0 14.833-.259 22.168-.799 30.102-2.197 58.36-8.369 85.494-17.317l1.489-.918c-25.482 7.889-51.987 13.322-80.063 15.239-82.433 5.633-171.361-22.59-250.34-79.572L0 279.524v-1.558c20.244 15.658 41.136 30.919 62.494 46.358 78.745 56.803 167.339 85.005 249.529 79.332 29.778-2.057 57.823-8.049 84.764-16.776l1.52-.919c-25.33 7.689-51.602 12.902-79.384 14.699-6.474.42-13.009.62-19.595.62-77.327 0-158.95-28.881-231.951-82.429l-4.134-3.036L0 268.099v-1.577c20.69 16.337 42.108 32.215 63.993 48.294l4.124 3.036c78.958 57.943 168.028 86.963 250.745 81.571 29.484-1.898 57.276-7.71 84.035-16.219l1.884-1.139c-25.279 7.591-51.521 12.704-79.009 14.361-83.548 5.014-173.337-24.806-252.751-84.047l-8.805-6.57L0 256.594v-1.577c20.973 16.858 42.716 33.215 64.966 49.813l8.784 6.591c73.447 54.766 155.717 84.326 233.704 84.326 6.109 0 12.178-.18 18.237-.559 29.211-1.758 56.982-7.49 83.731-15.899l1.337-.818c-24.924 7.29-50.903 12.143-78.168 13.722-5.501.298-11.034.458-16.596.458-79.465-.02-163.114-30.458-237.371-86.723l-13.172-9.986L0 244.991v-1.599c21.338 17.497 43.527 34.414 66.222 51.571l13.172 9.986c79.222 60.04 169.163 90.598 253.136 86.025 29.231-1.698 56.932-7.27 83.508-15.459.75-.44 1.499-.799 2.249-1.239-25.37 7.411-51.399 12.224-78.857 13.702-5.116.259-10.263.379-15.42.379-80.306 0-164.847-31.217-239.732-88.88l-17.326-13.322C43.993 268.559 21.541 251.242 0 233.286v-1.597c21.763 18.195 44.479 35.691 67.722 53.508l17.305 13.302c74.683 57.502 158.94 88.639 238.983 88.639a280.13 280.13 0 0 0 15.359-.398c29.363-1.559 57.135-6.971 84.156-15.32.912-.519 1.844-.998 2.756-1.498-25.786 7.55-52.291 12.463-80.022 13.822a282.2 282.2 0 0 1-14.276.339c-81.157 0-166.589-32.036-242.103-91.077l-21.156-16.478L0 221.502v-1.618c22.27 18.995 45.634 37.15 69.495 55.685l21.155 16.478c75.311 58.881 160.44 90.818 241.333 90.818 4.762 0 9.494-.12 14.215-.34 29.636-1.458 57.874-6.97 85.352-15.499a50.32 50.32 0 0 0 1.773-.979c-25.806 7.451-52.372 12.244-80.225 13.482-4.367.18-8.744.28-13.161.28-81.988 0-168.282-32.817-244.423-93.255L70.691 266.98C46.404 247.886 22.615 229.171 0 209.578v-1.658c22.858 19.853 46.891 38.788 71.481 58.102l24.823 19.573c79.962 63.495 171.179 96.37 256.733 92.696 29.697-1.299 57.925-6.691 85.332-15.04l2.776-1.518c-26.222 7.59-53.203 12.463-81.228 13.562a300.26 300.26 0 0 1-12.016.24c-82.88 0-170.035-33.616-246.764-95.452l-28.258-22.549C47.752 237.58 23.263 218.007 0 197.434v-1.657c23.506 20.831 48.258 40.605 73.649 60.797l28.278 22.571c76.507 61.657 163.378 95.171 245.974 95.171a296.44 296.44 0 0 0 11.955-.24c29.89-1.178 58.614-6.69 86.448-15.219l6.377-3.476 4.17-2.336c-31.846 10.266-64.785 16.777-99.173 17.656-86.182 2.317-177.644-32.216-257.554-97.009l-19.778-16.039C52.575 235.163 25.533 213.113 0 189.864v-1.677c25.755 23.528 53.061 45.798 81.137 68.507l19.777 16.059c77.256 62.636 165.293 96.83 248.841 96.83l7.882-.1c36.313-.939 70.569-7.81 103.627-18.815l7.997-4.374c.911-.499 1.801-1.039 2.712-1.538-37.11 12.863-75.571 20.872-116.544 21.371l-3.709.02c-84.845-.02-174.401-35.033-252.609-98.867l-10.223-8.409C58.036 233.546 28.055 208.719 0 182.415v-1.698c28.278 26.584 58.522 51.63 89.678 77.216l10.223 8.409c77.985 63.654 167.258 98.567 251.819 98.567l3.688-.02c43.304-.519 83.852-9.368 122.942-23.608l7.288-3.995 2.956-1.697c-42.859 15.958-87.197 25.924-134.746 25.924h-.669c-86.121-.159-176.711-35.892-255.092-100.624C64.986 233.546 31.48 205.643 0 175.265v-1.699c31.703 30.679 65.513 58.801 98.898 86.384 78.137 64.533 168.443 100.186 254.281 100.346h.669c50.325 0 97.071-11.146 142.277-28.842l5.83-3.196 2.875-1.658c-47.23 18.555-95.955 30.38-148.307 30.38-1.864 0-3.729-.02-5.593-.06-85.99-1.359-176.164-37.749-253.856-102.443C62.453 225.657 29.859 197.554 0 168.054v-1.718c30.062 29.78 62.94 58.102 97.885 87.202 77.469 64.514 167.359 100.805 253.065 102.163l5.573.04c55.665 0 107.211-13.442 157.275-34.134l5.911-3.196c.405-.219.79-.479 1.195-.699-51.562 21.053-104.501 34.793-161.483 34.793a384.44 384.44 0 0 1-10.73-.16c-85.879-2.596-175.607-39.626-252.63-104.279C63.608 220.843 30.811 192.221 0 161.003v-1.757c31.034 31.557 64.115 60.418 96.851 87.902 76.821 64.453 166.286 101.383 251.88 103.96a320.63 320.63 0 0 0 10.69.159c60.467 0 116.439-15.559 171.058-38.908 1.721-.998 3.422-1.837 5.162-2.796-55.469 23.109-112.136 38.548-173.09 38.548-5.319 0-10.709-.119-16.109-.359-85.737-3.834-175.03-41.504-251.414-106.077C59.981 212.035 28.38 183.434 0 154.132v-1.797c28.582 29.62 60.447 58.481 95.838 88.401 76.172 64.413 165.191 101.983 250.664 105.778a360.1 360.1 0 0 0 16.049.36c64.419 0 124.079-17.258 182.605-42.664a3.36 3.36 0 0 0 .365-.199 48.21 48.21 0 0 0 1.396-.819c-58.222 24.208-117.454 40.606-180.982 40.606a378.47 378.47 0 0 1-21.743-.64c-85.594-5.073-174.441-43.382-250.178-107.895C62.068 208.06 30.062 179.059 0 147.322v-1.818c30.284 32.097 62.575 61.378 94.825 88.841 75.534 64.333 164.117 102.541 249.448 107.574a357.93 357.93 0 0 0 21.642.66c66.486 0 128.287-18.016 189.181-44.16-68.364 27.902-137.822 45.698-213.153 40.146-85.433-6.292-173.854-45.259-248.962-109.693C62.433 202.647 30.467 173.346 0 140.531v-1.818c30.71 33.196 62.98 62.776 93.812 89.22 74.905 64.274 163.043 103.141 248.212 109.413 9.291.679 18.44.999 27.559.999 62.717 0 121.623-15.679 179.703-38.888-56.987 21.571-114.707 35.992-175.701 35.992a388.64 388.64 0 0 1-33.891-1.479c-85.24-7.53-173.226-47.136-247.726-111.509C62.98 197.414 30.994 167.814 0 133.78v-1.837c31.237 34.433 63.527 64.313 92.778 89.599 74.318 64.213 162.04 103.701 247.017 111.19 71.795 6.371 138.677-8.249 204.511-32.696-54.153 18.995-108.977 31.418-166.405 31.418-13.344 0-26.829-.679-40.446-2.077-85.088-8.789-172.628-49.035-246.5-113.328C56.182 185.79 26.13 156.55 0 127.528v-1.837c26.313 29.32 56.627 58.861 91.765 89.44 73.69 64.133 160.987 104.259 245.811 113.028 69.455 7.13 134.701-5.074 198.916-26.824-65.126 20.732-131.224 31.737-201.287 23.448-84.885-10.026-172-50.911-245.264-115.125-34.124-29.92-63.811-59.4-89.941-88.96v-1.838c26.292 29.879 56.283 59.659 90.752 89.879 73.081 64.034 159.953 104.819 244.595 114.825 69.029 8.109 134.278-2.496 198.574-22.729-65.227 19.215-131.348 28.622-200.965 19.354-84.703-11.284-171.372-52.829-244.048-116.943-33.699-29.72-63.011-59.2-88.908-88.88v-1.857c26.07 29.999 55.695 59.779 89.739 89.818 72.495 63.975 158.94 105.379 243.38 116.644 69.272 9.227 135.09-.12 200.033-19.215-65.328 17.796-132.534 26.225-202.444 15.839-84.501-12.563-170.734-54.726-242.802-118.739C54.885 167.534 25.836 137.875 0 107.775v-1.878c26.039 30.439 55.371 60.419 88.725 90.039 71.917 63.854 157.907 105.937 242.164 118.441 69.12 10.286 135.638 2.097 200.339-15.36-67.048 16.878-133.691 23.329-202.771 11.985-84.287-13.822-170.085-56.624-241.586-120.558C54.297 161.323 25.593 131.703 0 101.543v-1.897c25.796 30.518 54.763 60.438 87.722 89.899 71.319 63.754 156.894 106.476 240.938 120.238 62.676 10.307 123.373 5.812 184.207-7.75-60.956 12.324-122.818 15.819-186.649 4.375-84.075-15.08-169.426-58.542-240.36-122.376C53.689 155.091 25.35 125.551 0 95.372v-1.897c25.553 30.519 54.176 60.399 86.689 89.66 70.751 63.674 155.9 107.016 239.752 122.075 66.597 11.945 131.078 7.51 194.665-6.212-70.672 13.882-135.312 14.901-197.137 2.816-83.852-16.378-168.798-60.458-239.124-124.172C53.325 149.099 25.269 119.419 0 88.9v-1.917a851.69 851.69 0 0 0 85.676 89.759c70.184 63.554 154.887 107.556 238.536 123.874 67.692 13.182 133.348 9.786 197.036-2.697-71.463 12.663-136.832 12.523-199.528-.699-83.629-17.636-168.13-62.396-237.909-125.991C52.716 142.888 25.006 113.328 0 82.849v-1.937c25.208 30.838 53.203 60.758 84.663 89.419 69.616 63.456 153.894 108.095 237.32 125.691 58.391 12.324 116.143 12.264 172.846 4.595-62.013 7.25-119.684 4.653-175.359-7.99-83.386-18.934-167.46-64.313-236.672-127.788C52.109 136.696 24.742 107.236 0 76.857v-1.977c24.945 30.779 52.595 60.578 83.649 89.061 69.07 63.334 152.901 108.613 236.105 127.488 58.026 13.162 115.535 14.301 171.391 8.129-61.317 5.692-118.533 1.937-173.914-11.524-84.379-20.513-165.789-65.313-235.466-129.606C51.48 130.484 24.459 101.184 0 70.905v-1.977c24.681 30.679 51.987 60.339 82.616 88.601 69.515 64.153 150.743 108.854 234.919 129.306 57.671 14.021 114.947 16.338 169.965 11.605-60.651 4.154-117.4-.72-172.518-15.001-84.095-21.81-165.09-67.249-234.23-131.403C51.095 124.493 24.337 95.212 0 64.793v-1.778c24.398 30.539 51.379 60.039 81.603 88.122 68.978 64.014 149.79 109.373 233.703 131.123 58.684 15.22 118.969 19.993 184.382 14.161-66.102 4.634-127.704-1.238-186.955-17.576-83.873-23.129-164.422-69.187-232.995-133.221C50.467 118.301 24.053 89.14 0 58.761v-2.017c24.276 30.779 50.974 60.318 80.59 87.981C149 208.639 229.387 254.597 313.057 277.666c47.934 13.202 97.581 19.094 149.705 18.575-52.854-.379-103.108-7.63-152.279-21.99-83.609-24.427-163.752-71.125-231.778-135.038C49.859 112.109 23.77 83.148 0 52.969v-2.017c23.992 30.599 50.366 59.94 79.556 87.382 67.904 63.775 147.866 110.352 231.272 134.739 50.771 14.841 103.832 22.011 159.648 21.731-56.302-.779-110.215-9.088-162.242-25.166-83.325-25.725-163.043-73.041-230.532-136.816C49.332 105.997 23.445 77.476 0 47.576v-1.997c23.668 30.299 49.839 59.22 78.563 86.344 67.357 63.654 146.893 110.89 230.036 136.556 55.634 17.196 113.437 25.565 174.023 25.205-61.153-.798-120.496-10.346-176.627-28.621C222.933 237.98 143.63 190.044 76.669 126.41 48.704 99.826 23.162 71.524 0 41.844v-2.017c23.385 30.08 49.211 58.781 77.54 85.705 66.82 63.514 145.961 111.351 228.84 138.353 49.879 16.259 102.049 25.447 156.2 27.803-54.719-3.395-107.78-13.721-158.834-31.237-82.778-28.363-161.656-76.936-228.091-140.432C48.076 93.654 22.878 65.592 0 36.151v-2.037c23.101 29.86 48.603 58.321 76.527 85.006 66.293 63.394 145.008 111.869 227.624 140.191 52.615 18.015 107.358 28.422 163.855 31.437-57.308-4.074-113.165-15.679-166.51-34.873-82.514-29.719-160.956-78.913-226.854-142.267C47.468 87.482 22.594 59.68 0 30.499v-2.037c22.817 29.6 47.975 57.802 75.513 84.266 65.767 63.235 144.077 112.349 226.409 141.989 54.864 19.754 111.583 31.438 169.828 35.273-59.258-4.913-117.132-17.837-172.503-38.708-82.211-31.038-160.226-80.852-225.618-144.086C46.952 81.41 22.432 53.768 0 24.607v-1.758c22.533 29.321 47.367 57.263 74.48 83.468 65.29 63.115 143.164 112.848 225.213 143.807 47.985 18.115 97.905 30.158 148.979 36.23-51.743-7.07-102.555-20.292-151.664-39.686-81.512-32.177-159.102-82.629-224.412-145.864A762.46 762.46 0 0 1 0 18.895v-2.277C22.371 46.078 46.911 74 73.467 99.926c65.189 63.135 142.637 113.487 223.997 145.624 47.782 18.855 97.216 31.817 147.521 38.988-50.994-8.169-101.34-22.29-150.226-42.462-81.319-33.556-158.494-84.607-223.177-147.682C45.736 69.067 21.845 41.924 0 13.282v-2.257c22.088 29.181 46.283 56.823 72.454 82.509 64.581 62.956 141.604 113.927 222.791 147.402a671.19 671.19 0 0 0 145.333 41.604c-50.042-9.248-99.648-24.227-148.069-45.06-81.157-34.933-157.906-86.623-221.96-149.478C45.128 62.955 21.561 36.032 0 7.61V5.553c21.784 28.861 45.655 56.184 71.44 81.57 63.933 62.755 140.54 114.366 221.576 149.239 52.514 22.589 106.406 38.328 160.738 47.256C313.685 258.393 177.988 188.766 69.536 81.59 44.5 56.824 21.277 30.239 0 2.137V0c21.52 28.562 45.006 55.605 70.427 80.711 125.535 124.094 287.636 197.534 450.72 210.117l14.15-.02 11.499-.918 11.6-1.399 8.969-1.737 2.651-.619 10.932-2.697 2.065-.659 10.061-5.771 11.438-6.572 7.714-4.414 13.077-7.53 9.272-5.452c1.498-.899 3.057-1.758 4.575-2.657l10.244-5.992 14.231-8.369c.709-.439 1.397-.819 2.106-1.238l30.528-18.415 9.758-5.853 8.603-5.233 10.73-6.57 10.405-6.432 10.386-6.451c53.039-33.096 108.326-61.937 168.209-76.437 80.37-19.434 159.91 3.275 235.44 39.426 75.39-5.273 153.07 7.671 225.28 37.969 29.61 12.444 57.69 27.603 83.93 45.04v1.738c-85.96-57.044-190.58-88.042-293.52-84.427 21.74-.479 43.75.499 65.71 2.996 63.63 7.171 127.66 27.363 185.16 58.401 14.65 7.91 28.88 16.558 42.65 25.826v1.198c-67.29-45.479-145.84-74.959-227.95-84.226-23.46-2.637-46.95-3.556-70.13-2.836 23.71-.38 47.8.858 71.89 3.954 63.2 8.009 126.93 29.002 184.3 60.679 14.36 7.929 28.35 16.558 41.89 25.785v1.278c-67.17-45.958-145.17-76.217-226.33-86.543-21.34-2.717-42.68-4.015-63.73-4.015 21.6.319 43.53 2.018 65.51 5.133 62.74 8.868 126.16 30.639 183.39 62.955 14.09 7.95 27.84 16.578 41.16 25.785v1.299c-67.07-46.438-144.52-77.476-224.73-88.821-20.35-2.896-40.63-4.493-60.65-4.973 20.59.799 41.52 2.796 62.47 6.072 79.16 12.363 155.96 44.06 222.91 90.798v1.517c-66.97-46.916-143.86-78.733-223.11-91.097-19.31-3.036-38.59-4.873-57.62-5.772 19.6 1.219 39.46 3.455 59.46 6.871 78.16 13.362 154.42 45.858 221.27 93.074v1.518c-66.87-47.396-143.21-80.012-221.49-93.374-19.15-3.295-38.2-5.453-57.01-6.711 19.35 1.578 39.01 4.114 58.85 7.83 77.19 14.321 152.9 47.595 219.65 95.331v1.519c-66.79-47.936-142.58-81.311-219.87-95.652-18.55-3.455-36.91-5.892-55.03-7.49 18.69 1.938 37.7 4.733 56.89 8.608 76.2 15.28 151.35 49.335 218.01 97.59v1.517c-66.7-48.455-141.95-82.609-218.25-97.908-17.68-3.555-35.17-6.212-52.41-8.109 17.83 2.237 35.95 5.253 54.29 9.227 75.19 16.218 149.77 51.032 216.37 99.846v1.518c-66.64-48.994-141.34-83.927-216.65-100.165-17.05-3.695-33.95-6.572-50.57-8.768 17.2 2.536 34.74 5.772 52.47 9.906 74.17 17.117 148.21 52.69 214.75 102.063v1.518c-66.6-49.554-140.74-85.246-215.03-102.382-23.41-5.453-46.46-9.468-68.88-12.124 23.2 3.116 46.85 7.31 70.8 13.242 60.35 14.86 119.95 41.384 177.16 78.854 12.26 8.029 24.21 16.598 35.95 25.425v1.539c-66.56-50.132-140.17-86.604-213.41-104.639-13.73-3.396-27.39-6.252-40.96-8.749 14.17 2.816 28.49 6.112 42.9 9.907 59.82 15.639 119.14 42.943 176.27 81.111 11.98 8.009 23.66 16.557 35.2 25.346v1.118c-66.18-50.612-138.49-87.222-211.8-106.397-12.91-3.395-25.7-6.252-38.44-8.868 13.36 2.936 26.82 6.212 40.41 10.007 72.09 19.993 143.73 57.223 209.83 108.254v1.558c-66.18-51.251-137.96-88.62-210.18-108.634-12.2-3.415-24.29-6.271-36.33-9.007 12.65 3.075 25.4 6.351 38.3 10.146 70.97 20.812 142.09 58.801 208.21 110.471v1.578c-66.22-51.911-137.46-90.038-208.56-110.871-11.6-3.415-23.01-6.291-34.39-9.107 12 3.156 24.09 6.45 36.38 10.266 69.84 21.571 140.39 60.298 206.57 112.668v1.598c-66.28-52.589-136.97-91.477-206.96-113.108-10.71-3.335-21.21-6.132-31.74-8.948l33.77 10.106c68.69 22.331 138.69 61.817 204.93 114.886v1.598c-66.36-53.289-136.51-92.955-205.34-115.325-10.02-3.276-19.78-6.012-29.59-8.848l31.62 10.026c77.15 26.325 145.78 69.886 203.31 116.744v1.577c-57.59-47.016-126.36-90.778-203.72-117.162-9.31-3.216-18.34-5.892-27.45-8.729l29.5 9.887c75.77 27.084 144.01 71.424 201.67 118.96v1.558c-57.72-47.676-126.14-92.216-202.1-119.359-4.8-1.738-9.37-3.096-14.11-4.734l16.18 5.892c74.31 27.803 142.23 72.942 200.03 121.157v1.598c-57.88-48.395-125.96-93.734-200.48-121.597l-24.96-9.048 27.03 10.227c65.69 25.665 132.07 66.87 198.41 123.015v1.617c-66.5-56.384-133.04-97.788-198.86-123.494l-20-7.649 22.09 8.828c64.29 26.205 130.13 68.168 196.77 125.231v1.638c-66.81-57.343-132.82-99.486-197.24-125.731l-18-7.19 20.09 8.389c63.81 27.083 128.36 69.127 195.15 127.148v1.639c-66.97-58.302-131.69-100.526-195.62-127.669l-15.47-6.451 17.58 7.65c63.24 27.922 126.48 70.025 193.51 129.126v1.637c-67.23-59.4-130.64-101.663-194.02-129.645l-13.14-5.712 15.29 6.93c69.82 32.037 135.13 80.732 191.87 131.224v1.638c-56.87-50.693-122.36-99.626-192.4-131.763l-11.03-4.993 13.2 6.211c68.85 32.796 132.37 80.652 190.23 132.982v1.657c-58.02-52.549-121.73-100.644-190.78-133.54l-7.37-3.456 9.55 4.674c67.36 33.275 129.87 81.231 188.6 135.078v1.658c-58.89-54.087-121.59-102.262-189.16-135.637l-6.56-3.216 8.74 4.455c66.69 34.113 129.18 83.486 186.98 137.094v1.699c-57.96-53.868-120.66-103.482-187.54-137.716l-6.97-3.535 9.17 4.794c66.55 35.233 129.26 86.223 185.34 138.873v1.718c-55.59-52.27-117.76-102.961-183.7-138.274 65.59 35.931 126.71 86.543 183.7 140.89v1.738c-56.02-53.468-116.04-103.361-180.34-139.272 64.28 36.69 124.34 87.701 180.34 141.789v1.737c-55.51-53.688-115.01-104.359-178.59-141.07 64.21 37.869 122.8 88.661 178.59 143.427v1.797c-53.22-52.189-108.95-100.764-169.63-138.074 60.72 38.129 116.39 87.742 169.63 140.591v1.678c-56.12-55.905-114.91-108.255-179.47-147.202l-.85-.519-67.89-40.066-9.86-5.233-7.64-3.736-3.17-1.457-2.72-1.179c-1.45-.618-2.81-1.078-4.27-1.677-1.31-.54-2.55-.94-3.86-1.439-1.36-.519-2.68-.918-4.03-1.418-.93-.339-1.85-.599-2.78-.919-1.68-.558-3.32-.998-5-1.537-1.31-.4-2.59-.74-3.88-1.119l-3.73-.998c-.12-.02-.24-.06-.34-.08 37.83 18.695 74.6 40.146 109.86 60.738l3.69 2.157c66.13 38.648 128.18 92.076 185.94 148.141v1.737c-57.94-56.344-120.21-110.052-186.59-148.839l-3.66-2.137c-36.79-21.491-75.21-43.862-114.77-63.096l-1.74-.399-4.43-.899-3.49-.639c-1.25-.18-2.51-.42-3.76-.599l-3.71-.52-4.07-.498c43.43 19.593 85.74 43.5 127 66.85l6.13 3.474c68.71 38.868 133.05 92.636 193.09 149.739v1.698c-60.25-57.343-124.79-111.371-193.72-150.378l-6.13-3.455c-41.62-23.569-85.37-48.315-130.49-68.348l-9.78-.46c-1.95 0-3.93.08-5.89.1 47.04 19.653 92.88 44.68 137.47 69.127l8.28 4.534c70.66 38.708 136.33 91.577 200.26 151.237v1.677c-64.13-59.919-129.99-113.008-200.84-151.835l-8.28-4.534c-44.6-24.467-91.67-50.153-140.21-70.126l-4.24.14c-.83.06-1.61.18-2.42.24-1.32.12-2.6.3-3.91.438l-2.07.26c49.46 19.334 97.66 44.841 144.49 69.726l10.1 5.353c74.48 39.528 143.71 94.134 207.38 152.395v1.658c-63.83-58.481-133.27-113.327-207.99-152.974l-10.08-5.353c-46.58-24.747-95.84-50.851-146.67-70.445l-3.93.519-7.31 1.239c51.3 18.875 101.31 44.58 149.85 69.567l11.6 5.971c76.95 39.527 148.82 94.653 214.53 153.693v1.658c-65.87-59.26-137.94-114.626-215.12-154.272l-11.59-5.953c-49.66-25.565-100.05-51.51-151.35-70.285l-11.24 2.338c53 18.335 104.69 44.02 154.81 69.026l12.82 6.371c81.03 40.306 155.73 96.51 221.67 154.713v1.657c-66.08-58.421-140.98-114.865-222.24-155.271l-12.79-6.392c-51.24-25.545-103.27-51.39-156.27-69.626l-10.79 2.577c54.6 17.736 107.86 43.341 159.46 68.268l13.81 6.631c74.52 35.892 149.2 86.683 228.82 155.93v1.618c-79.84-69.526-154.71-120.497-229.37-156.429l-13.8-6.651c-52.76-25.486-106.37-51.251-160.96-68.888l-10.67 2.537c55.77 17.057 110.51 42.542 164.36 67.709l14.47 6.771c77.15 35.931 155.18 87.842 235.97 156.969v1.597c-81-69.387-159.18-121.456-236.49-157.468l-14.48-6.75c-54.43-25.447-109.74-51.212-166.12-68.249-3.36.879-6.68 1.917-10.04 2.836 57.43 16.438 113.75 41.844 169.16 66.91l14.86 6.712c79.6 35.891 160.96 88.879 243.11 158.047v1.597c-82.33-69.406-163.88-122.574-243.62-158.526l-14.88-6.711c-55.95-25.306-112.84-51.011-170.84-67.409l-10.26 2.916c59.19 15.779 117.25 41.124 174.3 66.091l15.04 6.571c83.14 36.251 166.91 89.499 250.26 158.786v1.598c-83.53-69.526-167.46-122.934-250.76-159.266l-15.03-6.57c-57.67-25.227-116.36-50.832-176.18-66.552l-10.2 3.036c61.09 15.101 121.02 40.346 179.89 65.253l14.87 6.292c85.29 35.971 172.49 90.298 257.41 159.824v1.598c-85.09-69.766-172.44-124.272-257.89-160.304l-14.88-6.291c-59.46-25.147-119.99-50.633-181.71-65.632l-9.922 3.155c63.022 14.401 124.782 39.527 185.442 64.334l14.41 5.892c88.67 36.131 178.25 90.718 264.55 160.524v1.598c-86.44-70.046-176.21-124.792-265.02-160.984l-14.43-5.912c-61.24-25.026-123.61-50.432-187.24-64.712l-10.041 3.195c65.061 13.641 128.811 38.748 191.391 63.475l13.64 5.373c91.99 36.23 183.98 91.057 271.7 161.203v1.577c-87.86-70.385-180.01-125.351-272.14-161.642l-13.67-5.393c-63.18-24.946-127.56-50.332-193.249-63.854l-9.717 3.356c67.106 12.882 132.866 37.949 197.386 62.556l12.57 4.793c95.23 36.211 189.64 91.257 278.82 161.822v1.558c-89.3-70.785-183.88-125.95-279.27-162.242l-12.57-4.793c-65.17-24.847-131.57-50.113-199.366-62.855l-9.959 3.435c69.395 12.084 137.375 37.01 204.005 61.517l11.19 4.115c98.47 36.171 195.3 91.397 285.97 162.441v1.558c-90.8-71.245-187.79-126.63-286.41-162.841l-11.18-4.114c-67.31-24.767-135.96-49.913-206.046-61.817l-9.98 3.515c71.866 11.224 142.236 36.091 211.206 60.538l9.29 3.296c77.22 27.364 153.82 66.351 227.67 115.864 22.29 14.94 44.01 31.018 65.45 47.636v1.058c-92.33-71.763-191.75-127.328-293.54-163.4l-9.29-3.295c-69.6-24.687-140.64-49.793-213.154-60.819l-9.818 3.576c74.372 10.346 147.192 35.173 218.492 59.54l7.05 2.417c78.99 26.983 157.05 65.711 232.06 115.105 23.28 15.319 45.91 31.897 68.2 48.994v1.398c-94.3-72.343-197.34-129.027-300.67-164.339l-7.04-2.417c-71.95-24.587-145.44-49.693-220.481-59.839l-10.082 3.694c77.191 9.408 152.723 34.235 226.633 58.582l4.23 1.398c80.74 26.584 160.3 65.033 236.43 114.326 24.32 15.719 47.84 32.756 70.98 50.352v1.339c-95.92-72.962-201.41-129.826-307.79-164.859l-4.23-1.398c-74.64-24.587-150.925-49.632-228.844-58.8l-10.122 3.775c80.268 8.408 158.776 33.215 235.586 57.562l.85.28c82.47 26.144 163.49 64.333 240.82 113.527 25.31 16.099 49.72 33.595 73.73 51.69v1.279c-97.56-73.602-205.5-130.644-314.92-165.338l-.87-.259c-77.54-24.587-156.791-49.614-237.808-57.763l-10.548 3.955c84.581 7.43 166.916 32.437 242.446 55.485 84.2 25.665 166.69 63.594 245.22 112.729 26.21 16.418 51.7 33.993 76.48 52.528v1.679c-99.24-74.261-209.65-131.483-322.07-165.777-76.19-23.249-159.276-48.555-244.626-55.686l-5.243 1.958-4.799 1.798c87.01 6.152 170.978 30.778 247.908 53.328 85.88 25.206 169.85 62.856 249.59 111.929 27.21 16.758 53.61 34.753 79.24 53.768v1.678c-100.92-74.979-213.8-132.342-329.19-166.177-77.68-22.789-162.562-47.636-250.442-53.448l-11.033 4.114c91.645 4.914 179.685 29.581 254.695 50.712 118.18 33.296 233.39 90.698 335.97 166.236v1.518c-102.64-75.717-217.99-133.24-336.32-166.575-75.71-21.311-164.704-46.278-257.26-50.812l-10.79 4.015c86.746 3.335 173.37 24.447 261.25 48.195C1237 313.778 1354.66 371.32 1459 447.638v1.517c-104.4-76.516-222.2-134.159-343.44-166.915-88.83-24.007-176.35-45.318-263.987-48.255L840.661 238c89.823 1.837 178.369 22.37 268.069 45.618 124.02 32.137 244.17 89.78 350.27 166.916v1.517c-106.16-77.335-226.43-135.097-350.57-167.254-90.71-23.489-180.213-44.241-271.029-45.639l-12.004 4.254c94.966.3 187.823 20.872 276.193 42.783 126.89 31.477 249.53 89.24 357.41 167.235v1.518c-107.94-78.175-230.68-136.057-357.72-167.575-89.41-22.15-183.448-42.882-279.548-42.662l-12.571 4.454c100.695-1.438 198.619 19.054 285.279 39.606 129.77 30.759 254.86 88.661 364.56 167.535v1.538c-109.74-79.053-234.95-137.096-364.84-167.874-87.64-20.792-186.734-41.525-288.582-39.547l-13.483 4.514c101.079-3.276 200.944 15.079 295.225 36.411 132.58 29.999 260.15 88.061 371.68 167.854v1.538c-111.59-79.992-239.25-138.154-371.97-168.194-95.509-21.631-196.73-40.205-299.146-36.291l-15.324 4.894c108.489-5.652 215.074 12.803 307.61 32.775 135.41 29.201 265.44 87.383 378.83 168.155v1.517c-113.43-80.931-243.56-139.232-379.11-168.473-93.754-20.233-201.959-38.948-311.926-32.516l-16.357 4.993c117.132-8.449 231.714 10.466 321.413 28.901 138.21 28.362 270.71 86.663 385.98 168.413v1.518c-115.31-81.91-247.89-140.351-386.24-168.733-91.402-18.774-208.676-37.989-328.037-28.282-7.065 1.998-14.17 3.875-21.276 5.652 127.215-12.842 248.923 5.773 342.433 24.008 141 27.483 275.97 85.905 393.12 168.653v1.519c-117.19-82.929-252.24-141.47-393.37-168.993-95.406-18.575-220.191-37.53-350.24-23.049-1.478.359-2.956.839-4.454 1.178-25.71 6.012-51.784 10.106-78.021 12.703-28.727 6.452-56.927 14.461-84.459 24.147l-4.21 2.357c60.833-20.632 125.109-33.634 194.242-38.807 95.472-7.11 197.219.14 320.242 22.849 143.76 26.565 281.19 85.106 400.27 168.912v1.519c-119.1-83.987-256.62-142.648-400.49-169.213-148.533-27.423-334.071-46.997-519.224 17.516l-2.734 1.419-19.717 10.526c-7.834 4.394-15.751 8.608-23.747 12.682l-3.138 1.659-10.527 5.592-8.361 4.434-8.604 4.574-8.178 4.354-8.566 4.554-6.19 3.316-13.79 7.489-1.195.64-6.434 3.375c-2.33 1.298-4.701 2.456-7.042 3.715-2.857 1.577-5.735 3.056-8.592 4.574-2.847 1.578-5.745 3.076-8.602 4.594l-8.318 4.434-8.622 4.613-8.319 4.434-8.551 4.574-8.379 4.474-8.278 4.434-8.44 4.514-8.318 4.454-8.43 4.514-9.514 5.053c-2.138 1.179-4.346 2.298-6.515 3.455l-8.136 4.395-8.48 4.574c-40.974 22.649-83.548 40.865-137.379 50.492-48.593 8.688-98.817 7.369-148.19-3.196v-1.578zm1274.94-285.396c-.08-.06-.16-.1-.26-.16-.08-.04-.17-.08-.25-.12.17.08.35.18.51.28zm.34-1.238c-.75-.38-1.47-.839-2.2-1.239l-1.32-.659 3.52 1.898zm-707.207 89.08l-3.867 2.277c14.232-4.913 28.625-9.288 43.14-13.322l-7.267.4c-10.709 3.315-21.398 6.83-32.006 10.645zm52.351-14.58l3.179-.86-11.58 1.279c-.689.22-1.397.38-2.085.58 3.502-.26 6.984-.66 10.486-.999zm-8.989 2.097l1.6-.1c.102-.02.223-.06.344-.1l-1.944.2zm409.155-121.856a5.97 5.97 0 0 1-.53-.14l-12.08 2.617 1.07.259 11.54-2.736zm-8.95 3.375c.06.02.1.04.15.04l5.4-1.338-5.55 1.298zm62.44-37.908c-16.02-3.376-31.56-5.753-46.71-7.271 3.3.739 6.72 1.738 10.07 2.556 14.43 1.599 29.31 4.155 44.47 7.311-2.61-.919-5.22-1.738-7.83-2.596zm37.27 7.909c-14.7-4.435-29.03-8.209-42.94-11.165l7.12 2.317c11.67 2.476 23.57 5.372 35.82 8.848zm-373.428 59.639l-6.964 3.895c1.457-.599 2.935-1.159 4.412-1.737l7.552-4.095c-1.66.679-3.32 1.259-5 1.937zm2.531-2.796l-4.596 1.878-2.268 1.298c1.276-.54 2.531-.959 3.786-1.478l3.078-1.698zm-11.54 9.827l5.082-1.978 7.915-4.154-6.013 2.357-6.984 3.775zm12.814-2.297c1.843-.639 3.726-1.139 5.588-1.758l10.142-4.873-7.126 2.257-4.069 2.037-4.535 2.337zm-79.377 61.158c6.235-1.559 12.49-2.996 18.746-4.375l30.245-8.887-9.13 1.677c-13.503 4.215-26.763 8.049-39.861 11.585zm22.775-7.75l-13.746 3.275-27.977 7.771-5.973 1.737c15.669-3.735 31.602-8.069 47.696-12.783zm-62.534 23.029c-.507.16-1.012.28-1.519.44l13.402-1.898c1.498-.379 2.975-.859 4.474-1.238l-16.357 2.696zm2.125-1.857l-11.681 2.037c-.324.1-.648.22-.971.32 3.239-.46 6.497-1.039 9.736-1.539.972-.299 1.945-.538 2.916-.818zm-13.078 4.993c-.203.06-.424.14-.647.22 3.724-.42 7.429-.939 11.154-1.419l2.47-.678-12.977 1.877zm99.541-58.082c1.984-.619 3.988-1.378 5.972-1.998l11.702-5.292c-2.187.659-4.394 1.398-6.58 2.097l-11.094 5.193zm.567-1.618l-4.637 1.578-9.352 4.494 3.36-1.119 10.629-4.953zm25.305-3.056l-4.048 1.718 7.732-2.058 5.385-2.276 8.26-3.455-7.653 1.897-7.065 3.036-2.611 1.138zm1.195-1.857l-7.026 1.897-12.288 5.433c1.903-.54 3.806-1.018 5.71-1.518l11.903-5.093 1.701-.719zm117.781-49.713l8.765-.839 15.912-5.233c-2.814.18-5.649.52-8.462.759l-16.215 5.313zm32.006-11.764c-2.875.159-5.75.519-8.645.759l-16.499 5.353a353.71 353.71 0 0 1 9.15-.88l15.994-5.232zm-32.067 21.77l7.247-.379 14.09-4.674-6.721.22-14.616 4.833zm28.523-10.725l-6.72.22-14.698 4.833 7.288-.38 14.13-4.673zm-10.162 16.658c-2.065.02-4.15.159-6.215.199L854.69 193.4l6.296-.22 13.341-4.633zm-9.17 4.473c1.882-.02 3.765.02 5.647.02l10.993-3.815c.526-.18 1.053-.3 1.559-.479l-5.486-.119-12.713 4.393zm16.073-10.126c-2.246 0-4.514.16-6.761.22l-13.969 4.653 7.43-.259 13.3-4.614zm-11.073.36l-6.741.22-13.645 4.733c2.146-.14 4.272-.2 6.417-.3l13.969-4.653zm-2.611-1.159l6.72-.22 12.187-4.054c.669-.22 1.357-.38 2.045-.579-2.287 0-4.595.139-6.883.199l-14.069 4.654zm19.272-3.116l-8.24 2.756h5.992c.102-.02.223-.08.325-.12 4.716-1.497 9.413-2.696 14.13-4.094l-6.437-.179c-1.924.599-3.847 1.038-5.77 1.637zm-2.085 3.995c-4.232 1.358-8.402 2.976-12.633 4.394 1.862-.02 3.726 0 5.588.02l5.668-1.957c2.571-.84 5.121-1.499 7.693-2.297l-6.316-.16zm-.992 3.615l-2.511.879 5.973.12c4.635-1.498 9.251-2.817 13.866-4.194-2.004-.1-4.008-.1-6.012-.16l-11.316 3.355zm-1.538 3.795c-2.612.859-5.223 1.837-7.835 2.716l5.364.1.526-.18c4.393-1.458 8.726-2.676 13.119-4.055-2.024-.08-4.028-.08-6.053-.139-1.721.559-3.401.998-5.121 1.558zm-11.196 3.874l-12.714 4.415h5.71l12.389-4.295-5.385-.12zm-16.641 5.772l-13.503 4.695 6.398-.24 13.381-4.654c-2.085.02-4.191.159-6.276.199zm13.078-5.831c-2.064.02-4.15.139-6.215.199l-13.462 4.654 6.336-.219 13.341-4.634zm-10.405.339l-6.276.22-13.482 4.674c2.105-.14 4.19-.12 6.296-.22l13.462-4.674zm6.923-5.653l-7.572.26-12.955 4.674c2.368-.139 4.716-.159 7.085-.279l13.442-4.655zm-11.559.4c-2.41.14-4.818.4-7.228.599l-13.908 5.073 7.288-.679 13.848-4.993zm6.701-5.673c-2.592.16-5.183.46-7.754.68l-13.706 5.053 7.288-.679 14.172-5.054zm7.166-5.691c-2.815.16-5.628.498-8.422.738l-14.07 5.113 7.308-.698c5.042-1.798 10.123-3.436 15.184-5.153zm7.187-5.693c-2.794.16-5.608.52-8.422.759l-15.284 5.213 7.834-.739c5.264-1.838 10.568-3.495 15.872-5.233zm-3.138-.979l7.247-.379 13.544-4.454c.243-.08.485-.12.728-.2l-6.842.2-14.677 4.833zm21.155-3.675c-3.219.979-6.397 2.158-9.616 3.176l6.741-.22c.324-.1.628-.22.951-.3 5.163-1.597 10.385-2.815 15.568-4.233-2.631-.02-5.283.04-7.915.059-1.903.56-3.846.96-5.729 1.518zm-2.693 4.195c-4.716 1.458-9.393 3.116-14.109 4.653l6.72-.199 6.6-2.197c2.874-.899 5.789-1.558 8.685-2.417-2.632-.02-5.263.1-7.896.16zm-.404 3.416c-.892.279-1.782.618-2.693.898 2.267-.02 4.494.02 6.742.04 4.919-1.498 9.838-2.837 14.777-4.194l-6.396-.2-12.43 3.456zm8.138 1.038l6.377.179 14.353-4.174c-1.984-.119-4.008-.079-5.992-.179l-14.738 4.174zm-7.957 5.612l6.357.16 14.131-4.194c-1.984-.1-4.008-.1-6.013-.16l-14.475 4.194zm10.345.26l5.77.2 12.856-3.876-4.86-.398c-4.574 1.258-9.17 2.696-13.766 4.074zm9.151.459c1.619.1 3.219.26 4.838.38l13.787-3.775-5.345-.44c-4.413 1.199-8.847 2.537-13.28 3.835zm-3.259.979l-13.625 4.134 5.911.16 12.613-3.915c-1.64-.1-3.26-.28-4.899-.379zm-21.196 9.747c2.004.06 3.988.02 5.992.12l12.511-3.955c-1.64-.1-3.28-.28-4.919-.38l-13.584 4.215zm-3.664 1.158l-12.349 4.295c1.802 0 3.603.04 5.405.08l5.709-1.997c2.429-.82 4.777-1.479 7.207-2.258-1.984-.08-3.968-.08-5.972-.12zm-15.71 5.453l-12.774 4.434 5.769-.02 12.411-4.315-5.406-.099zm-16.681 5.792l-13.139 4.653 6.276-.238 13.2-4.635c-2.126.04-4.231.18-6.337.22zm-16.924 6.032l-12.977 4.714c2.045-.12 4.07-.12 6.094-.22l13.118-4.734-6.235.24zm12.734-5.872l-6.418.24-12.632 4.633c2.024-.12 4.069-.12 6.093-.22l12.957-4.653zm6.801-5.653l-6.336.24-13.3 4.674c2.064-.14 4.089-.14 6.133-.239l13.503-4.675zm-10.527.38l-7.126.519-13.523 5.034 6.984-.64 13.665-4.913zm6.965-5.673l-7.734.58-13.948 5.073 7.308-.659c4.758-1.758 9.596-3.275 14.374-4.994zm-12.592 1.039l-7.248.66-13.098 5.013c2.227-.28 4.454-.4 6.681-.619l13.665-5.054zm-11.945 1.098c-2.671.32-5.324.8-7.996 1.179l-13.726 5.413 7.734-1.179 13.988-5.413zm4.394-1.637l13.908-5.073-7.227.679-13.929 5.173c2.43-.3 4.838-.499 7.248-.779zm20.123-10.666l-7.207.68-14.131 5.273c2.551-.34 5.101-.6 7.632-.9l13.706-5.053zm6.052-5.572l-7.206.679-14.213 5.393 7.876-1.019 13.543-5.053zm6.883-5.653c-2.753.28-5.506.44-8.259.799-4.879 1.758-9.617 3.696-14.434 5.513l8.32-1.179 14.373-5.133zm7.187-5.672c-3.057.299-6.134.479-9.211.879-5.061 1.797-10.061 3.815-15.102 5.712l8.583-1.338c5.183-1.858 10.486-3.475 15.73-5.253zm7.025-5.673l-9.009.859-16.964 6.053c3.157-.5 6.335-1.159 9.494-1.579 5.445-1.917 10.993-3.534 16.479-5.333zm7.308-5.691c-3.219.319-6.438.518-9.656.958l-18.14 6.292c3.726-.62 7.471-1.399 11.176-1.897 5.485-1.879 11.053-3.596 16.62-5.353zm-10.912 4.813c2.996-.34 5.992-.619 8.988-.879 5.426-1.737 10.791-3.675 16.277-5.273-2.874.18-5.75.54-8.644.779l-16.621 5.373zm14.677-1.418c2.43-.16 4.879-.24 7.309-.36.708-.219 1.397-.479 2.105-.678 5.304-1.579 10.689-2.717 16.034-4.076l-9.273.24c-1.619.44-3.258.74-4.858 1.199-3.826 1.118-7.531 2.497-11.317 3.675zm7.511.859c-4.959 1.477-9.798 3.236-14.718 4.833 2.41-.18 4.818-.26 7.248-.36 2.611-.818 5.182-1.797 7.814-2.576 2.733-.818 5.527-1.378 8.26-2.137l-8.604.24zm.708 3.056c-1.296.399-2.59.879-3.886 1.277l7.976-.239c5.547-1.598 11.154-3.035 16.762-4.434l-7.491-.06c-4.453 1.179-8.947 2.137-13.361 3.456zm9.434.899c2.247 0 4.495.179 6.742.219l15.729-4.114-6.863-.24c-5.223 1.259-10.425 2.696-15.608 4.135zm-8.826 5.711c2.348-.02 4.696.08 7.045.12l14.94-4.154-6.337-.22-15.648 4.254zm11.175.24l6.316.18 15.487-3.994-6.903-.32c-4.981 1.238-9.941 2.756-14.9 4.134zm10.365.32l5.668.339c5.162-1.337 10.345-2.376 15.508-3.575l-5.73-.519-15.446 3.755zm-8.26 5.572l5.627.26 14.213-3.755-5.831-.499c-4.656 1.198-9.333 2.677-14.009 3.994zm9.009.52l5.324.439c4.878-1.318 9.738-2.436 14.596-3.655l-5.243-.46-14.677 3.676zm9.129.759l5.223.419 13.503-3.515c-1.376-.16-2.773-.4-4.15-.559l-14.576 3.655zm-8.846 5.393l5.284.398c4.534-1.297 8.988-2.436 13.483-3.634l-4.617-.48-14.15 3.716zm-3.198.978l-12.552 3.895 4.879.36 12.571-3.856-4.898-.399zm-20.022 9.448c1.64.08 3.259.239 4.878.339l12.188-3.935-4.616-.339-12.45 3.935zm-3.199.998l-10.669 3.375c-.85.28-1.68.6-2.53.88 1.903.06 3.826.02 5.729.099l12.409-4.015c-1.639-.08-3.278-.259-4.939-.339zm-16.559 5.432l-12.39 4.315 5.446.06 10.871-3.795c.527-.18 1.032-.32 1.559-.5-1.822-.06-3.665-.06-5.486-.08zm-15.751 5.473l-12.713 4.415 5.851-.02 12.349-4.315-5.487-.08zm-16.559 5.812l-13.159 4.734 6.236-.22 13.219-4.733c-2.106.02-4.211.16-6.296.219zm-16.884 6.073l-12.773 4.613c2.064-.12 4.109-.14 6.174-.24l12.814-4.593-6.215.22zm-17.086 6.172l-14.151 5.093 7.005-.6 13.725-4.893-6.579.4zm1.538-1.859l11.54-4.154-6.58.4-13.077 4.753c-.223.08-.446.18-.688.26l7.065-.619c.566-.22 1.154-.42 1.74-.64zm18.14-9.846l-6.58.42-13.868 5.093 6.945-.6 13.503-4.913zm6.356-5.653l-6.701.46-13.482 5.033 6.984-.639 13.199-4.854zm-11.356.9l-6.904.618-13.179 4.994c2.207-.26 4.414-.38 6.62-.599l13.463-5.013zm6.012-5.593l-6.984.659-13.119 4.993c2.288-.279 4.576-.399 6.884-.639l13.219-5.013zm-11.56 1.078c-2.571.3-5.121.699-7.693 1.039l-14.069 5.453 7.712-1.139 14.05-5.353zm-13.3 1.898l-7.572 1.158-13.604 5.433c.527-.1 1.073-.24 1.6-.34 1.903-.34 3.806-.538 5.708-.838l13.868-5.413zm-7.876-.04l13.665-5.393-7.51 1.158-14.029 5.653c1.154-.22 2.308-.54 3.462-.759 1.477-.259 2.935-.419 4.412-.659zm18.807-7.431l14.678-5.591c-2.956.378-5.932.958-8.887 1.397l-13.483 5.393 7.692-1.199zm20.73-11.084c-2.955.379-5.931.958-8.907 1.418l-14.231 5.512 7.875-1.238 15.263-5.692zm5.791-5.433c-3.016.399-6.012.959-9.01 1.458l-14.616 5.593c2.876-.52 5.73-.94 8.604-1.379l15.022-5.672zm5.425-5.392c-2.976.438-5.952.978-8.948 1.477l-14.697 5.613c2.975-.56 5.912-.939 8.867-1.418l14.778-5.672zm5.567-5.373c-3.037.438-6.093.978-9.13 1.517l-14.535 5.613c2.935-.579 5.87-.959 8.805-1.458l14.86-5.672zm5.182-5.333l-8.967 1.518-15.629 5.992c.81-.18 1.599-.42 2.389-.58 2.53-.519 5.041-.819 7.551-1.257l14.656-5.673zm-9.332.34l15.466-5.813-9.959 1.718c-5.487 2.037-10.872 4.214-16.297 6.372 1.741-.4 3.461-.96 5.203-1.319 1.883-.4 3.725-.6 5.587-.958zm5.162-5.274c5.992-2.217 12.046-4.234 18.099-6.291-4.312.719-8.645 1.358-12.997 2.277l-19.313 7.35c3.603-.839 7.126-1.977 10.75-2.737 1.153-.239 2.307-.359 3.461-.599zm26.743-9.027c5.648-1.818 11.236-3.776 16.944-5.413l-11.822 1.338c-6.701 2.098-13.342 4.334-19.941 6.651 4.94-.919 9.899-1.917 14.819-2.576zm-20.71 7.989c4.251-.759 8.523-1.619 12.774-2.197a594.37 594.37 0 0 1 17.249-5.473c-3.017.32-6.034.46-9.05.878-7.004 2.258-14.069 4.315-20.973 6.792zm18.807-2.816c3.137-.38 6.255-.66 9.393-.919 3.644-1.118 7.167-2.457 10.851-3.515 2.511-.719 5.081-1.159 7.612-1.838-3.583.2-7.186.539-10.79.839-5.708 1.677-11.377 3.595-17.066 5.433zm20.589-3.236c-1.843.519-3.624 1.219-5.487 1.757 2.875-.199 5.729-.259 8.584-.379 6.418-1.778 12.855-3.315 19.313-4.774-3.098 0-6.195.12-9.313.22-4.352 1.099-8.766 1.938-13.097 3.176zm8.826 1.219l9.15-.24c6.135-1.479 12.289-2.876 18.463-4.075l-8.665-.38c-6.356 1.359-12.652 3.056-18.948 4.695zm-9.495 5.752l9.211-.26c5.547-1.458 11.074-3.056 16.681-4.315l-7.085-.199c-6.276 1.518-12.572 2.976-18.807 4.774zm14.232-.3c2.247.02 4.453.18 6.68.24 6.155-1.479 12.369-2.736 18.584-3.975-2.915-.18-5.83-.22-8.744-.34-5.548 1.179-11.014 2.697-16.52 4.075zm10.891.399c2.653.1 5.325.12 7.977.3 5.769-1.278 11.579-2.437 17.39-3.495l-6.094-.619c-6.438 1.217-12.896 2.336-19.273 3.814zm-8.765 5.572l6.256.2c5.708-1.397 11.458-2.516 17.186-3.734l-6.6-.52c-5.627 1.238-11.235 2.617-16.842 4.054zm10.891.36c2.126.14 4.231.38 6.357.54l15.892-3.496-5.629-.538-16.62 3.494zm10.385.919l5.608.5 15.426-3.436c-1.741-.22-3.482-.36-5.223-.559-5.284 1.039-10.547 2.296-15.811 3.495zm-9.818 5.313l5.709.5 14.9-3.576c-1.721-.2-3.442-.3-5.163-.479l-15.446 3.555zm9.575.839c1.701.16 3.421.24 5.122.439l13.544-3.355c-1.377-.18-2.734-.42-4.11-.599-4.838 1.079-9.697 2.336-14.556 3.515zm8.482.878c1.337.16 2.673.38 4.029.56l14.009-3.196-4.17-.618c-4.616.998-9.251 2.156-13.868 3.254zm-9.028 5.213c1.417.16 2.793.4 4.211.56l12.713-3.436-3.827-.538c-4.351 1.058-8.724 2.276-13.097 3.414zm-8.685 5.313l4.231.5 12.45-3.516-3.684-.478-12.997 3.494zm-3.583.979l-12.916 3.815 4.555.339c4.434-1.358 8.745-2.496 13.118-3.774-1.579-.16-3.158-.24-4.757-.38zm-20.427 9.328l4.636.319 12.167-3.894c-1.558-.14-3.118-.2-4.656-.34-3.988 1.219-8.118 2.636-12.147 3.915zm-3.138 1.018l-12.268 3.955c1.641.08 3.3.22 4.94.32l12.005-3.955-4.677-.32zm-15.507 4.993l-4.919 1.599-7.733 2.696c1.822.04 3.624 0 5.425.08.122-.04.223-.08.345-.12 4.089-1.418 7.935-2.596 11.963-3.955l-5.081-.3zm-15.972 5.453l-12.329 4.315 5.669.06 12.125-4.295c-1.821-.06-3.643-.04-5.465-.08zm-15.73 5.513l-12.774 4.533 5.972-.039 12.511-4.434-5.709-.06zm-16.499 5.892l-12.794 4.573 6.336-.239 12.875-4.574c-2.126.02-4.271.18-6.417.24zm-16.682 5.972l-13.199 4.694c2.065-.12 4.11-.12 6.155-.22l13.32-4.714-6.276.24zm-17.531 6.251l-13.948 4.974 7.167-.639 13.401-4.754-6.62.419zm-4.818.42l-6.963.599-14.01 5.033 6.923-.639 14.05-4.993zm6.883-5.693l-6.964.62-13.847 5.033 6.681-.56 14.13-5.093zm-2.207-2.417l8.766-3.195-6.882.599-9.86 3.635-3.684 1.358c2.226-.24 4.433-.378 6.66-.578l5-1.819zm15.366-8.867l-6.904.638-13.503 5.034c2.207-.239 4.394-.379 6.601-.579l13.806-5.093zm-11.539 1.058l-7.126.819-14.515 5.493 7.611-1.079 14.03-5.233zm6.357-5.612l-7.754.979-14.049 5.432 8.016-1.179 13.787-5.232zm-13.442 1.838l-7.471 1.118-13.24 5.273c2.308-.42 4.616-.66 6.924-1.018l13.787-5.373zm-12.775 1.897a4.1 4.1 0 0 1-.486.08c-2.733.499-5.485 1.198-8.219 1.737l-14.11 5.753 7.996-1.658 14.819-5.912zm5.527-5.273c-2.997.559-6.013 1.318-9.009 1.937l-13.483 5.633 7.917-1.658 14.575-5.912zm5.486-5.253c-2.996.58-6.012 1.338-9.008 1.977l-13.706 5.733 7.854-1.698 14.86-6.012zm2.855-1.857c.972-.2 1.923-.28 2.895-.46l13.259-5.332c-2.49.399-4.979.698-7.49 1.177l-14.069 5.793c1.801-.36 3.602-.859 5.405-1.178zm8.3-5.792l13.462-5.393c-2.328.399-4.636.658-6.964 1.118-.546.1-1.094.279-1.66.379l-14.252 5.993c2.814-.58 5.567-1.399 8.402-1.938.343-.079.668-.099 1.012-.159zm19.191-10.786c-1.802.32-3.603.52-5.385.878-1.579.3-3.118.799-4.696 1.119l-13.929 5.912c3.098-.659 6.114-1.538 9.252-2.177l14.758-5.732zm5.405-5.333c-1.174.22-2.328.34-3.502.579-2.713.539-5.345 1.358-8.037 1.938l-13.989 5.972c3.219-.739 6.397-1.638 9.636-2.318 5.264-2.157 10.609-4.114 15.892-6.171zm5.406-5.333c-.547.1-1.073.16-1.62.28-3.887.798-7.672 1.897-11.519 2.796-4.453 1.838-9.11 3.975-13.604 5.912l9.373-2.277c5.709-2.337 11.579-4.474 17.37-6.711zm4.878-5.153c-4.676.979-9.231 2.377-13.867 3.495l-14.07 5.872 9.515-2.296c6.195-2.557 12.288-4.714 18.422-7.071zm4.029-4.794c-5.061 1.119-10.041 2.557-15.082 3.855l-14.677 6.172 11.458-2.896c6.033-2.476 12.187-4.793 18.301-7.131zm2.044-4.274c-4.757 1.139-9.454 2.397-14.15 3.676l-14.697 6.191c3.744-1.078 7.551-1.917 11.316-2.897l17.531-6.97zm9.05-3.595c.303-.06.607-.1.911-.16 6.073-2.217 12.207-4.314 18.381-6.371-3.906.699-7.813 1.238-11.741 2.097-.688.14-1.356.38-2.045.52-6.964 2.516-13.826 5.113-20.608 7.829 5.04-1.279 10-2.816 15.102-3.915zm28.18-9.387l17.694-5.253c.87-.24 1.761-.36 2.631-.599-3.988.399-7.996.719-12.004 1.278a569.21 569.21 0 0 0-22.107 7.05c4.574-.879 9.15-1.817 13.786-2.476zm18.037-4.075c-3.805 1.039-7.572 2.238-11.337 3.356l11.54-1.218c7.612-2.058 15.304-3.736 23.038-5.293-3.645.12-7.288.159-10.933.399-4.089.959-8.259 1.638-12.308 2.756zm.122 3.416c-.567.159-1.114.239-1.68.379-5.385 1.498-10.608 3.436-15.953 5.093 3.037-.359 6.073-.619 9.089-.879 1.681-.498 3.321-1.118 4.981-1.597 5.344-1.498 10.769-2.537 16.155-3.796a332.23 332.23 0 0 0-12.592.8zm-2.329 3.975c3.503-.22 7.006-.26 10.507-.38 6.783-1.698 13.564-3.456 20.427-4.773-3.34-.02-6.701.159-10.062.238-6.984 1.519-13.988 2.997-20.872 4.915zm16.358-.52l8.887-.18c7.187-1.518 14.475-2.616 21.742-3.755l-9.555-.46c-7.065 1.239-14.09 2.757-21.074 4.395zm13.867.04c3.158.08 6.336.24 9.495.4 6.66-1.199 13.3-2.537 20.042-3.436l-6.883-.679c-7.592 1.079-15.163 2.217-22.654 3.715zm-10.081 5.573c2.49.04 4.959.2 7.429.299 6.863-1.478 13.828-2.616 20.771-3.755-2.854-.24-5.709-.32-8.584-.479-6.558 1.198-13.118 2.436-19.616 3.935zm13.057.519l8.037.419c5.952-1.118 11.903-2.357 17.917-3.255l-6.479-.679c-6.539.998-13.017 2.216-19.475 3.515zm12.309.858l5.952.6c6.539-1.139 13.117-2.017 19.697-2.896l-6.519-.82c-6.417.9-12.793 1.979-19.13 3.116zm-10.892 5.233c2.025.14 4.049.4 6.073.58l16.742-3.376c-1.963-.24-3.947-.4-5.911-.598-5.669.998-11.276 2.196-16.904 3.394zm10.142.979l5.507.52c5.709-1.119 11.458-2.018 17.188-2.956-1.722-.24-3.402-.58-5.102-.8-5.891.96-11.742 2.077-17.593 3.236zm9.454.899c1.742.219 3.462.539 5.183.779 5.446-1.038 10.912-1.917 16.378-2.797l-4.413-.698c-5.71.898-11.459 1.638-17.148 2.716zm-10.162 5.213l4.777.519c5.082-1.098 10.164-2.037 15.245-3.015l-4.637-.699c-5.121.978-10.243 2.076-15.385 3.195zm8.057.998l4.515.66c5.081-1.099 10.122-1.997 15.162-2.976l-4.008-.62-15.669 2.936zm8.219 1.199l4.029.58 14.212-2.976-3.138-.58-15.103 2.976zm3.969 1.837l-14.354 3.136 4.049.56c4.737-1.159 9.393-2.098 14.09-3.136-1.255-.22-2.531-.36-3.785-.56zm-23.18 8.329l3.623.48 12.896-3.356c-1.195-.2-2.409-.339-3.604-.519l-12.915 3.395zm-8.706 5.233c1.256.14 2.491.32 3.746.48l12.045-3.536-3.381-.439-12.41 3.495zm-3.056.859l-12.875 3.615 4.554.42 12.167-3.555c-1.295-.14-2.571-.34-3.846-.48zm-20.548 9.088l4.515.339 11.558-3.674c-1.254-.12-2.509-.32-3.744-.44l-12.329 3.775zm-3.077 1.019l-11.924 3.934 4.393.3 12.026-3.935-4.495-.299zm-15.022 4.973l-12.105 3.995c1.619.06 3.239.219 4.858.299l11.722-4.014-4.475-.28zm-15.284 5.053l-12.105 4.295 5.364.06 5.304-1.879 6.458-2.216-5.021-.26zm-15.466 5.493l-12.491 4.433 5.385.06 12.471-4.434-5.365-.059zm-15.77 5.592l-12.329 4.374 5.769-.06 11.965-4.254c-1.803 0-3.604-.06-5.405-.06zm-16.257 5.772c-.364.14-.749.26-1.133.4l-12.188 4.314 6.438-.24 13.159-4.713c-2.085.04-4.191.18-6.276.239zm-17.187 6.073l-13.28 4.713 6.741-.34 13.017-4.613-6.478.24zm-17.288 6.131l-14.253 5.033 7.43-.659 13.483-4.694-6.66.32zm-18.969 6.711c-5.345 1.837-10.75 3.456-16.115 5.253l7.977-.719 15.527-5.213-7.389.679zm14.089-6.292c-2.408.18-4.797.44-7.207.66l-14.474 5.093 7.349-.68 14.332-5.073zm-12.105 1.119l-6.923.639-16.541 5.692 8.239-1.118 15.225-5.213zm6.963-5.672l-7.044.739-15.083 5.473 7.937-1.099 14.19-5.113zm6.925-5.653l-7.026.739-14.939 5.513 7.671-1.059 14.294-5.193zm1.072-3.575l5.608-2.057-7.045.779-6.276 2.337-8.341 3.136 7.673-1.079 8.381-3.116zm-8.159-.08c.325-.14.669-.26.992-.379l-7.51 1.078-.932.36-13.219 5.013c2.389-.38 4.778-.64 7.166-.999l13.503-5.073zm-6.842-.499l14.434-5.453-7.734 1.138-13.664 5.313c2.328-.379 4.656-.639 6.964-.998zm1.255-3.515c-.547.099-1.093.139-1.64.239-2.227.4-4.473.958-6.7 1.378l-8.624 3.436-6.094 2.436 8.037-1.637 4.919-1.918 10.102-3.934zm-17.431 3.914l2.187-.858-7.692 1.597-1.357.54-12.389 5.073 6.842-1.398 12.409-4.954zm-5.85-.439l13.949-5.712-7.592 1.617-13.118 5.493c2.246-.52 4.494-.919 6.761-1.398zm19.353-10.865l-7.53 1.637-12.531 5.373c2.247-.54 4.453-.919 6.7-1.418l13.361-5.592zm5.183-5.113l-7.652 1.657-12.107 5.353c2.248-.56 4.455-.939 6.682-1.459l13.077-5.551zm6.458-2.677l14.03-5.772c-3.199.658-6.337 1.498-9.536 2.217l-12.774 5.373 8.28-1.818zm18.241-10.665c-3.057.658-6.074 1.437-9.09 2.137l-13.705 5.832 8.643-2.018 14.152-5.951zm4.251-4.855l-9.353 2.237-13.017 5.633 8.624-2.037 13.746-5.833zm3.623-4.713l-8.846 2.157-13.139 5.692c2.835-.739 5.729-1.357 8.584-2.057l13.401-5.792zm4.332-4.913l-9.17 2.237-12.876 5.712c2.795-.759 5.649-1.319 8.442-2.037l13.604-5.912zm2.187-4.155c-3.199.839-6.458 1.518-9.637 2.437l-12.389 5.572c3.401-.998 6.843-1.877 10.264-2.775l11.762-5.234zm-18.929 5.214c-3.987 1.218-7.915 2.656-11.882 3.974l-9.475 4.613 9.09-2.896 12.267-5.691zm8.888-3.935l13.3-5.813c-3.462.959-6.984 1.739-10.425 2.777l-14.272 6.511 11.397-3.475zm16.276-10.246c-4.838 1.417-9.636 3.036-14.434 4.593l-13.119 6.112c4.556-1.498 9.03-3.216 13.625-4.593l13.928-6.112zm8.098-3.356c5.891-2.437 11.863-4.774 17.896-7.07l-14.738 3.854-14.718 6.212c3.807-1.139 7.714-1.957 11.56-2.996zm28.747-11.185c6.72-2.417 13.543-4.734 20.406-6.911-3.564.64-7.106 1.118-10.689 1.918-1.336.299-2.652.659-3.988.979a583.9 583.9 0 0 0-22.714 8.468c5.648-1.518 11.255-3.176 16.985-4.454zm28.645-12.743c-3.887.699-7.753 1.239-11.641 2.117-2.692.599-5.283 1.499-7.935 2.157a543.87 543.87 0 0 0-19.9 7.331c5.385-1.479 10.79-2.796 16.215-4.055 7.653-2.677 15.407-5.193 23.261-7.55zm-13.28 5.473c5.223-1.039 10.446-2.057 15.75-2.816l11.195-3.296c3.866-1.038 7.754-1.897 11.661-2.797-4.596.4-9.171.72-13.766 1.339-8.402 2.317-16.662 4.853-24.84 7.57zm27.289-4.913c-1.599.419-3.137.938-4.717 1.377 4.98-.579 9.981-1.178 15.042-1.497 8.442-1.977 16.944-3.756 25.568-5.073-4.494.02-8.968.04-13.463.259-7.51 1.478-15.02 2.917-22.43 4.934zm16.924-.34l10.547-.34c9.495-1.757 19.111-2.976 28.808-3.954-3.502-.2-7.025-.479-10.527-.559-9.717 1.217-19.334 2.816-28.828 4.853zm-10.77 5.812c3.482-.2 7.025-.299 10.548-.359 8.158-1.798 16.418-3.256 24.718-4.474-4.556-.16-9.13-.18-13.685-.12-7.268 1.338-14.414 3.155-21.581 4.953zm16.824-.579c3.198 0 6.457.2 9.676.3 8.118-1.439 16.236-2.837 24.496-3.776-3.118-.24-6.256-.3-9.373-.459-8.321 1.099-16.621 2.297-24.799 3.935zm16.296.519l9.008.48c8.119-1.159 16.358-1.998 24.618-2.697l-9.07-1.059c-8.28.8-16.438 1.978-24.556 3.276zm13.705.958l8.24.8c7.935-.94 15.892-1.738 23.908-2.257l-6.073-.999c-8.746.599-17.471 1.318-26.075 2.456zm-11.275 4.995c2.408.158 4.797.458 7.186.678 7.247-1.138 14.576-1.937 21.925-2.717-2.936-.399-5.892-.658-8.827-.978-6.802.799-13.544 1.878-20.284 3.017zm11.518 1.137l7.693.82c6.64-.92 13.32-1.739 20.042-2.377l-5.244-.899c-7.531.719-15.081 1.378-22.491 2.456zm12.997 1.419c1.801.24 3.583.598 5.385.878l19.05-2.197-5.446-.939c-6.397.56-12.673 1.459-18.989 2.258zm5.324 2.117c-6.58.838-13.179 1.537-19.718 2.636l6.742.72c5.891-.979 11.802-1.799 17.734-2.577l-4.758-.779zm-8.866 3.994l4.939.779 16.803-2.656c-1.357-.24-2.734-.44-4.11-.659-5.912.699-11.762 1.618-17.632 2.536zm8.846 1.399l4.271.679 16.702-2.358c-1.215-.238-2.45-.558-3.665-.798-5.789.678-11.538 1.618-17.308 2.477zm4.271 1.917c-5.425.839-10.871 1.777-16.296 2.776l4.473.679 15.588-2.856c-1.254-.239-2.509-.379-3.765-.599zm-8.097 4.015l3.866.598 14.434-2.696c-1.073-.2-2.125-.459-3.198-.658-5.021.778-10.061 1.857-15.102 2.756zm7.227 1.198l2.875.579 14.454-2.556c-.891-.2-1.802-.38-2.692-.56l-14.637 2.537zm5.871 1.199l2.733.538c4.858-.958 9.636-1.657 14.479-2.496-.81-.2-1.64-.339-2.454-.519l-14.758 2.477zm2.733 1.797c-4.292.839-8.685 1.957-12.997 2.876l2.47.48 12.753-2.917-2.226-.439zm-2.977-.6l-2.773-.579c-4.555.879-9.13 1.918-13.705 2.896l3.442.58 13.036-2.897zm-13.057 4.155l-13.786 3.076c1.154.179 2.308.299 3.462.479l12.895-3.056c-.87-.139-1.721-.339-2.571-.499zm-10.284 4.814l-13.179 3.316 3.32.438c4.353-1.198 8.523-2.157 12.815-3.255-.972-.18-1.964-.339-2.956-.499zm-21.904 8.488l3.542.46 12.107-3.476c-1.134-.179-2.288-.279-3.422-.459l-12.227 3.475zm-2.935.879l-12.005 3.555 3.603.44 11.863-3.556-3.461-.439zm-19.86 8.908l3.765.44 11.256-3.656-3.502-.439-11.519 3.655zm-2.855.919l-12.045 3.854 4.454.3 11.398-3.714-3.807-.44zm-15.061 4.893l-11.701 3.994 4.636.28 11.499-3.994c-1.479-.12-2.957-.18-4.434-.28zm-14.718 5.013l-9.251 3.156-2.409.88c1.599.058 3.198.178 4.798.258l11.539-4.014-4.677-.28zm-14.798 5.133l-12.451 4.434 5.365.06 10.669-3.814c.425-.16.871-.3 1.296-.46l-4.879-.22zm-15.71 5.593l-11.923 4.254 5.505.04 11.783-4.234-5.365-.06zm-15.345 5.473l-1.619.559-11.034 3.954 5.872-.08 12.288-4.393-5.507-.04zm-16.499 5.872l-12.815 4.574 6.58-.32 12.592-4.494c-2.126.04-4.231.18-6.357.24zm-16.863 6.012l-13.442 4.674 6.579-.34 13.422-4.654-6.559.32zm-17.592 6.111l-15.123 5.173 7.754-.698 13.928-4.795-6.559.32zm-20.285 6.891l-15.751 5.213c2.43-.259 4.88-.419 7.329-.639l16.074-5.273-7.652.699zm-22.006 7.19l-19.637 6.013 8.888-1.139 19.191-5.813-8.442.939zm16.662-6.71l-8.766.938-17.957 5.852 9.798-1.278 16.925-5.512zm7.834-5.752l-7.551.758-17.41 5.792 8.138-1.078 16.823-5.472zm-14.091 1.637l-7.975 1.099-17.106 5.831c.749-.12 1.477-.298 2.226-.418 1.843-.28 3.685-.46 5.527-.74l17.328-5.772zm8.503-5.832l-8.016 1.119-16.054 5.592c2.45-.379 4.859-.639 7.288-.999l16.782-5.712zm7.147-5.613l-7.571 1.059-15.204 5.473c2.45-.38 4.879-.66 7.308-.999l15.467-5.533zm6.984-5.632l-7.511 1.059-14.393 5.392c2.348-.379 4.696-.619 7.045-.959l14.859-5.492zm-13.098 1.838c-1.013.18-2.025.26-3.037.439-1.781.299-3.583.739-5.365 1.058l-15.911 6.052 8.482-1.657 15.831-5.892zm6.701-5.553c-.81.14-1.62.22-2.43.36-1.903.32-3.846.818-5.749 1.158L747.8 230.35l8.018-1.597 15.446-5.873zm-15.284 2.976l-7.714 1.578-14.231 5.672c2.268-.499 4.534-.899 6.822-1.357l15.123-5.893zm-14.496 2.956l-6.964 1.518c-.182.06-.363.14-.546.22l-15.547 6.232c2.753-.68 5.505-1.499 8.259-2.118l5.284-2.057 9.514-3.795zm-7.368.339l14.13-5.771-7.126 1.617-5.608 2.357-9.555 3.955 8.159-2.158zm12.227-10.326l13.706-5.871c-2.795.678-5.608 1.537-8.422 2.277l-12.855 5.672 7.571-2.078zm4.859-4.753l13.644-6.012c-2.753.699-5.547 1.598-8.3 2.336l-12.734 5.733 7.39-2.057zm19.738-8.709l11.944-5.073-7.997 1.858-10.81 4.854 6.863-1.639zm16.64-10.046l-8.34 1.977-11.398 5.233c2.187-.598 4.454-.978 6.661-1.557l13.077-5.653zm4.069-4.733c-2.752.719-5.586 1.237-8.34 1.997l-11.337 5.313c2.268-.62 4.555-1.158 6.843-1.758 4.211-1.898 8.583-3.695 12.834-5.552zm4.09-4.774l-9.737 2.697-12.288 5.751c3.057-.898 6.073-1.977 9.15-2.835 4.393-1.998 8.584-3.716 12.875-5.613zm4.312-4.894c-4.252 1.199-8.442 2.716-12.673 4.015l-11.903 5.673 10.061-3.236c4.758-2.197 9.677-4.294 14.515-6.452zm-21.479 6.811l-7.976 2.537-10.446 5.253c2.327-.799 4.676-1.478 7.025-2.257l11.397-5.533zm-8.482 1.398l7.996-3.954c-2.692.959-5.425 1.737-8.118 2.716l-7.854 4.054 7.976-2.816zm16.681-8.169l12.227-5.771-11.215 3.794-10.203 5.073c3.037-1.078 6.134-2.057 9.191-3.096zm11.944-8.608l-10.285 3.495-9.655 4.894c2.813-1.059 5.688-1.878 8.502-2.876l11.438-5.513zm10.689-4.953l16.378-7.271c-5.507 1.719-10.933 3.736-16.399 5.653l-12.288 5.832 12.309-4.214zm25.791-11.205a626.16 626.16 0 0 1 20.568-8.089c-5.89 1.537-11.742 3.216-17.572 4.973l-17.612 7.55a488.47 488.47 0 0 1 14.616-4.434zm20.487-11.305c-6.194 1.757-12.43 3.436-18.564 5.453l-16.519 7.17c5.688-1.957 11.418-3.834 17.187-5.573a574.58 574.58 0 0 1 17.896-7.05zm14.232-5.153c9.352-3.256 18.867-6.252 28.544-8.968-4.332.759-8.644 1.358-12.977 2.357-3.927.899-7.753 2.196-11.66 3.215-8.3 2.837-16.439 5.833-24.394 8.969 6.781-2.017 13.604-3.876 20.487-5.573zm40.528-12.204c11.823-2.916 23.585-5.173 35.287-6.611-7.43.2-14.88.76-22.33 1.578-4.959.999-9.94 1.998-14.941 3.296-6.093 1.557-12.085 3.355-18.057 5.153a279.91 279.91 0 0 1 20.041-3.416zm-3.522 2.058c-8.138 2.137-16.175 4.514-24.11 7.07 5.89-1.219 11.802-2.317 17.794-3.156l4.454-1.298c8.28-2.197 16.641-3.815 25.042-5.332a282.19 282.19 0 0 0-19.171 1.797c-1.337.34-2.673.559-4.009.919zm2.167 3.016c4.858-.539 9.736-1.019 14.657-1.299 10.365-2.117 20.831-3.775 31.438-4.873-5.85-.16-11.721.02-17.572.2-9.595 1.517-19.089 3.574-28.523 5.972zm22.754-1.558c5.365-.16 10.75-.22 16.195-.08a351.94 351.94 0 0 1 33.059-2.677c-5.871-.639-11.741-1.019-17.633-1.337-10.648.858-21.195 2.216-31.621 4.094zm23.625.219l11.478.62c10.325-.839 20.771-1.319 31.399-1.279-3.259-.52-6.539-.898-9.799-1.318a352.92 352.92 0 0 0-33.078 1.977zm-15.973 5.313c3.806.08 7.652.22 11.498.44 9.536-1.259 19.213-2.137 28.971-2.677l-11.095-1.318c-9.919.759-19.697 2.018-29.374 3.555zm18.078.719c2.875.22 5.831.62 8.746.919 9.292-.939 18.645-1.678 28.139-1.958-2.531-.399-5.081-.719-7.632-1.077-9.858.378-19.637 1.018-29.253 2.116zm15.852 1.658l8.563 1.019c8.887-.62 17.916-.939 27.004-1.019l-7.63-1.418c-9.435.12-18.727.659-27.937 1.418zm13.462 1.837l5.789.979c8.906-.499 17.956-.539 27.026-.519-1.5-.34-3-.759-4.51-1.098-9.52-.06-18.993.1-28.305.638zm-15.426 4.215c2.349.3 4.757.759 7.126 1.098 7.673-.738 15.385-1.338 23.155-1.717-2.648-.52-5.32-.96-7.973-1.418-7.509.399-14.899 1.258-22.308 2.037zm11.742 1.837l5.284.859c7.611-.679 15.345-.959 23.055-1.278l-4.19-.998c-8.116.299-16.173.718-24.149 1.417zm10.365 1.679l5.162 1.018c6.802-.56 13.602-1.038 20.462-1.318l-3.34-.779c-7.45.239-14.92.499-22.284 1.079zm-13.969 4.154l4.575.759c6.397-.779 12.835-1.319 19.248-1.858l-3.862-.879c-6.681.52-13.341 1.198-19.961 1.978zm8.604 1.417l4.575.819c5.932-.699 11.904-1.178 17.874-1.697l-3.2-.719-19.249 1.597zm8.482 1.678l3.477.76 16.87-1.878-2.57-.58a583.22 583.22 0 0 0-17.777 1.698zm3.417 1.998l-16.677 2.136 3.239.64c5.466-.859 10.932-1.418 16.418-2.117l-2.98-.659zm-9.895 3.515l3.199.679c5.223-.839 10.446-1.518 15.646-2.237l-2.41-.519-16.435 2.077zm6.761 1.418l2.551.539 14.783-2.336-1.75-.42-15.584 2.217zm5.854 1.239c.77.179 1.54.299 2.31.479l13.52-2.357c-.51-.12-.99-.259-1.5-.399-4.76.658-9.56 1.497-14.33 2.277zm2.26 1.737l-14.39 2.496 2.086.42c4.616-.959 9.174-1.757 13.744-2.596a33.44 33.44 0 0 0-1.44-.32zm-9.106 3.555c.588.14 1.154.24 1.742.36l12.654-2.616c-.35-.08-.71-.18-1.05-.26l-13.346 2.516zm1.782 1.618l-12.977 2.816 2.41.46 11.984-2.976-1.417-.3zm-3.097-.62c-.628-.138-1.235-.258-1.863-.378l-13.037 2.836 2.186.419 12.714-2.877zm-12.977 4.095c-3.927.94-8.037 2.077-12.025 3.096.83.14 1.66.3 2.49.46l12.167-3.036-2.632-.52zm-2.591-.499l-2.267-.44-12.673 2.996c.911.16 1.801.36 2.712.52l12.228-3.076zm-12.248 4.315l-12.288 3.175 2.955.499 11.762-3.216c-.809-.14-1.62-.319-2.429-.458zm-9.252 4.933l-11.823 3.375c.993.16 2.005.239 3.018.399l11.275-3.334-2.47-.44zm-14.839 4.254l-12.004 3.515 3.442.42 11.659-3.556-3.097-.379zm-19.718 8.848l3.462.4 11.074-3.656-3.299-.399-11.237 3.655zm-2.793.918l-11.357 3.696c1.296.12 2.571.299 3.866.419l11.014-3.715-3.523-.4zm-14.171 4.615l-11.519 3.974 4.332.26 11.114-3.815c-1.316-.119-2.611-.319-3.927-.419zm-14.495 4.993l-11.518 4.014 4.615.26 11.276-3.994c-1.437-.12-2.915-.18-4.373-.28zm-14.556 5.053l-4.109 1.438-7.652 2.736c1.558.06 3.118.2 4.696.26l.992-.36 10.73-3.794-4.657-.28zm-14.899 5.293l-11.762 4.214 5.446.04 11.276-4.074-4.96-.18zm-15.163 5.433l-.992.359-11.296 4.034 5.527.04 12.207-4.393-5.446-.04zm-15.629 5.592l-12.389 4.434c1.943-.06 3.886-.02 5.81-.04l12.106-4.354c-1.842 0-3.684-.06-5.527-.04zm-15.952 5.693l-13.362 4.653 6.661-.32 12.592-4.393-5.891.06zm-17.532 6.111l-13.745 4.774 6.66-.34 13.746-4.773-6.661.339zm-18.118 6.252l-16.115 5.272 7.734-.699 15.203-4.933-6.822.36zm-21.257 6.951l-17.045 5.333c2.814-.32 5.607-.5 8.422-.76l16.296-5.252-7.673.679zm-24.312 7.49l-17.087 5.073c-1.478.419-2.976.739-4.454 1.158l9.799-1.238 21.235-6.132-9.493 1.139zm-17.411 3.894c3.28-.918 6.559-1.977 9.819-2.936l-8.665 1.119c-11.478 3.315-22.937 6.251-34.375 9.008l15.771-2.697 17.45-4.494zm.87-3.016l.649-.18c6.356-1.837 12.713-3.854 19.069-5.831l-9.089 1.177-8.098 2.637c-5.405 1.638-10.79 3.076-16.195 4.594l13.644-2.397h.02zm10.365-6.031c5.953-1.839 11.904-3.876 17.856-5.813l-7.875 1.058-16.276 5.413-2.794.819c2.004-.32 4.008-.759 5.992-1.078 1.032-.16 2.065-.24 3.097-.399zm-6.66-.52c3.28-1.019 6.58-2.217 9.879-3.296-3.158.5-6.336 1.199-9.514 1.758l-23.625 7.271c3.259-.64 6.518-1.179 9.798-1.759l13.462-3.974zm1.518-3.176l17.876-6.092c-.364.04-.708.08-1.053.14-2.631.42-5.283 1.019-7.935 1.479l-6.964 2.436c-4.555 1.538-8.989 2.896-13.482 4.334l10.081-1.857c.485-.16.972-.28 1.477-.44zm8.544-5.652l17.956-6.272c-.789.14-1.598.2-2.389.339-2.065.34-4.109.82-6.174 1.179l-14.475 5.173c-1.235.44-2.429.799-3.663 1.219l8.745-1.638zm25.993-12.004c-1.053.18-2.085.26-3.138.439-1.72.28-3.461.719-5.182 1.019l-16.823 6.172 8.239-1.579 16.904-6.051zm-15.911 2.936l-7.997 1.558-4.09 1.557-12.612 4.535c2.551-.539 5.122-.959 7.673-1.459l2.976-1.038 14.05-5.153zm-8.361.379l15.749-5.991-7.672 1.537-10.264 3.996-5.001 1.857 7.188-1.399zm-2.653-1.597l3.786-1.458-7.146 1.498-17.43 6.75 8.3-2.097 12.49-4.693zm-13.584 2.676l-7.429 1.917-16.58 6.432c2.004-.54 3.988-.979 5.992-1.499l18.017-6.85zm-7.672.699l15.77-6.311-7.43 1.957-14.737 6.012 6.397-1.658zm7.976-5.532l15.183-6.292-7.308 1.957-13.867 5.912c2.005-.559 3.988-1.038 5.992-1.577zm-.506-2.097c-1.7.478-3.4.858-5.102 1.357l-14.839 6.472c1.904-.579 3.807-1.279 5.689-1.838l14.252-5.991zm-5.526.2l12.126-5.334-5.669 1.618-12.45 5.633c1.984-.6 4.009-1.339 5.993-1.917zm13.887-7.091c1.923-.56 3.827-1.019 5.75-1.558l7.288-3.216 5.304-2.337-6.864 1.898-2.793 1.278-8.685 3.935zm11.074-6.371l3.502-1.599 8.989-4.034-6.864 1.937c-.04 0-.061.02-.081.02l-11.174 5.233c1.882-.559 3.744-1.019 5.628-1.557zm5.182-4.855l10.142-4.673-7.571 2.357a19.36 19.36 0 0 0-.668.319l-7.348 3.536c1.821-.56 3.623-.979 5.445-1.539zm7.511-2.097l7.328-2.077 12.592-5.652c-2.794.739-5.547 1.577-8.321 2.377l-11.599 5.352zm11.134-6.49l12.653-5.833c-2.955.819-5.831 1.878-8.786 2.737l-11.864 5.572 7.997-2.476zm3.361-4.215l11.599-5.433c-3.057.899-6.033 1.937-9.069 2.876l-10.446 5.033 7.916-2.476zm13.26-9.068l-8.908 2.856-10.223 5.054 7.936-2.537 11.195-5.373zm-16.904 5.412l-6.701 2.238-5.143 2.637-3.501 1.837c1.821-.639 3.724-1.179 5.566-1.817l9.779-4.895zm-7.288 1.159l8.624-4.413c-2.854 1.038-5.689 2.216-8.543 3.314l-3.118 1.639c-1.498.779-2.976 1.617-4.474 2.416l7.511-2.956zm17.127-11.345l9.534-4.833c-3.745 1.399-7.429 2.956-11.154 4.434l-7.349 3.915 8.969-3.516zm18.462-12.043l10.689-5.253c-4.859 1.817-9.697 3.794-14.515 5.753l-7.855 4.134 11.681-4.634zm20.973-10.086l16.438-7.431a501.71 501.71 0 0 0-16.944 5.992l-11.337 5.513c3.927-1.478 7.896-2.696 11.843-4.074zm-1.012-2.558l11.397-5.312c-5.202 1.938-10.446 3.695-15.567 5.792l-10.122 5.053c4.737-1.917 9.514-3.734 14.292-5.533zm28.746-12.882c6.925-2.916 13.969-5.733 21.136-8.429-9.211 2.776-18.301 5.912-27.351 9.248l-15.061 6.87c7.045-2.696 14.11-5.332 21.276-7.689zm36.825-14.04c11.174-3.816 22.531-7.391 34.192-10.427-4.959.859-9.919 1.598-14.9 2.756-6.215 1.439-12.268 3.416-18.401 5.153-7.694 2.636-15.507 5.593-23.423 8.748 7.429-2.376 15.001-4.273 22.532-6.23zm49.942-13.922c18.301-3.655 36.48-5.413 54.397-5.652-10.022-.6-20.083-.84-30.144-.36-12.511 1.378-25.062 3.555-37.675 6.75-3.786.979-7.571 2.078-11.377 3.156 8.179-1.697 16.438-2.976 24.799-3.894zm15.426-1.379a279.34 279.34 0 0 1 22.067-.339c19.07-1.418 37.877-1.078 56.278.639-7-1.278-14.03-2.257-21.074-3.096-18.827-.798-37.957 0-57.271 2.796zm21.864.9c-13.138.979-26.399 2.836-39.74 5.652 5.548-.519 11.156-.839 16.783-1.019 14.009-2.197 28.302-3.136 42.817-3.436-6.621-.598-13.24-1.038-19.86-1.197zm-9.17 4.353c4.352.06 8.786.34 13.198.58 13.302-.979 26.804-1.238 40.593-.66-4.64-.758-9.295-1.377-13.951-1.957-13.523-.14-26.783.58-39.84 2.037zm23.584 1.239c4.798.44 9.656 1.038 14.535 1.677 12.532-.139 25.242.26 38.262 1.419-3.95-.899-7.92-1.678-11.86-2.457-13.91-.959-27.576-1.238-40.937-.639zm22.086 2.677c3.621.559 7.331 1.317 10.991 1.997 11.84.319 23.91 1.178 36.2 2.556l-7.98-2.117c-13.32-1.438-26.42-2.317-39.211-2.436zm10.081 3.175c-10.951-.279-21.721-.079-32.349.559 3.745.399 7.449.699 11.236 1.239 9.919-.4 20.003-.36 30.183 0l-9.07-1.798zm-15.425 2.697c2.652.399 5.344.918 8.037 1.397 9.398-.139 18.828-.119 28.458.36l-4.81-1.239c-10.71-.558-21.3-.778-31.685-.518zm15.585 2.716l6.56 1.338c8.81.02 17.7.3 26.68.859-1.76-.48-3.52-.899-5.3-1.359-9.43-.618-18.73-.818-27.94-.838zm11.64 2.537c1.46.319 2.94.678 4.42 1.038 8.68.1 17.53.599 26.4 1.179-.96-.28-1.89-.62-2.84-.88-9.41-.719-18.77-1.197-27.98-1.337zm-19.816 2.716l7.086 1.378c7.77-.3 15.55-.6 23.44-.52l-5.38-1.318c-8.46-.119-16.83.12-25.146.46zm11.786 2.437l4.11.938c7.79-.259 15.67-.319 23.58-.24l-3.06-.858c-8.3-.16-16.5-.08-24.63.16zm8.54 1.957l3.22.719c7.39-.24 14.88-.12 22.35-.08-.67-.18-1.34-.399-2.03-.599-7.87-.14-15.77-.26-23.54-.04zm3.66 1.917c-6.8.22-13.5.799-20.24 1.299l3.81.839c6.51-.52 13.03-1.119 19.59-1.399-1.03-.26-2.1-.479-3.16-.739zm-12.33 3.036l3.1.679c6.34-.519 12.7-.899 19.05-1.199-.73-.199-1.46-.438-2.18-.618-6.69.22-13.32.658-19.97 1.138zm6.99 1.538l2.37.539c6.03-.499 12.1-.738 18.16-1.058-.53-.14-1.06-.3-1.58-.46l-18.95.979zm2.77 1.738c-5.58.479-11.17 1.219-16.76 1.857l2.79.619 15.86-1.977-1.89-.499zm-10.38 3.256c.75.179 1.5.299 2.24.479l15.17-1.818-1.6-.44c-5.27.48-10.53 1.159-15.81 1.779zm5.48 1.277l1.5.42c4.98-.699 9.92-1.238 14.88-1.797l-.99-.28-15.39 1.657zm4.36 1.179l1.39.36c4.94-.719 9.78-1.179 14.68-1.798-.3-.08-.61-.16-.89-.26l-15.18 1.698zm1.33 1.618c-4.41.659-8.91 1.578-13.34 2.316.41.1.81.22 1.22.32l12.87-2.437c-.26-.059-.5-.139-.75-.199zm-9.33 3.355l.97.24 12.69-2.436c-.18-.04-.36-.1-.52-.14-4.35.699-8.77 1.557-13.14 2.336zm.59 1.418c-3.99.779-8.14 1.778-12.19 2.656.46.1.93.22 1.4.34 4.09-.918 8.32-1.697 12.47-2.576l-1.68-.42zm-8.04 3.675c.18.04.38.1.57.14 4.01-.959 8.09-1.717 12.14-2.616-.1-.02-.2-.04-.3-.08l-12.41 2.556zm.57 1.399c-3.77.898-7.453 1.957-11.219 2.895.426.1.85.22 1.276.3l11.133-2.896-1.19-.299zm-2.49-.619c-.29-.06-.57-.14-.83-.2l-11.927 2.836 1.478.28 11.279-2.916zm-11.299 4.194l-11.783 3.056 1.984.359 11.154-3.096-1.355-.319zm-2.795-.54c-.505-.12-1.012-.2-1.517-.299l-12.127 3.015 1.802.34 11.842-3.056zm-11.801 4.315l-11.519 3.196 2.146.378 11.458-3.174-2.085-.4zm-2.835-.54c-.627-.099-1.255-.219-1.883-.339l-11.903 3.156 2.409.439 11.377-3.256zm-11.296 4.514l-11.236 3.316 2.611.459 10.852-3.375-2.227-.4zm-13.908 4.115l-11.762 3.495c1.134.159 2.268.259 3.402.419l11.053-3.454-2.693-.46zm-8.301 5.173l-11.194 3.635c1.093.139 2.186.219 3.259.379l10.689-3.614c-.931-.12-1.842-.26-2.754-.4zm-13.927 4.554l-10.973 3.695 3.543.4 10.73-3.716-3.3-.379zm-13.726 4.613l-11.113 3.755 3.825.4 10.892-3.755-3.604-.4zm-13.807 4.715l-11.235 3.994 4.414.239 10.709-3.854c-1.296-.1-2.592-.26-3.888-.379zm-14.251 5.053l-11.722 4.154 4.657.259 11.539-4.154c-1.478-.12-2.976-.16-4.474-.259zm-14.637 5.193l-11.012 3.974c1.599.04 3.178.18 4.777.239l1.72-.618 3.726-1.359 5.466-1.977-4.677-.259zm-14.251 5.133l-12.188 4.393 5.446.04 11.742-4.254-5-.179zm-15.528 5.592l-11.964 4.294 5.79-.04 11.66-4.214-5.486-.04zm-15.447 5.553l-12.349 4.334c1.964-.06 3.929-.04 5.892-.06l12.268-4.314-5.811.04zm-16.093 5.632l-13.767 4.774 6.742-.32 12.996-4.554-5.971.1zm-17.957 6.231l-14.576 4.834c2.328-.159 4.636-.219 6.943-.339l14.375-4.815-6.742.32zm-19.313 6.372l-16.114 5.213 7.895-.699 15.406-4.954-7.187.44zm-21.54 6.93c-6.599 2.038-13.24 3.856-19.86 5.733l9.192-.978 18.665-5.473-7.997.718zm-27.39 7.91l-7.147 2.058c-7.51 2.017-15.061 3.814-22.592 5.572l10.081-1.678c1.843-.26 3.665-.44 5.507-.68l5.162-1.197c6.316-1.618 12.612-3.556 18.929-5.313-3.321.359-6.641.819-9.94 1.238zm-7.936.999l-4.252.539c-3.602.52-7.186 1.258-10.789 1.837-21.823 5.513-43.647 10.066-65.45 13.542-1.214.3-2.409.679-3.624.999 28.079-3.895 56.158-9.488 84.115-16.917zm-10.081-2.797l-12.228 2.137c-18.746 4.973-37.331 9.208-55.793 12.744-1.478.398-2.936.838-4.414 1.258 23.949-4.134 48.101-9.547 72.435-16.139zm-12.471.939a881.93 881.93 0 0 0 27.592-7.809c.244-.08.487-.18.73-.24-4.089.66-8.2 1.478-12.309 2.197-11.62 3.436-23.179 6.651-34.678 9.567 6.195-1.338 12.43-2.557 18.665-3.715zm4.919-3.855l-15.649 3.256c-14.373 3.994-28.645 7.689-42.715 10.865l-3.138.9c20.285-4.155 40.792-9.169 61.502-15.021zm4.576-6.271l21.823-6.971-9.474 1.777-23.342 7.591 10.993-2.397zm12.065-6.392l12.126-4.035 7.127-2.556-8.219 1.578-18.565 6.431c2.531-.538 5.021-.918 7.531-1.418zm2.592-3.395l-8.787 1.977-24.657 8.469 9.737-2.377 23.707-8.069zm-8.544.659l18.26-6.631-8.077 1.718-19.576 7.23 9.393-2.317zm-.182-2.297l-8.3 2.097-18.847 6.951c2.105-.579 4.231-1.018 6.356-1.578l20.791-7.47zm-19.353 4.894c-2.855.799-5.75 1.757-8.624 2.596l-27.675 10.106c1.114-.359 2.207-.659 3.3-.998l32.999-11.704zm-7.936 1.099l19.252-7.431-6.154 1.678-19.941 7.869 6.843-2.116zm12.754-6.932l15.588-6.272c-1.944.54-3.867.959-5.81 1.539l-16.439 6.83c2.207-.658 4.434-1.457 6.661-2.097zm-4.272-.22l-3.785 1.219-14.05 5.992c.162-.059.324-.099.506-.159l17.329-7.052zm-4.251.08l15.184-6.57-5.163 1.677-13.281 5.952 3.26-1.059zm9.596-6.032l12.267-5.511-4.817 1.597-10.69 4.953 3.24-1.039zm.667-5.571l8.868-4.435c.101-.06.243-.12.343-.18-.87.34-1.761.64-2.651.979l-4.312 2.217-3.907 2.017 1.659-.598zm-7.53 5.133c.445-.18.891-.3 1.356-.46l8.969-4.335c-.79.28-1.539.5-2.329.8l-7.996 3.995zm16.094-8.03c1.093-.399 2.166-.739 3.259-1.118l5.446-2.617 5.264-2.536-4.393 1.497-8.726 4.335c-.283.14-.566.28-.85.439zm9.089-5.892l8.16-4.055c-1.681.6-3.28 1.259-4.941 1.878l-6.316 3.235c1.032-.378 2.065-.698 3.097-1.058zm3.645 1.578l5.688-1.937c.02 0 .02 0 .02-.02l12.511-5.833c-2.368.74-4.797 1.678-7.166 2.457l-11.053 5.333zm10.547-6.451l9.171-4.435c-1.68.56-3.402 1.019-5.082 1.579l-9.373 4.673 5.284-1.817zm3.623-3.995l9.799-4.873-5.77 2.017-8.725 4.454 4.696-1.598zm7.329-2.277l5.75-1.777 11.741-5.513-7.329 2.297c-.992.499-2.065.978-3.057 1.477l-7.105 3.516zm11.924-16.957c.243-.14.485-.26.708-.4l6.053-3.235-7.065 2.916-5.203 2.975 5.507-2.256zm.587 1.079l-4.353 2.416 6.135-2.377 6.761-3.535c-2.875 1.119-5.689 2.337-8.543 3.496zm14.697-10.406l-6.276 3.434 8.726-3.594 8.604-4.435-11.054 4.595zm6.195-4.714l-8.463 3.555-5.647 3.136c2.449-1.079 4.939-2.037 7.409-3.096l6.701-3.595zm12.592-6.631l11.478-5.773-14.211 5.952-8.361 4.474 11.094-4.653zm19.535-12.623l12.066-5.892c-8.523 3.455-16.904 7.33-25.285 11.205l-5.547 2.956 18.766-8.269zm26.804-12.584c9.919-4.394 19.617-8.408 29.131-12.003-11.356 3.655-22.552 7.769-33.625 12.263l-15.083 7.191c6.458-2.696 13.038-5.033 19.577-7.451zm44.152-17.476c12.005-4.115 23.827-7.629 35.59-10.625 5.628-1.419 11.255-2.577 16.863-3.636-8.827 1.139-17.653 2.617-26.48 4.694-7.59 1.778-15 4.134-22.45 6.331-11.235 3.796-22.653 8.169-34.314 13.083 10.142-3.655 20.426-6.911 30.791-9.847zm37.149-14.421c16.012-3.994 32.289-6.451 48.91-7.529-17.552.499-35.165 2.536-52.818 6.751-8.785 2.097-17.41 4.753-26.014 7.43-14.677 4.893-29.657 10.685-45.103 17.536 13.543-5.433 27.329-10.106 41.277-14.24 11.337-3.816 22.552-7.152 33.748-9.948zm.303 1.179l-2.55.699c12.328-2.436 24.839-4.075 37.613-4.754 30.569-3.475 60.691-1.817 89.821 3.136-11.09-2.477-22.2-4.554-33.38-5.892-29.982-2.477-60.672-.878-91.504 6.811zm147.604 3.556c24.27 5.571 47.71 13.182 69.96 21.809-30.45-12.343-63.06-22.729-96.93-28.481 9.03 1.897 18.02 4.135 26.97 6.672zm.08 1.277c-29.68-6.83-60.634-10.605-92.174-9.267 9.373.199 18.948.978 28.626 2.077 27.508 1.138 54.358 5.573 80.068 12.164-5.49-1.778-11-3.396-16.52-4.974zm-45.53-4.733c5.89.998 11.88 2.197 17.89 3.516 23.41 3.095 46.1 8.208 67.8 14.599l-4.84-1.917c-25.81-7.749-52.94-13.562-80.85-16.198zm15.38 4.434c-18.3-2.317-36.982-3.296-55.992-2.617 6.175.38 12.43.999 18.726 1.758 17.346.219 35.186 1.778 53.606 4.674-5.42-1.399-10.89-2.656-16.34-3.815zm-27.18.339c4.67.72 9.45 1.698 14.19 2.597 10.04.699 20.18 1.697 30.55 3.216 6.35.919 12.93 2.316 19.45 3.555l-8.28-2.477c-19.21-3.595-37.9-6.111-55.91-6.891zm46.44 10.087l5.83 1.658c12.37 1.657 24.96 3.834 37.83 6.551-.44-.16-.89-.34-1.33-.52-14.44-3.255-28.55-5.811-42.33-7.689zm4.69 2.756c-12.22-1.618-24.25-2.717-36.03-3.275 2.31.479 4.68 1.058 7 1.577 11.04.6 22.27 1.638 33.67 3.096l-4.64-1.398zm-23.4-.32l7.17 1.758c9.8.679 19.67 1.498 29.76 2.817l-3.16-1.019c-11.44-1.598-22.72-2.817-33.77-3.556zm14.68 3.676c1.15.319 2.37.739 3.52 1.079 9.39.698 18.89 1.677 28.5 2.956-.66-.24-1.35-.42-2.02-.66-10.14-1.458-20.14-2.556-30-3.375zm8.74 2.656l2.47.759c8.89.679 17.92 1.698 27.01 2.856l-.65-.239c-9.72-1.379-19.35-2.557-28.83-3.376zm1.7 1.957c-8.68-.658-17.32-1.218-25.83-1.398 2.05.52 4.05.899 6.12 1.438 7.43.14 14.9.34 22.47.819l-2.76-.859zm-14.94 1.439c.87.239 1.77.519 2.64.778 7.12.12 14.23.2 21.45.619-.56-.18-1.15-.339-1.72-.539-7.55-.539-14.94-.639-22.37-.858zm7.07 2.077l1.8.539a504.17 504.17 0 0 1 21.18.679c-.21-.079-.41-.159-.61-.219-7.51-.52-14.96-.8-22.37-.999zm2.39 1.737l-21.62-.02c.87.22 1.78.519 2.65.759 6.74-.24 13.5-.339 20.3-.339-.44-.12-.89-.26-1.33-.4zm-14.88 1.898l1.98.559 18.99-.639-.83-.24c-6.76-.06-13.44.12-20.14.32zm5.83 1.658l1.4.399 18.15-.779-.5-.18c-6.4 0-12.71.34-19.05.56zm1.86 1.597l-18.42.959c.67.16 1.33.38 2 .539 5.79-.519 11.62-.839 17.43-1.198l-1.01-.3zm-12.85 2.477a40.15 40.15 0 0 0 1.43.399l16.46-1.417-.59-.18-17.3 1.198zm4.92 1.358l.87.24 15.56-1.637c-.04 0-.06 0-.1-.02-5.42.378-10.89.898-16.33 1.417zm4.02 1.099c.27.08.53.14.79.219l14.5-1.777c-.02 0-.06-.02-.08-.02-5.04.419-10.12 1.039-15.21 1.578zm1.14 1.418l-14.62 1.777.67.18c4.7-.738 9.33-1.298 13.99-1.957h-.04zm-10.89 2.776c.12.04.26.08.38.1l9.17-1.438-9.55 1.338zm.42 1.398l-13.22 2.277 1.52.379 12.25-2.516c-.18-.04-.37-.1-.55-.14zm-8.99 3.355l.25.06 11.64-2.496c-4.01.739-7.92 1.638-11.89 2.436zm-10.81 5.453l-11.253 2.856c.283.06.566.14.85.2l10.633-2.996c-.09-.02-.15-.04-.23-.06zm-10.403 4.335l-10.568 3.075 1.094.24 10.162-3.135-.688-.18zm-2.43-.58c-.304-.059-.607-.139-.911-.219l-10.891 3.036c.405.08.81.18 1.214.26l10.588-3.077zm-10.547 4.354l-10.972 3.176c.587.12 1.154.2 1.741.3l10.385-3.216c-.385-.08-.769-.18-1.154-.26zm-2.591-.539c-.446-.1-.911-.16-1.356-.26l-11.438 3.176c.607.12 1.194.22 1.781.32l11.013-3.236zm-10.912 4.514c-3.482 1.058-7.004 2.257-10.507 3.375l1.863.32 10.345-3.395-1.701-.3zm-2.591-.479l-1.983-.34-10.791 3.356 2.247.38 10.527-3.396zm-10.446 4.673l-10.587 3.396 2.308.4 10.202-3.456-1.923-.34zm-2.632-.459c-.769-.12-1.518-.26-2.288-.4l-10.911 3.396 2.591.439 10.608-3.435zm-10.547 4.694l-10.527 3.495 2.551.399 10.365-3.495c-.81-.12-1.599-.28-2.389-.399zm-13.199 4.414l-10.71 3.695c1.053.139 2.086.219 3.118.359l10.365-3.714c-.931-.12-1.862-.2-2.773-.34zm-13.402 4.633l-10.851 3.756 3.523.359 10.527-3.755c-1.073-.14-2.146-.24-3.199-.36zm-13.543 4.674l-10.588 3.815c1.235.1 2.47.26 3.704.36l10.467-3.796-3.583-.379zm-13.361 4.814l-11.539 4.154 4.332.24 11.033-4.055-3.826-.339zm-14.434 5.193l-8.179 2.936-2.693.998 4.596.22 10.668-3.914-4.392-.24zm-13.888 5.033l-11.418 4.134c1.579.04 3.159.16 4.737.22l10.406-3.794.911-.34-4.636-.22zm-14.677 5.313l-11.539 4.174 5.121.12 11.459-4.174-5.041-.12zm-15.001 5.433l-12.065 4.274 5.992-.06 11.559-4.214c-1.822-.02-3.643 0-5.486 0zm-15.73 5.552l-12.814 4.474c2.004-.06 3.988-.04 5.972-.08l12.855-4.454-6.013.06zm-16.702 5.833l-13.968 4.793 6.863-.34 13.22-4.593-6.115.14zm-18.482 6.231l-15.102 4.853 7.288-.399 15.081-4.814-7.267.36zm-19.88 6.391l-17.613 5.393 8.949-.799 16.033-5.053-7.369.459zm-23.99 7.19l-21.6 6.053 10.365-1.259 20.953-5.673-9.718.879zm-30.933 8.429c-25.548 6.312-51.238 11.105-76.988 14.361-1.357.34-2.693.739-4.049 1.078a638.68 638.68 0 0 0 26.803-3.434c8.766-1.699 17.592-3.116 26.44-4.515 10.446-2.017 20.871-4.194 31.236-6.731 2.692-.659 5.345-1.478 8.017-2.176l-11.459 1.417zm-77.251 13.162c2.894-.699 5.81-1.217 8.725-1.897-5.952.918-11.904 1.678-17.855 2.437l-2.895.799 12.025-1.339zm-19.739 2.197c.709-.219 1.418-.379 2.106-.578l-8.138.878c-.324.1-.628.22-.952.32l6.984-.62zm-11.559 2.177c-.284.08-.546.18-.81.26l4.373-.24c.445-.14.911-.239 1.376-.378l-4.939.358zm-15.953 3.356l-2.428 1.518c1.578-.559 3.178-1.059 4.777-1.598-.79.02-1.559.08-2.349.08zm6.316-3.914c.163 0 .345-.02.507-.02.02-.02.041-.02.061-.04l-.568.06zm.791 1.178c-.102.02-.183.06-.284.079l3.745-.199c.162-.04.344-.1.506-.16l-3.967.28zm-.162 2.396l-14.01 4.735-3.886 2.336c7.328-2.576 14.717-4.973 22.106-7.311-1.397.06-2.794.2-4.21.24zm5-4.054l-.365.12 4.089-.28c.203-.08.426-.16.628-.219l-4.352.379zm4.838-1.658l4.474-.399c.122-.04.263-.08.385-.12l-4.839.499c0 .02-.02.02-.02.02zm.202-2.397c-.02.02-.04.02-.06.02l4.636-.558c.142-.04.283-.1.424-.14l-5 .678zm5.446.46l5.325-.64c.202-.06.404-.1.586-.16-1.903.28-3.805.48-5.728.74l-.183.06zm.526-2.537c-.04 0-.061.02-.081.02l5.628-.859c.102-.04.203-.08.304-.099l-5.851.938zm13.301-2.197l15.912-2.776 6.074-1.717c-6.843 1.477-13.645 2.776-20.427 4.054-.526.16-1.053.279-1.559.439zm1.802-1.817c.061 0 .142-.02.202-.04h.041c-.081.02-.162.02-.243.04zm.546-1.359l15.628-3.275 7.876-2.257-23.504 5.532zm20.265-7.629c9.312-2.777 18.645-5.393 27.957-7.77 11.134-3.255 22.431-6.791 33.849-10.525-4.03.878-8.058 1.997-12.066 2.956-21.601 7.07-42.473 13.262-62.717 18.615l12.977-3.276zm32.614-11.165c-7.207 1.897-14.435 4.075-21.663 6.232l-15.223 4.553-2.429.759c12.855-3.495 25.993-7.389 39.315-11.544zm-42.675 11.205l3.057-.859c8.724-2.857 17.43-5.353 26.155-7.85 11.215-3.534 22.086-7.19 32.795-10.885l-8.805 2.177c-18.484 6.471-36.177 12.264-53.202 17.417zm32.491-11.545l-10.244 3.116-13.725 4.613 23.969-7.729zm-21.033 4.315l15.669-5.553c-1.316.44-2.632.778-3.928 1.218l-11.741 4.335zm11.357-5.493l21.154-8.149-5.142 1.617-17.693 7.052c.567-.2 1.113-.34 1.681-.52zm4.554-4.435l11.803-4.953c-.647.22-1.276.38-1.903.6l-9.9 4.353zm9.454-5.492l13.746-6.031c-.728.239-1.458.439-2.186.698l-11.701 5.373c.04 0 .081-.02.141-.04zm11.075-6.451l10.364-4.793c-.749.259-1.478.458-2.226.738l-9.151 4.375c.344-.12.668-.22 1.013-.32zm1.073-3.535l-1.722.899 2.065-1.039c-.122.04-.223.1-.343.14zm2.59-2.717l4.393-2.277-.607.24c-1.255.699-2.53 1.358-3.786 2.037zm4.008-3.535l1.681-.899 3.32-1.778c-.182.08-.364.14-.526.2l-4.475 2.477zm4.9-4.114l3.806-2.097c-.183.08-.385.179-.568.259l-3.238 1.838zm3.948-3.676l-.183.12c.081-.04.142-.08.223-.12h-.04zm3.381 2.956l4.432-2.276-2.59.999-4.15 2.216 2.308-.939zm1.335-2.396l7.065-3.775-2.226.838-6.276 3.476 1.437-.539zm2.996-3.535c.446-.18.891-.34 1.316-.499l4.818-2.677c-.607.26-1.234.48-1.862.738l-4.272 2.438zm4.839-6.032l-2.004 1.218c.323-.14.647-.3.972-.44l2.286-1.358-1.254.58zm-.446 1.857l-2.348 1.399c.567-.24 1.093-.52 1.66-.76l2.814-1.598c-.708.3-1.417.639-2.126.959zm1.681 4.254l3.948-1.498 8.502-4.353-5.202 1.977-7.248 3.874zm6.7-4.973l6.317-3.315-4.09 1.597-5.405 2.937 3.178-1.219zm1.701-2.836l6.782-3.655c-1.174.48-2.369.898-3.543 1.378l-6.073 3.376c.931-.38 1.882-.72 2.834-1.099zm-1.66-4.734c-.162.1-.344.2-.506.3l2.065-.979c.222-.14.445-.259.668-.399l-2.227 1.078zm2.166.38c-.243.16-.506.3-.769.459l2.814-1.278c.506-.3 1.032-.579 1.539-.879l-3.584 1.698zm2.611.28l-2.976 1.697c.831-.36 1.702-.639 2.531-.998l4.919-2.736-4.474 2.037zm11.034.839l7.814-3.995c-2.388.859-4.697 1.857-7.065 2.736l-6.842 3.595 6.093-2.336zm-4.535-8.329l-.364.24 3.866-1.859.607-.359-4.109 1.978zm4.13-.56l-1.397.82c1.094-.48 2.226-.88 3.34-1.359l4.17-2.397c-2.065.939-4.069 1.977-6.113 2.936zm5.385-6.791l1.397-.658c.182-.12.364-.24.546-.34-.647.32-1.295.679-1.943.998zm2.044.38c-.06.04-.142.08-.202.119l5.871-2.836c.183-.1.344-.22.526-.319l-6.195 3.036zm3.24.139c1.539-.678 3.117-1.257 4.656-1.937 1.033-.559 2.045-1.179 3.077-1.737l2.368-1.299-7.045 3.176-3.056 1.797zm10.324-8.328l-1.741 1.039 9.373-4.414 3.705-2.038-11.337 5.413zm14.05-8.01l11.903-5.352 3.705-1.938-12.228 5.373-3.38 1.917zm20.892-12.822l6.396-3.396-13.482 6.552c2.328-1.119 4.738-2.077 7.086-3.156zm35.71-17.716c6.782-3.116 13.483-6.052 20.083-8.788-14.252 5.432-28.343 11.345-42.189 17.975l-7.308 3.835c9.717-4.593 19.495-9.008 29.414-13.022zm-22.592 8.069l10.466-5.253-11.924 5.912c.486-.239.993-.439 1.458-.659zm112.213-45.479c-36.318 8.788-70.895 22.989-104.378 40.086 22.996-11.185 46.602-20.712 70.855-28.242 10.668-3.535 21.215-6.671 31.661-9.227 45.488-11.185 92.999-10.186 145.249 3.136 23.55 5.991 48.08 14.56 74.62 25.965-70.34-31.458-143.852-49.674-218.007-31.718zm223.617 35.373c-63.22-28.043-132.98-47.556-205.275-35.632 20.325-2.677 40.569-2.797 60.712-.999 20.143 1.039 40.873 3.995 62.453 9.088 25.83 6.112 52.7 15.099 82.11 27.543zm-7.39 2.177l5.23 1.737c.02-.02.04-.02.06-.02l-8.28-3.036 2.99 1.319zm-48-18.975l11.85 4.074c10.54 3.156 20.85 6.652 30.93 10.306-13.85-5.272-28.12-10.146-42.78-14.38zm28.59 10.686l2.79 1.098 7.67 2.576-10.46-3.674zm7.49 4.354l-4.82-1.997c-22.35-7.25-45.83-13.382-70.17-17.377l16.24 4.294c18.85 3.655 38.4 8.669 58.75 15.08zm-.67 2.297a571.56 571.56 0 0 0-30.2-8.09c1.23.44 2.45.939 3.68 1.399 8.71 1.977 17.55 4.194 26.52 6.691zm-9.72-.24c.49.12.97.259 1.44.359l-1.62-.439c.06.02.12.06.18.08zm-4.94-2.597c-1.41-.358-2.75-.578-4.15-.918.14.06.29.12.43.16 1.25.3 2.45.459 3.72.758zm-4.13.54c-.24-.08-.46-.16-.68-.26-13-2.916-25.74-5.273-38.23-7.13l3.71 1.178c11.52 1.618 23.26 3.735 35.2 6.212zm-1.74.939c-8.46-1.738-16.78-3.176-25.02-4.495 1.03.36 2.03.62 3.06.979l21.96 3.516zm-4.17 2.996l.61.06c-.22-.02-.43-.04-.65-.08.02.02.04.02.04.02zm-.24-2.457c-3.83-.699-7.57-1.218-11.36-1.818.33.12.63.24.95.34l10.41 1.478zm-4.88.579a40.85 40.85 0 0 1 1.64.2c-.59-.1-1.17-.16-1.76-.26l.12.06zm-.38 1.318l-.51-.179c-9.11-1.259-18.2-2.457-27.09-3.236.97.319 1.93.579 2.92.899 8.14.599 16.4 1.537 24.68 2.516zm-5.25.7l-13.62-1.399c.32.1.63.24.95.34 4.19.28 8.44.659 12.67 1.059zm-7.93.638l3.82.24-4.09-.34c.1.04.19.06.27.1zm-.89 1.159c-7.09-.42-14.18-.799-21.18-.939.38.12.77.22 1.15.34 6.64.04 13.37.339 20.09.619-.02 0-.04-.02-.06-.02zm-2.07 1.139l-14.01-.58.85.24c4.35 0 8.77.26 13.16.34zm-3.4 1.138c-1.9-.02-3.83-.14-5.73-.16.1.04.22.08.32.12 1.81-.02 3.61.04 5.41.04zm-5.1 1.199c-6.05.06-12.11.299-18.14.558l.85.24 17.31-.798h-.02zm-7.41 3.794c.2-.02.4-.02.63-.04-.23.02-.43.02-.65.04h.02zm4.25-2.537c-3.56.12-7.11.34-10.67.54.14.04.31.08.45.12l10.22-.66zm-12.83 7.092l6.37-.98-6.8.84c.14.06.28.1.43.14zm-2.41.378c-.21-.06-.39-.12-.57-.179-4.19.619-8.5 1.478-12.73 2.197.12.02.24.06.34.08 4.27-.779 8.64-1.379 12.96-2.098zm-12.66 4.555c-3.24.638-6.41 1.377-9.63 2.057l.4.12 9.23-2.177zm-17.65 6.93l9.11-2.477-9.51 2.377c.14.04.28.06.4.1zm-2.91.519l-10.75 2.957c.2.06.4.1.6.139l10.65-2.956a3.65 3.65 0 0 1-.5-.14zm-7.33 3.776l5.28-1.679-5.77 1.579c.16.04.33.06.49.1zm-12.25 3.914l9.96-3.176-.53-.12-10.118 3.136a8.64 8.64 0 0 1 .688.16zm-12.369 3.935l10.081-3.216c-.264-.04-.506-.1-.749-.16l-10.264 3.176c.324.06.628.14.932.2zm-12.168 4.194l9.92-3.436c-.364-.079-.748-.119-1.133-.199l-10.446 3.355 1.659.28zm-12.409 4.294l9.981-3.455-1.681-.279-10.183 3.435 1.883.299zm-12.41 4.395l9.92-3.536-1.903-.32-10.325 3.496 2.308.36zm-2.388.878c-.811-.119-1.62-.279-2.43-.379l-10.122 3.595 2.713.379 9.839-3.595zm-12.269 4.474l-2.915-.319-10.486 3.755 3.097.319 10.304-3.755zm-12.854 4.714l-3.158-.34-10.507 3.776 3.522.359 10.143-3.795zm-12.754 4.753l-3.544-.339-10.769 3.955c1.254.1 2.49.259 3.745.359l10.568-3.975zm-16.014 6.012l2.895-1.079-4.008-.298-10.628 3.914 4.332.22 7.409-2.757zm-10.365 3.856c-1.437-.1-2.915-.14-4.373-.22-.222.1-.465.18-.708.26l-2.875 1.078-7.652 2.776 4.575.22 11.033-4.114zm-13.948 5.193l-4.636-.2-11.316 4.114 5.02.16 10.932-4.074zm-13.968 5.213l-5.102-.16-11.174 4.074 5.162.12 11.114-4.034zm-14.353 5.172l-5.426.02-12.795 4.454 5.831-.08 12.39-4.394zm-16.054 5.693l-5.911.08-12.896 4.474c2.065-.06 4.15-.04 6.215-.08l12.592-4.474zm-16.175 5.732l-6.58.179-14.515 4.775 6.984-.38 14.111-4.574zm-18.746 6.051l-7.046.38-15.527 4.893c2.429-.179 4.839-.259 7.247-.399l15.326-4.874zm-19.921 6.352l-7.814.54c-6.599 1.977-13.26 3.754-19.88 5.592l9.09-.799 18.604-5.333zm-47.958 13.123c7.531-1.798 14.98-3.916 22.47-5.973l-8.886.78-16.237 4.393c-3.643.899-7.308 1.619-10.951 2.437l13.604-1.637zm-12.147 2.696l-7.065.859c-4.838.658-9.616 1.578-14.414 2.337a647.29 647.29 0 0 1-26.823 4.573c-2.612.5-5.163 1.119-7.775 1.638 18.828-2.297 37.533-5.333 56.077-9.407zm-64.903 10.046c-5.81.699-11.62 1.279-17.431 1.838-.566.139-1.132.299-1.7.459l13.726-1.158 5.405-1.139zm-15.527 3.316c-3.097.26-6.194.3-9.292.519-18.301 4.934-36.42 10.426-54.295 16.758l-4.15 2.357c22.187-7.591 44.78-14.161 67.737-19.634z" fill="url(#A)"/><defs><linearGradient id="A" x1="0" y1="200.425" x2="1458.98" y2="234.314" gradientUnits="userSpaceOnUse"><stop stop-color="#fff"/><stop offset=".796" stop-color="#fff" stop-opacity=".21"/></linearGradient></defs></svg>