<svg width="17" height="13" viewBox="0 0 17 13" fill="none" xmlns="http://www.w3.org/2000/svg">
<path fill-rule="evenodd" clip-rule="evenodd" d="M15.9598 0.896012C16.1281 1.04493 16.2227 1.2468 16.2227 1.45728C16.2227 1.66775 16.1281 1.86962 15.9598 2.01854L7.57194 11.4528C7.40343 11.6016 7.17501 11.6851 6.93686 11.6851C6.6987 11.6851 6.47028 11.6016 6.30177 11.4528L1.50869 7.21688C1.4204 7.14417 1.34958 7.05649 1.30046 6.95906C1.25134 6.86163 1.22493 6.75646 1.2228 6.64982C1.22067 6.54318 1.24286 6.43725 1.28806 6.33835C1.33326 6.23945 1.40054 6.14962 1.48588 6.0742C1.57122 5.99878 1.67287 5.93932 1.78478 5.89937C1.89668 5.85943 2.01654 5.83981 2.13721 5.84169C2.25788 5.84357 2.37689 5.86692 2.48713 5.91033C2.59737 5.95373 2.69658 6.01632 2.77886 6.09436L6.93686 9.76905L14.6897 0.896012C14.8582 0.747277 15.0866 0.663734 15.3247 0.663734C15.5629 0.663734 15.7913 0.747277 15.9598 0.896012Z" fill="#2CA92A" stroke="#2CA92A" stroke-width="0.7"/>
</svg>
