<svg width="24" height="20" viewBox="0 0 24 20" fill="none" xmlns="http://www.w3.org/2000/svg">
<path d="M21.3665 0H2.9665C1.7015 0 0.678004 1.125 0.678004 2.5L0.666504 17.5C0.666504 18.875 1.7015 20 2.9665 20H21.3665C22.6315 20 23.6665 18.875 23.6665 17.5V2.5C23.6665 1.125 22.6315 0 21.3665 0ZM20.9065 5.3125L12.776 10.8375C12.408 11.0875 11.925 11.0875 11.557 10.8375L3.4265 5.3125C3.31119 5.24214 3.21021 5.14708 3.12968 5.03307C3.04914 4.91906 2.99073 4.78847 2.95797 4.64921C2.92521 4.50995 2.91878 4.36492 2.93908 4.22288C2.95939 4.08085 3.00599 3.94477 3.07608 3.82288C3.14617 3.70099 3.23828 3.59582 3.34684 3.51374C3.4554 3.43167 3.57816 3.37439 3.70767 3.34537C3.83719 3.31636 3.97078 3.31621 4.10035 3.34493C4.22992 3.37366 4.35279 3.43067 4.4615 3.5125L12.1665 8.75L19.8715 3.5125C19.9802 3.43067 20.1031 3.37366 20.2327 3.34493C20.3622 3.31621 20.4958 3.31636 20.6253 3.34537C20.7549 3.37439 20.8776 3.43167 20.9862 3.51374C21.0947 3.59582 21.1868 3.70099 21.2569 3.82288C21.327 3.94477 21.3736 4.08085 21.3939 4.22288C21.4142 4.36492 21.4078 4.50995 21.375 4.64921C21.3423 4.78847 21.2839 4.91906 21.2033 5.03307C21.1228 5.14708 21.0218 5.24214 20.9065 5.3125Z" fill="white"/>
</svg>
