<svg width="10" height="8" viewBox="0 0 10 8" fill="none" xmlns="http://www.w3.org/2000/svg">
<path d="M9.28571 0H0.714286C0.524845 0 0.343164 0.0842854 0.209209 0.234315C0.0752549 0.384344 0 0.587827 0 0.8V7.2C0 7.41217 0.0752549 7.61566 0.209209 7.76569C0.343164 7.91571 0.524845 8 0.714286 8H9.28571C9.47515 8 9.65684 7.91571 9.79079 7.76569C9.92475 7.61566 10 7.41217 10 7.2V0.8C10 0.587827 9.92475 0.384344 9.79079 0.234315C9.65684 0.0842854 9.47515 0 9.28571 0ZM8.5 0.8L5 3.512L1.5 0.8H8.5ZM0.714286 7.2V1.164L4.79643 4.328C4.85621 4.37445 4.92724 4.39934 5 4.39934C5.07276 4.39934 5.14379 4.37445 5.20357 4.328L9.28571 1.164V7.2H0.714286Z" fill="#fff"/>
</svg>
