<svg width="24" height="24" viewBox="0 0 24 24" fill="none" xmlns="http://www.w3.org/2000/svg">
<path d="M4.86617 0.5C2.53974 0.5 0.666504 2.37323 0.666504 4.69966V19.3004C0.666504 21.6268 2.53974 23.5 4.86617 23.5H12.7796V14.5084H10.402V11.2712H12.7796V8.50545C12.7796 6.33252 14.1844 4.33741 17.4206 4.33741C18.7308 4.33741 19.6997 4.4632 19.6997 4.4632L19.6235 7.48627C19.6235 7.48627 18.6354 7.47693 17.5571 7.47693C16.3901 7.47693 16.203 8.01463 16.203 8.90726V11.2712H19.7163L19.5632 14.5085H16.203V23.5H19.4668C21.7933 23.5 23.6665 21.6268 23.6665 19.3004V4.69969C23.6665 2.37326 21.7933 0.500023 19.4668 0.500023H4.86614L4.86617 0.5Z" fill="white"/>
</svg>
