<svg width="93" height="75" viewBox="0 0 93 75" fill="none" xmlns="http://www.w3.org/2000/svg">
<path fill-rule="evenodd" clip-rule="evenodd" d="M44.888 11.145C45.3547 11.1225 45.8242 11.1111 46.2963 11.1111C46.7684 11.1111 47.2379 11.1225 47.7046 11.145C48.2153 11.1697 48.6094 11.6038 48.5847 12.1146C48.56 12.6254 48.1259 13.0194 47.6151 12.9947C47.1783 12.9736 46.7386 12.9629 46.2963 12.9629C45.854 12.9629 45.4143 12.9736 44.9774 12.9947C44.4667 13.0194 44.0326 12.6254 44.0079 12.1146C43.9832 11.6038 44.3773 11.1697 44.888 11.145ZM41.335 12.463C41.4425 12.963 41.1244 13.4554 40.6244 13.5629C39.7598 13.7488 38.9106 13.9763 38.0792 14.2433C37.5923 14.3996 37.0709 14.1316 36.9145 13.6447C36.7582 13.1578 37.0262 12.6364 37.5131 12.4801C38.4023 12.1945 39.3105 11.9512 40.2352 11.7524C40.7351 11.6449 41.2275 11.9631 41.335 12.463ZM51.2576 12.463C51.3651 11.9631 51.8575 11.6449 52.3574 11.7524C53.2821 11.9512 54.1902 12.1945 55.0795 12.4801C55.5664 12.6364 55.8344 13.1578 55.6781 13.6447C55.5217 14.1316 55.0003 14.3996 54.5134 14.2433C53.682 13.9763 52.8328 13.7488 51.9682 13.5629C51.4682 13.4554 51.1501 12.963 51.2576 12.463ZM34.4251 14.6771C34.6591 15.1318 34.4802 15.6901 34.0255 15.9241C33.2421 16.3274 32.481 16.768 31.7446 17.2438C31.3151 17.5213 30.7419 17.3981 30.4644 16.9686C30.1869 16.539 30.3101 15.9659 30.7396 15.6884C31.5268 15.1798 32.3404 14.7087 33.1781 14.2776C33.6327 14.0435 34.1911 14.2224 34.4251 14.6771ZM58.1675 14.6771C58.4015 14.2224 58.9598 14.0435 59.4145 14.2776C60.2522 14.7087 61.0658 15.1798 61.853 15.6884C62.2825 15.9659 62.4057 16.539 62.1282 16.9686C61.8507 17.3981 61.2775 17.5213 60.848 17.2438C60.1116 16.768 59.3505 16.3274 58.5671 15.9241C58.1124 15.6901 57.9335 15.1318 58.1675 14.6771ZM28.3278 18.6105C28.6713 18.9893 28.6427 19.5749 28.2639 19.9184C27.6126 20.509 26.9905 21.1311 26.3999 21.7824C26.0564 22.1612 25.4708 22.1898 25.092 21.8462C24.7132 21.5027 24.6846 20.9171 25.0282 20.5383C25.6592 19.8425 26.324 19.1777 27.0199 18.5467C27.3987 18.2031 27.9842 18.2317 28.3278 18.6105ZM64.2648 18.6105C64.6084 18.2317 65.1939 18.2031 65.5727 18.5467C66.2686 19.1777 66.9334 19.8425 67.5644 20.5383C67.908 20.9171 67.8794 21.5027 67.5006 21.8462C67.1218 22.1898 66.5362 22.1612 66.1927 21.7824C65.6021 21.1311 64.9799 20.509 64.3287 19.9184C63.9499 19.5749 63.9213 18.9893 64.2648 18.6105ZM23.4501 23.9829C23.8796 24.2604 24.0028 24.8336 23.7253 25.2631C23.2495 25.9995 22.8089 26.7606 22.4056 27.544C22.1716 27.9987 21.6133 28.1776 21.1586 27.9436C20.7039 27.7095 20.5251 27.1512 20.7591 26.6966C21.1902 25.8589 21.6613 25.0452 22.1699 24.2581C22.4474 23.8286 23.0205 23.7054 23.4501 23.9829ZM69.1425 23.9829C69.5721 23.7054 70.1452 23.8286 70.4227 24.2581C70.9313 25.0452 71.4024 25.8589 71.8335 26.6966C72.0675 27.1512 71.8887 27.7095 71.434 27.9436C70.9793 28.1776 70.421 27.9987 70.187 27.544C69.7837 26.7606 69.343 25.9995 68.8673 25.2631C68.5898 24.8336 68.713 24.2604 69.1425 23.9829ZM20.1262 30.433C20.6131 30.5893 20.8811 31.1108 20.7248 31.5977C20.4578 32.4291 20.2303 33.2783 20.0444 34.1429C19.9369 34.6428 19.4445 34.961 18.9445 34.8535C18.4446 34.746 18.1264 34.2536 18.2339 33.7537C18.4327 32.829 18.676 31.9208 18.9616 31.0316C19.1179 30.5447 19.6393 30.2767 20.1262 30.433ZM72.4664 30.433C72.9533 30.2767 73.4747 30.5447 73.631 31.0316C73.9165 31.9208 74.1599 32.829 74.3587 33.7537C74.4662 34.2536 74.148 34.746 73.6481 34.8535C73.1481 34.961 72.6557 34.6428 72.5482 34.1429C72.3623 33.2783 72.1348 32.4291 71.8678 31.5977C71.7115 31.1108 71.9795 30.5893 72.4664 30.433ZM73.9965 37.5264C74.5073 37.5017 74.9413 37.8957 74.966 38.4065C74.9886 38.8732 75 39.3427 75 39.8148C75 40.2869 74.9886 40.7564 74.966 41.223C74.9413 41.7338 74.5073 42.1279 73.9965 42.1032C73.4857 42.0785 73.0917 41.6444 73.1163 41.1336C73.1375 40.6968 73.1481 40.2571 73.1481 39.8148C73.1481 39.3725 73.1375 38.9328 73.1163 38.4959C73.0917 37.9852 73.4857 37.5511 73.9965 37.5264ZM18.5961 37.5264C19.1069 37.5511 19.5009 37.9852 19.4762 38.4959C19.4551 38.9328 19.4444 39.3725 19.4444 39.8148C19.4444 40.2571 19.4551 40.6968 19.4762 41.1336C19.5009 41.6444 19.1069 42.0785 18.5961 42.1032C18.0853 42.1279 17.6512 41.7338 17.6266 41.223C17.604 40.7564 17.5926 40.2869 17.5926 39.8148C17.5926 39.3427 17.604 38.8732 17.6266 38.4065C17.6512 37.8958 18.0853 37.5017 18.5961 37.5264ZM18.9445 44.7761C19.4445 44.6686 19.9369 44.9867 20.0444 45.4867C20.2303 46.3513 20.4578 47.2005 20.7248 48.0319C20.8811 48.5188 20.6131 49.0402 20.1262 49.1966C19.6393 49.3529 19.1179 49.0849 18.9616 48.598C18.676 47.7087 18.4327 46.8006 18.2339 45.8759C18.1264 45.376 18.4446 44.8835 18.9445 44.7761ZM73.6481 44.7761C74.148 44.8835 74.4662 45.376 74.3587 45.8759C74.1599 46.8006 73.9165 47.7087 73.631 48.598C73.4747 49.0849 72.9533 49.3529 72.4664 49.1966C71.9795 49.0402 71.7115 48.5188 71.8678 48.0319C72.1348 47.2005 72.3623 46.3513 72.5482 45.4867C72.6557 44.9867 73.1481 44.6686 73.6481 44.7761ZM21.1586 51.686C21.6133 51.452 22.1716 51.6309 22.4056 52.0855C22.8089 52.869 23.2495 53.6301 23.7253 54.3665C24.0028 54.796 23.8796 55.3692 23.4501 55.6467C23.0205 55.9242 22.4474 55.801 22.1699 55.3714C21.6613 54.5843 21.1902 53.7707 20.7591 52.933C20.5251 52.4783 20.7039 51.92 21.1586 51.686ZM71.434 51.686C71.8887 51.92 72.0675 52.4783 71.8335 52.933C71.4024 53.7707 70.9313 54.5843 70.4227 55.3714C70.1452 55.801 69.5721 55.9242 69.1425 55.6467C68.713 55.3692 68.5898 54.796 68.8673 54.3665C69.343 53.6301 69.7837 52.869 70.187 52.0855C70.421 51.6309 70.9793 51.452 71.434 51.686ZM25.092 57.7833C25.4708 57.4398 26.0564 57.4684 26.3999 57.8472C26.9905 58.4984 27.6126 59.1206 28.2639 59.7112C28.6427 60.0547 28.6713 60.6402 28.3277 61.019C27.9842 61.3979 27.3987 61.4264 27.0199 61.0829C26.324 60.4518 25.6592 59.7871 25.0282 59.0912C24.6846 58.7124 24.7132 58.1269 25.092 57.7833ZM67.5006 57.7833C67.8794 58.1269 67.908 58.7124 67.5644 59.0912C66.9334 59.7871 66.2686 60.4518 65.5727 61.0829C65.1939 61.4264 64.6084 61.3979 64.2648 61.019C63.9213 60.6402 63.9499 60.0547 64.3287 59.7112C64.9799 59.1206 65.6021 58.4984 66.1927 57.8472C66.5362 57.4684 67.1218 57.4398 67.5006 57.7833ZM30.4644 62.661C30.7419 62.2315 31.3151 62.1083 31.7446 62.3858C32.481 62.8615 33.2421 63.3022 34.0255 63.7055C34.4802 63.9395 34.6591 64.4978 34.4251 64.9525C34.1911 65.4072 33.6327 65.586 33.1781 65.352C32.3404 64.9209 31.5268 64.4498 30.7396 63.9412C30.3101 63.6637 30.1869 63.0905 30.4644 62.661ZM62.1282 62.661C62.4057 63.0905 62.2825 63.6637 61.8529 63.9412C61.0658 64.4498 60.2522 64.9209 59.4145 65.352C58.9598 65.586 58.4015 65.4072 58.1675 64.9525C57.9335 64.4978 58.1124 63.9395 58.5671 63.7055C59.3505 63.3022 60.1116 62.8615 60.848 62.3858C61.2775 62.1083 61.8507 62.2315 62.1282 62.661ZM36.9145 65.9848C37.0709 65.498 37.5923 65.23 38.0792 65.3863C38.9106 65.6533 39.7598 65.8808 40.6244 66.0667C41.1244 66.1742 41.4425 66.6666 41.335 67.1665C41.2275 67.6665 40.7351 67.9847 40.2352 67.8772C39.3105 67.6784 38.4023 67.435 37.5131 67.1495C37.0262 66.9932 36.7582 66.4717 36.9145 65.9848ZM55.6781 65.9848C55.8344 66.4717 55.5664 66.9932 55.0795 67.1495C54.1902 67.435 53.2821 67.6784 52.3574 67.8772C51.8575 67.9847 51.3651 67.6665 51.2576 67.1665C51.1501 66.6666 51.4682 66.1742 51.9682 66.0667C52.8328 65.8808 53.682 65.6533 54.5134 65.3863C55.0003 65.23 55.5217 65.498 55.6781 65.9848ZM44.0079 67.515C44.0326 67.0042 44.4667 66.6101 44.9774 66.6348C45.4143 66.656 45.854 66.6666 46.2963 66.6666C46.7386 66.6666 47.1783 66.656 47.6151 66.6348C48.1259 66.6101 48.56 67.0042 48.5847 67.515C48.6094 68.0258 48.2153 68.4598 47.7046 68.4845C47.2379 68.5071 46.7684 68.5185 46.2963 68.5185C45.8242 68.5185 45.3547 68.5071 44.888 68.4845C44.3773 68.4598 43.9832 68.0258 44.0079 67.515Z" fill="#2AAFD3"/>
<path d="M39.1756 30.5557C41.0234 30.5557 42.3863 30.909 43.2643 31.6155C44.1554 32.3221 44.601 33.3956 44.601 34.8359C44.601 35.5425 44.47 36.1471 44.2079 36.6499C43.9589 37.1526 43.6313 37.5739 43.225 37.9136C42.8188 38.2397 42.3797 38.5047 41.908 38.7085L45.9377 45.1084H43.1071L39.7457 39.3607H37.7013V45.1084H35.1852V30.5557H39.1756ZM39.0183 32.7365H37.7013V37.2206H39.097C40.1323 37.2206 40.8792 37.0304 41.3379 36.6499C41.8097 36.2558 42.0456 35.6783 42.0456 34.9174C42.0456 34.1293 41.7966 33.5722 41.2986 33.2461C40.8137 32.9064 40.0536 32.7365 39.0183 32.7365Z" fill="#2AAFD3"/>
<path d="M53.2597 33.8576C54.5047 33.8576 55.5072 34.3399 56.2673 35.3047C57.0274 36.2558 57.4074 37.6758 57.4074 39.5645C57.4074 41.4532 57.0143 42.8868 56.228 43.8651C55.4548 44.8299 54.4457 45.3122 53.2008 45.3122C52.4145 45.3122 51.7789 45.1628 51.294 44.8638C50.8091 44.5649 50.4225 44.2184 50.1342 43.8244H49.977C50.0163 44.0825 50.049 44.3679 50.0752 44.6804C50.1146 44.9793 50.1342 45.2579 50.1342 45.5161V50.0001H47.6574V34.0614H49.6624L50.0163 35.5289H50.1342C50.4225 35.0669 50.8157 34.6728 51.3137 34.3467C51.8116 34.0206 52.4603 33.8576 53.2597 33.8576ZM52.5521 35.9365C51.674 35.9365 51.0516 36.2083 50.6846 36.7518C50.3308 37.2953 50.1473 38.1174 50.1342 39.218V39.5441C50.1342 40.7263 50.3046 41.6367 50.6453 42.2753C50.9991 42.9004 51.6478 43.2129 52.5914 43.2129C53.3646 43.2129 53.9346 42.8868 54.3016 42.2346C54.6816 41.5687 54.8716 40.6651 54.8716 39.5238C54.8716 38.3824 54.6816 37.4991 54.3016 36.8741C53.9346 36.249 53.3515 35.9365 52.5521 35.9365Z" fill="#2AAFD3"/>
<path fill-rule="evenodd" clip-rule="evenodd" d="M65.5501 70.3704C75.6795 63.9742 82.4074 52.6802 82.4074 39.8148C82.4074 19.8712 66.2399 3.7037 46.2963 3.7037C26.3527 3.7037 10.1852 19.8712 10.1852 39.8148C10.1852 52.6802 16.9131 63.9742 27.0425 70.3704H20.7688C12.0361 63.0668 6.48151 52.0895 6.48151 39.8148C6.48151 17.8257 24.3072 0 46.2963 0C68.2854 0 86.1111 17.8257 86.1111 39.8148C86.1111 52.0895 80.5565 63.0668 71.8238 70.3704H65.5501Z" fill="#2AAFD3"/>
<path fill-rule="evenodd" clip-rule="evenodd" d="M79.9429 61.1111C78.9109 62.7381 77.7643 64.2851 76.5142 65.7407H85.6481C86.9266 65.7407 87.963 66.7771 87.963 68.0555C87.963 69.334 86.9266 70.3703 85.6481 70.3703H71.8238H20.7688H6.94444C5.66601 70.3703 4.62963 69.334 4.62963 68.0555C4.62963 66.7771 5.66601 65.7407 6.94444 65.7407H16.0784C14.8283 64.2851 13.6816 62.7381 12.6497 61.1111H6.94444C3.10913 61.1111 0 64.2202 0 68.0555C0 71.8908 3.10913 75 6.94444 75H85.6481C89.4835 75 92.5926 71.8908 92.5926 68.0555C92.5926 64.2202 89.4835 61.1111 85.6481 61.1111H79.9429Z" fill="#2AAFD3"/>
</svg>
