<svg width="75" height="75" viewBox="0 0 75 75" fill="none" xmlns="http://www.w3.org/2000/svg">
<path fill-rule="evenodd" clip-rule="evenodd" d="M37.5 70.5C55.7254 70.5 70.5 55.7254 70.5 37.5C70.5 19.2746 55.7254 4.5 37.5 4.5C19.2746 4.5 4.5 19.2746 4.5 37.5C4.5 55.7254 19.2746 70.5 37.5 70.5ZM37.5 75C58.2107 75 75 58.2107 75 37.5C75 16.7893 58.2107 0 37.5 0C16.7893 0 0 16.7893 0 37.5C0 58.2107 16.7893 75 37.5 75Z" fill="#2AAFD3"/>
<path fill-rule="evenodd" clip-rule="evenodd" d="M20.909 35.6829C21.7877 34.8043 23.2123 34.8043 24.091 35.6829L33.1066 44.6985L53.7895 24.0157C54.6681 23.137 56.0928 23.137 56.9714 24.0157C57.8501 24.8944 57.8501 26.319 56.9714 27.1977L34.6976 49.4715C33.8189 50.3502 32.3943 50.3502 31.5156 49.4715L20.909 38.8649C20.0303 37.9862 20.0303 36.5616 20.909 35.6829Z" fill="#2AAFD3"/>
</svg>
