<svg width="24" height="24" viewBox="0 0 24 24" fill="none" xmlns="http://www.w3.org/2000/svg">
<path d="M12.1636 8.16503C10.0519 8.16503 8.32866 9.88832 8.32866 12C8.32866 14.1117 10.0519 15.835 12.1636 15.835C14.2753 15.835 15.9986 14.1117 15.9986 12C15.9986 9.88832 14.2753 8.16503 12.1636 8.16503ZM23.6656 12C23.6656 10.4119 23.68 8.83824 23.5908 7.25304C23.5017 5.4118 23.0816 3.77769 21.7352 2.43128C20.3859 1.082 18.7547 0.664841 16.9135 0.575656C15.3254 0.486471 13.7517 0.500856 12.1665 0.500856C10.5784 0.500856 9.00474 0.486471 7.41955 0.575656C5.5783 0.664841 3.9442 1.08488 2.59779 2.43128C1.2485 3.78057 0.831345 5.4118 0.74216 7.25304C0.652975 8.84112 0.66736 10.4148 0.66736 12C0.66736 13.5852 0.652975 15.1618 0.74216 16.747C0.831345 18.5882 1.25138 20.2223 2.59779 21.5687C3.94708 22.918 5.5783 23.3352 7.41955 23.4243C9.00762 23.5135 10.5813 23.4991 12.1665 23.4991C13.7546 23.4991 15.3283 23.5135 16.9135 23.4243C18.7547 23.3352 20.3888 22.9151 21.7352 21.5687C23.0845 20.2194 23.5017 18.5882 23.5908 16.747C23.6829 15.1618 23.6656 13.5881 23.6656 12ZM12.1636 17.9006C8.89829 17.9006 6.26301 15.2653 6.26301 12C6.26301 8.73467 8.89829 6.09939 12.1636 6.09939C15.429 6.09939 18.0642 8.73467 18.0642 12C18.0642 15.2653 15.429 17.9006 12.1636 17.9006ZM18.3059 7.23578C17.5435 7.23578 16.9278 6.62012 16.9278 5.85773C16.9278 5.09534 17.5435 4.47967 18.3059 4.47967C19.0683 4.47967 19.684 5.09534 19.684 5.85773C19.6842 6.03876 19.6487 6.21806 19.5795 6.38535C19.5103 6.55265 19.4088 6.70465 19.2808 6.83266C19.1528 6.96067 19.0008 7.06217 18.8335 7.13135C18.6662 7.20052 18.4869 7.23601 18.3059 7.23578Z" fill="white"/>
</svg>
