<svg xmlns="http://www.w3.org/2000/svg" width="110" height="97" fill="none" xmlns:v="https://vecta.io/nano"><path d="M36.667 45.947H9.671c.852-6.319 2.877-12.37 5.947-17.767S22.735 18.158 27.5 14.601l8.204-6.126L30.663 0l-8.204 6.126C15.553 11.252 9.89 18.198 5.972 26.347S.003 43.596 0 52.84v33.95c0 2.708.966 5.305 2.685 7.22S6.736 97 9.167 97h27.5c2.431 0 4.763-1.076 6.482-2.991s2.685-4.512 2.685-7.22V56.158c0-2.708-.966-5.305-2.685-7.22s-4.051-2.991-6.482-2.991zm64.166 0H73.838c.852-6.319 2.877-12.37 5.947-17.767s7.117-10.022 11.882-13.579l8.204-6.126L94.875 0l-8.25 6.126c-6.906 5.126-12.569 12.072-16.487 20.22s-5.969 17.249-5.972 26.493v33.95c0 2.708.966 5.305 2.685 7.22S70.902 97 73.333 97h27.5c2.431 0 4.763-1.076 6.482-2.991S110 89.498 110 86.79V56.158c0-2.708-.966-5.305-2.685-7.22s-4.051-2.991-6.482-2.991z" fill="#a9a9a9" fill-opacity=".1"/></svg>