<svg width="45" height="46" viewBox="0 0 45 46" fill="none" xmlns="http://www.w3.org/2000/svg">
<g clip-path="url(#clip0_4194_508)">
<circle cx="22.0498" cy="22.55" r="20.25" fill="#ADEEFF"/>
<path d="M15 17C15 15.0109 15.7902 13.1032 17.1967 11.6967C18.6032 10.2902 20.5109 9.5 22.5 9.5C24.4891 9.5 26.3968 10.2902 27.8033 11.6967C29.2098 13.1032 30 15.0109 30 17C30 18.9891 29.2098 20.8968 27.8033 22.3033C26.3968 23.7098 24.4891 24.5 22.5 24.5C20.5109 24.5 18.6032 23.7098 17.1967 22.3033C15.7902 20.8968 15 18.9891 15 17Z" fill="#2AAFD3"/>
<path fill-rule="evenodd" clip-rule="evenodd" d="M22.5 0.5C16.5326 0.5 10.8097 2.87053 6.5901 7.0901C2.37053 11.3097 0 17.0326 0 23C0 28.9674 2.37053 34.6903 6.5901 38.9099C10.8097 43.1295 16.5326 45.5 22.5 45.5C28.4674 45.5 34.1903 43.1295 38.4099 38.9099C42.6295 34.6903 45 28.9674 45 23C45 17.0326 42.6295 11.3097 38.4099 7.0901C34.1903 2.87053 28.4674 0.5 22.5 0.5ZM3 23C3.00005 19.774 3.80045 16.5984 5.32947 13.7578C6.8585 10.9172 9.06838 8.50036 11.7611 6.72377C14.4538 4.94718 17.5452 3.86638 20.7583 3.57824C23.9714 3.2901 27.2057 3.80361 30.1716 5.07276C33.1374 6.3419 35.7421 8.32703 37.7521 10.8503C39.7621 13.3735 41.1148 16.356 41.6888 19.5305C42.2628 22.705 42.0403 25.9723 41.0412 29.0397C40.0421 32.107 38.2976 34.8786 35.964 37.106C35.74 34.4852 34.5406 32.0439 32.6029 30.265C30.6652 28.4862 28.1304 27.4995 25.5 27.5H19.5C16.8696 27.4995 14.3348 28.4862 12.3971 30.265C10.4594 32.0439 9.25996 34.4852 9.036 37.106C7.12581 35.287 5.60564 33.0985 4.56797 30.6735C3.5303 28.2485 2.99682 25.6377 3 23Z" fill="#2AAFD3" stroke="white"/>
</g>
<defs>
<clipPath id="clip0_4194_508">
<rect width="45" height="45" fill="white" transform="translate(0 0.5)"/>
</clipPath>
</defs>
</svg>
