<svg width="10" height="11" viewBox="0 0 10 11" fill="none" xmlns="http://www.w3.org/2000/svg">
<path d="M5.03614 10.4231C4.27486 10.4282 3.52245 10.2609 2.83614 9.93393C2.79427 9.9133 2.74621 9.9087 2.70114 9.92103L0.287639 10.4901C0.0961395 10.5353 -0.0178606 10.4246 0.0221394 10.2321C0.192139 9.41479 0.362306 8.59745 0.53264 7.78012C0.542187 7.73479 0.534907 7.68757 0.512139 7.64715C0.307923 7.24404 0.163593 6.81371 0.0836395 6.36955C-0.0651034 5.56995 -0.0137293 4.74634 0.23325 3.97105C0.48023 3.19575 0.91526 2.49249 1.50014 1.92301C2.23194 1.20724 3.16885 0.73346 4.18253 0.566568C5.19621 0.399675 6.2371 0.547827 7.16264 0.990735C7.9819 1.37976 8.67836 1.9837 9.17664 2.7372C9.87157 3.78395 10.1397 5.05364 9.92664 6.28917C9.81536 6.95389 9.56628 7.58846 9.19514 8.15273C8.80059 8.75656 8.27901 9.26849 7.66622 9.65338C7.05343 10.0383 6.36396 10.287 5.64514 10.3825C5.44355 10.412 5.23991 10.4256 5.03614 10.4231ZM5.08614 9.3435C5.32033 9.34223 5.55375 9.31679 5.78264 9.26759C6.75068 9.07098 7.60806 8.51858 8.18296 7.72111C8.75785 6.92364 9.00778 5.94003 8.88264 4.96742C8.83795 4.60941 8.74198 4.25956 8.59764 3.92847C8.36401 3.39232 8.01101 2.91566 7.56514 2.53427C7.21207 2.22753 6.80536 1.98756 6.36514 1.82626C5.64864 1.56487 4.87128 1.51456 4.12664 1.68138C3.65868 1.78426 3.21466 1.97435 2.81814 2.24154C2.23039 2.62998 1.76163 3.17135 1.46314 3.80641C1.08069 4.60509 0.985401 5.50965 1.19314 6.36955C1.28414 6.76648 1.45614 7.13264 1.64764 7.49037C1.67408 7.53804 1.6814 7.59386 1.66814 7.64665C1.56814 8.11354 1.47614 8.58191 1.37564 9.04829C1.35864 9.12768 1.38114 9.12718 1.44364 9.1123C1.80964 9.02497 2.17614 8.93963 2.54364 8.8538C2.66414 8.82552 2.78814 8.76598 2.90364 8.77938C3.01914 8.79277 3.12714 8.87861 3.23814 8.93269C3.81183 9.21531 4.44577 9.35641 5.08614 9.344V9.3435Z" fill="#fff"/>
<path d="M2.48367 4.2371C2.46117 3.96074 2.61167 3.69133 2.82367 3.44325C2.91042 3.34422 3.00524 3.25245 3.10717 3.16887C3.30967 3.00018 3.57317 3.05178 3.68517 3.28894C3.82517 3.58664 3.95617 3.88433 4.08517 4.18649C4.11576 4.25288 4.12605 4.32673 4.11476 4.39887C4.10348 4.47101 4.07111 4.53828 4.02167 4.59234C3.95267 4.67719 3.88517 4.76401 3.82467 4.85481C3.78525 4.91152 3.76456 4.97897 3.76545 5.04786C3.76635 5.11674 3.78879 5.18365 3.82967 5.23933C3.96567 5.44181 4.12546 5.62752 4.30567 5.79254C4.59498 6.08146 4.91521 6.33817 5.26067 6.55811C5.3279 6.60084 5.39866 6.63785 5.47217 6.66875C5.5368 6.69777 5.60895 6.706 5.67852 6.6923C5.7481 6.6786 5.81161 6.64365 5.86017 6.59234C5.93567 6.5209 6.00717 6.4435 6.08167 6.37155C6.13239 6.31712 6.19795 6.27848 6.27038 6.26034C6.34281 6.24219 6.419 6.24532 6.48967 6.26935C6.78517 6.35568 7.08117 6.43804 7.37717 6.52139C7.67317 6.60475 7.77067 6.86573 7.59617 7.12025C7.46425 7.32911 7.29636 7.51334 7.10017 7.66453C6.92295 7.7859 6.71522 7.85598 6.50017 7.86697C5.91417 7.91658 5.38367 7.74144 4.89017 7.45268C4.09606 6.99612 3.41936 6.36318 2.91317 5.60351C2.65017 5.20956 2.48317 4.77989 2.48367 4.2371Z" fill="#fff"/>
</svg>
