<svg width="24" height="24" viewBox="0 0 24 24" fill="none" xmlns="http://www.w3.org/2000/svg">
<path d="M21.9464 5.81861C18.5059 0.499824 11.4815 -1.08144 6.03402 2.22484C0.729886 5.53111 -0.990374 12.7187 2.45015 18.0375L2.73686 18.4687L1.59002 22.7812L5.89066 21.6312L6.32073 21.9187C8.18434 22.925 10.1913 23.5 12.1983 23.5C14.3486 23.5 16.4989 22.925 18.3625 21.775C23.6667 18.325 25.2436 11.2812 21.9464 5.81861ZM18.936 16.8874C18.3625 17.75 17.6458 18.325 16.6423 18.4687C16.0689 18.4687 15.3521 18.7562 12.485 17.6062C10.048 16.4562 8.04099 14.5874 6.60744 12.4312C5.74731 11.4249 5.31724 10.1311 5.17389 8.83739C5.17389 7.68738 5.60395 6.68112 6.32073 5.96237C6.60744 5.67486 6.89415 5.53111 7.18086 5.53111H7.89763C8.18434 5.53111 8.47105 5.53111 8.61441 6.10612C8.90112 6.82487 9.61789 8.54989 9.61789 8.69364C9.76125 8.83739 9.76125 9.12489 9.61789 9.26864C9.76125 9.55614 9.61789 9.84365 9.47454 9.9874C9.33118 10.1311 9.18783 10.4187 9.04447 10.5624C8.75776 10.7062 8.61441 10.9937 8.75776 11.2812C9.33118 12.1437 10.048 13.0062 10.7647 13.7249C11.6249 14.4437 12.485 15.0187 13.4885 15.4499C13.7752 15.5937 14.0619 15.5937 14.2053 15.3062C14.3486 15.0187 15.0654 14.2999 15.3521 14.0124C15.6388 13.7249 15.7822 13.7249 16.0689 13.8687L18.3625 15.0187C18.6493 15.1624 18.936 15.3062 19.0793 15.4499C19.2227 15.8812 19.2227 16.4562 18.936 16.8874Z" fill="white"/>
</svg>
