<svg width="1920" height="1070" viewBox="0 0 1920 1070" fill="none" xmlns="http://www.w3.org/2000/svg">
<path d="M1274.02 -1646.43C1379.47 -1661.46 1486.02 -1627.66 1563.52 -1554.59L2219.75 -935.84C2297.24 -862.769 2337.25 -758.385 2328.44 -652.237L2253.83 246.608C2245.02 352.757 2188.36 449.117 2099.87 508.411L1350.61 1010.5C1262.13 1069.8 1151.46 1085.57 1049.93 1053.36L190.226 780.618C88.6988 748.408 7.36454 671.719 -30.7538 572.26L-353.532 -269.941C-391.65 -369.401 -382.403 -480.805 -328.409 -572.619L128.801 -1350.08C182.795 -1441.89 275.66 -1504.12 381.108 -1519.16L1274.02 -1646.43Z" fill="#D1F1F9"/>
</svg>
