<svg width="64" height="64" viewBox="0 0 64 64" fill="none" xmlns="http://www.w3.org/2000/svg">
<rect width="64" height="64" rx="32" fill="#2AAFD3"/>
<path d="M46.625 47L39.3352 39.51M43.375 29.5C43.375 33.2573 41.9198 36.8606 39.3294 39.5174C36.7391 42.1742 33.2258 43.6667 29.5625 43.6667C25.8992 43.6667 22.3859 42.1742 19.7956 39.5174C17.2052 36.8606 15.75 33.2573 15.75 29.5C15.75 25.7428 17.2052 22.1395 19.7956 19.4827C22.3859 16.8259 25.8992 15.3334 29.5625 15.3334C33.2258 15.3334 36.7391 16.8259 39.3294 19.4827C41.9198 22.1395 43.375 25.7428 43.375 29.5V29.5Z" stroke="white" stroke-width="5" stroke-linecap="round"/>
</svg>
