<svg width="1000" height="579" viewBox="0 0 1000 579" fill="none" xmlns="http://www.w3.org/2000/svg">
<g filter="url(#filter0_d)">
<path d="M21.1895 22.0236C21.1895 17.095 25.1839 13.0996 30.1114 13.0996H868.773C873.7 13.0996 877.695 17.095 877.695 22.0236V539.614C877.695 544.543 873.7 548.538 868.773 548.538H30.1114C25.184 548.538 21.1895 544.543 21.1895 539.614V22.0236Z" fill="#EFFAFD"/>
<path fill-rule="evenodd" clip-rule="evenodd" d="M30.1115 11.9102H868.773C874.358 11.9102 878.885 16.4383 878.885 22.024V539.615C878.885 545.2 874.358 549.728 868.773 549.728H30.1115C24.5271 549.728 20 545.2 20 539.615V22.024C20 16.4383 24.5271 11.9102 30.1115 11.9102ZM30.1115 13.1C25.1841 13.1 21.1896 17.0954 21.1896 22.024V539.615C21.1896 544.543 25.1841 548.539 30.1115 548.539H868.773C873.701 548.539 877.695 544.543 877.695 539.615V22.024C877.695 17.0954 873.701 13.1 868.773 13.1H30.1115Z" fill="#2AAFD3"/>
<path d="M21.1895 22.0236C21.1895 17.095 25.1839 13.0996 30.1114 13.0996H868.773C873.7 13.0996 877.695 17.095 877.695 22.0236V54.7448H21.1895V22.0236Z" fill="#2AAFD3"/>
<path fill-rule="evenodd" clip-rule="evenodd" d="M878.885 55.9351H20V22.024C20 16.4383 24.5271 11.9102 30.1115 11.9102H868.773C874.358 11.9102 878.885 16.4383 878.885 22.024V55.9351ZM30.1115 13.1C25.1841 13.1 21.1896 17.0954 21.1896 22.024V54.7452H877.695V22.024C877.695 17.0954 873.701 13.1 868.773 13.1H30.1115Z" fill="#2AAFD3"/>
<path d="M44.9814 114.238C44.9814 112.595 46.3129 111.264 47.9554 111.264H303.717C305.36 111.264 306.691 112.595 306.691 114.238V244.022C306.691 245.664 305.36 246.996 303.717 246.996H47.9554C46.3129 246.996 44.9814 245.664 44.9814 244.022V114.238Z" fill="white"/>
<path fill-rule="evenodd" clip-rule="evenodd" d="M303.717 111.859H47.9554C46.6414 111.859 45.5762 112.924 45.5762 114.238V244.022C45.5762 245.336 46.6414 246.401 47.9554 246.401H303.717C305.031 246.401 306.097 245.336 306.097 244.022V114.238C306.097 112.924 305.031 111.859 303.717 111.859ZM47.9554 111.264C46.3129 111.264 44.9814 112.595 44.9814 114.238V244.022C44.9814 245.664 46.3129 246.996 47.9554 246.996H303.717C305.36 246.996 306.691 245.664 306.691 244.022V114.238C306.691 112.595 305.36 111.264 303.717 111.264H47.9554Z" fill="#2AAFD3"/>
<path d="M62.2305 129.111H141.338V141.01H62.2305V129.111Z" fill="#2AAFD3"/>
<path d="M62.2305 167.188H114.771V182.061H62.2305V167.188Z" fill="#BFD7E9"/>
<path d="M62.2305 186.225H114.771V201.098H62.2305V186.225Z" fill="#BFD7E9"/>
<path fill-rule="evenodd" clip-rule="evenodd" d="M100.892 146.364H62.8253V152.314H100.892V146.364ZM62.2305 145.77V152.909H101.487V145.77H62.2305Z" fill="#BABABB"/>
<path d="M44.9814 261.781C44.9814 260.138 46.3129 258.807 47.9554 258.807H303.717C305.36 258.807 306.691 260.138 306.691 261.781V391.565C306.691 393.207 305.36 394.539 303.717 394.539H47.9554C46.3129 394.539 44.9814 393.207 44.9814 391.565V261.781Z" fill="white"/>
<path fill-rule="evenodd" clip-rule="evenodd" d="M303.717 259.402H47.9554C46.6414 259.402 45.5762 260.467 45.5762 261.781V391.565C45.5762 392.879 46.6414 393.944 47.9554 393.944H303.717C305.031 393.944 306.097 392.879 306.097 391.565V261.781C306.097 260.467 305.031 259.402 303.717 259.402ZM47.9554 258.807C46.3129 258.807 44.9814 260.138 44.9814 261.781V391.565C44.9814 393.207 46.3129 394.539 47.9554 394.539H303.717C305.36 394.539 306.691 393.207 306.691 391.565V261.781C306.691 260.138 305.36 258.807 303.717 258.807H47.9554Z" fill="#2AAFD3"/>
<path d="M62.2305 276.654H141.338V288.553H62.2305V276.654Z" fill="#2AAFD3"/>
<path d="M62.2305 314.73H114.771V329.604H62.2305V314.73Z" fill="#BFD7E9"/>
<path d="M62.2305 333.768H114.771V348.641H62.2305V333.768Z" fill="#BFD7E9"/>
<path fill-rule="evenodd" clip-rule="evenodd" d="M100.892 293.907H62.8253V299.857H100.892V293.907ZM62.2305 293.312V300.452H101.487V293.312H62.2305Z" fill="#BABABB"/>
<path d="M318.587 114.238C318.587 112.595 319.918 111.264 321.561 111.264H577.323C578.965 111.264 580.297 112.595 580.297 114.238V244.022C580.297 245.664 578.965 246.996 577.323 246.996H321.561C319.918 246.996 318.587 245.664 318.587 244.022V114.238Z" fill="white"/>
<path fill-rule="evenodd" clip-rule="evenodd" d="M577.323 111.859H321.561C320.247 111.859 319.182 112.924 319.182 114.238V244.022C319.182 245.336 320.247 246.401 321.561 246.401H577.323C578.637 246.401 579.702 245.336 579.702 244.022V114.238C579.702 112.924 578.637 111.859 577.323 111.859ZM321.561 111.264C319.918 111.264 318.587 112.595 318.587 114.238V244.022C318.587 245.664 319.918 246.996 321.561 246.996H577.323C578.965 246.996 580.297 245.664 580.297 244.022V114.238C580.297 112.595 578.965 111.264 577.323 111.264H321.561Z" fill="#2AAFD3"/>
<path d="M335.836 129.111H414.944V141.01H335.836V129.111Z" fill="#2AAFD3"/>
<path d="M335.836 167.188H388.376V182.061H335.836V167.188Z" fill="#BFD7E9"/>
<path d="M335.836 186.225H388.376V201.098H335.836V186.225Z" fill="#BFD7E9"/>
<path fill-rule="evenodd" clip-rule="evenodd" d="M374.498 146.364H336.431V152.314H374.498V146.364ZM335.836 145.77V152.909H375.092V145.77H335.836Z" fill="#BABABB"/>
<path d="M318.587 261.781C318.587 260.138 319.918 258.807 321.561 258.807H577.323C578.965 258.807 580.297 260.138 580.297 261.781V391.565C580.297 393.207 578.965 394.539 577.323 394.539H321.561C319.918 394.539 318.587 393.207 318.587 391.565V261.781Z" fill="white"/>
<path fill-rule="evenodd" clip-rule="evenodd" d="M577.323 259.402H321.561C320.247 259.402 319.182 260.467 319.182 261.781V391.565C319.182 392.879 320.247 393.944 321.561 393.944H577.323C578.637 393.944 579.702 392.879 579.702 391.565V261.781C579.702 260.467 578.637 259.402 577.323 259.402ZM321.561 258.807C319.918 258.807 318.587 260.138 318.587 261.781V391.565C318.587 393.207 319.918 394.539 321.561 394.539H577.323C578.965 394.539 580.297 393.207 580.297 391.565V261.781C580.297 260.138 578.965 258.807 577.323 258.807H321.561Z" fill="#2AAFD3"/>
<path d="M335.836 276.654H414.944V288.553H335.836V276.654Z" fill="#2AAFD3"/>
<path d="M335.836 314.73H388.376V329.604H335.836V314.73Z" fill="#BFD7E9"/>
<path d="M335.836 333.768H388.376V348.641H335.836V333.768Z" fill="#BFD7E9"/>
<path fill-rule="evenodd" clip-rule="evenodd" d="M374.498 293.907H336.431V299.857H374.498V293.907ZM335.836 293.312V300.452H375.092V293.312H335.836Z" fill="#BABABB"/>
<path d="M592.193 114.238C592.193 112.595 593.525 111.264 595.167 111.264H850.929C852.572 111.264 853.903 112.595 853.903 114.238V244.022C853.903 245.664 852.572 246.996 850.929 246.996H595.167C593.525 246.996 592.193 245.664 592.193 244.022V114.238Z" fill="white"/>
<path fill-rule="evenodd" clip-rule="evenodd" d="M850.929 111.859H595.167C593.853 111.859 592.788 112.924 592.788 114.238V244.022C592.788 245.336 593.853 246.401 595.167 246.401H850.929C852.243 246.401 853.309 245.336 853.309 244.022V114.238C853.309 112.924 852.243 111.859 850.929 111.859ZM595.167 111.264C593.525 111.264 592.193 112.595 592.193 114.238V244.022C592.193 245.664 593.525 246.996 595.167 246.996H850.929C852.572 246.996 853.903 245.664 853.903 244.022V114.238C853.903 112.595 852.572 111.264 850.929 111.264H595.167Z" fill="#2AAFD3"/>
<path d="M609.442 129.111H688.55V141.01H609.442V129.111Z" fill="#2AAFD3"/>
<path d="M609.442 167.188H661.983V182.061H609.442V167.188Z" fill="#BFD7E9"/>
<path d="M609.442 186.225H661.983V201.098H609.442V186.225Z" fill="#BFD7E9"/>
<path fill-rule="evenodd" clip-rule="evenodd" d="M648.104 146.364H610.037V152.314H648.104V146.364ZM609.442 145.77V152.909H648.699V145.77H609.442Z" fill="#BABABB"/>
<path d="M592.193 261.781C592.193 260.138 593.525 258.807 595.167 258.807H850.929C852.572 258.807 853.903 260.138 853.903 261.781V391.565C853.903 393.207 852.572 394.539 850.929 394.539H595.167C593.525 394.539 592.193 393.207 592.193 391.565V261.781Z" fill="white"/>
<path fill-rule="evenodd" clip-rule="evenodd" d="M850.929 259.402H595.167C593.853 259.402 592.788 260.467 592.788 261.781V391.565C592.788 392.879 593.853 393.944 595.167 393.944H850.929C852.243 393.944 853.309 392.879 853.309 391.565V261.781C853.309 260.467 852.243 259.402 850.929 259.402ZM595.167 258.807C593.525 258.807 592.193 260.138 592.193 261.781V391.565C592.193 393.207 593.525 394.539 595.167 394.539H850.929C852.572 394.539 853.903 393.207 853.903 391.565V261.781C853.903 260.138 852.572 258.807 850.929 258.807H595.167Z" fill="#2AAFD3"/>
<path d="M609.442 276.654H688.55V288.553H609.442V276.654Z" fill="#2AAFD3"/>
<path d="M609.442 314.73H661.983V329.604H609.442V314.73Z" fill="#BFD7E9"/>
<path d="M609.442 333.768H661.983V348.641H609.442V333.768Z" fill="#BFD7E9"/>
<path fill-rule="evenodd" clip-rule="evenodd" d="M648.104 293.907H610.037V299.857H648.104V293.907ZM609.442 293.312V300.452H648.699V293.312H609.442Z" fill="#BABABB"/>
<path d="M62.2301 34.2191C62.2301 40.2977 57.3036 45.2254 51.2264 45.2254C45.1492 45.2254 40.2227 40.2977 40.2227 34.2191C40.2227 28.1406 45.1492 23.2129 51.2264 23.2129C57.3036 23.2129 62.2301 28.1406 62.2301 34.2191Z" fill="#EFFAFD"/>
<path d="M68.7734 28.5684H137.77V39.2771H68.7734V28.5684Z" fill="#EFFAFD"/>
<path d="M21.1895 54.7461H877.695V90.442H21.1895V54.7461Z" fill="white"/>
<path d="M844.387 26.7832H859.257V41.6565H844.387V26.7832Z" fill="#EFFAFD"/>
<path d="M820.595 26.7832H835.465V41.6565H820.595V26.7832Z" fill="#EFFAFD"/>
<path d="M796.803 26.7832H811.673V41.6565H796.803V26.7832Z" fill="#EFFAFD"/>
<path d="M74.7921 79.1378L73.5264 75.7062H68.9298L67.6641 79.1378H65.7988L70.3121 67.1939H72.1774L76.6741 79.1378H74.7921ZM71.8277 70.7921C71.7944 70.6699 71.7333 70.4867 71.6445 70.2423C71.5668 69.998 71.489 69.7426 71.4113 69.4761C71.3336 69.2095 71.2725 68.993 71.2281 68.8264C71.1393 69.1707 71.0394 69.5371 70.9283 69.9258C70.8173 70.3145 70.7285 70.6033 70.6619 70.7921L69.4628 74.1403H73.0268L71.8277 70.7921Z" fill="#2AAFD3"/>
<path d="M81.6919 79.3043C80.4484 79.3043 79.4492 78.9379 78.6942 78.2049C77.9392 77.4608 77.5617 76.2948 77.5617 74.7067C77.5617 73.5962 77.7449 72.6966 78.1113 72.0081C78.4777 71.3196 78.9829 70.8143 79.6268 70.4922C80.2708 70.159 81.0036 69.9925 81.8252 69.9925C82.3248 69.9925 82.7911 70.048 83.2241 70.159C83.6683 70.259 84.0347 70.3756 84.3233 70.5089L83.7904 71.9415C83.4795 71.8193 83.1464 71.7138 82.7911 71.625C82.4469 71.5361 82.1194 71.4917 81.8085 71.4917C80.1875 71.4917 79.377 72.5578 79.377 74.6901C79.377 75.7117 79.5769 76.4891 79.9766 77.0222C80.3763 77.5552 80.9647 77.8218 81.7419 77.8218C82.2415 77.8218 82.6801 77.7662 83.0576 77.6552C83.4462 77.5441 83.8015 77.3998 84.1235 77.2221V78.7546C83.8015 78.9434 83.4518 79.0822 83.0743 79.1711C82.6968 79.2599 82.236 79.3043 81.6919 79.3043Z" fill="#2AAFD3"/>
<path d="M89.8564 79.3043C88.6129 79.3043 87.6137 78.9379 86.8587 78.2049C86.1037 77.4608 85.7262 76.2948 85.7262 74.7067C85.7262 73.5962 85.9094 72.6966 86.2758 72.0081C86.6422 71.3196 87.1474 70.8143 87.7913 70.4922C88.4353 70.159 89.1681 69.9925 89.9897 69.9925C90.4893 69.9925 90.9556 70.048 91.3886 70.159C91.8328 70.259 92.1992 70.3756 92.4878 70.5089L91.9549 71.9415C91.644 71.8193 91.3109 71.7138 90.9556 71.625C90.6114 71.5361 90.2839 71.4917 89.973 71.4917C88.352 71.4917 87.5415 72.5578 87.5415 74.6901C87.5415 75.7117 87.7414 76.4891 88.1411 77.0222C88.5408 77.5552 89.1292 77.8218 89.9064 77.8218C90.406 77.8218 90.8446 77.7662 91.2221 77.6552C91.6107 77.5441 91.966 77.3998 92.288 77.2221V78.7546C91.966 78.9434 91.6162 79.0822 91.2388 79.1711C90.8613 79.2599 90.4005 79.3043 89.8564 79.3043Z" fill="#2AAFD3"/>
<path d="M102.318 74.6401C102.318 76.1282 101.935 77.2776 101.169 78.0883C100.403 78.899 99.3699 79.3043 98.0709 79.3043C97.2604 79.3043 96.5387 79.1211 95.9059 78.7546C95.2841 78.3881 94.79 77.8606 94.4236 77.1721C94.0683 76.4725 93.8907 75.6285 93.8907 74.6401C93.8907 73.152 94.2682 72.0081 95.0232 71.2085C95.7782 70.3978 96.8107 69.9925 98.1209 69.9925C98.9425 69.9925 99.6642 70.1757 100.286 70.5422C100.919 70.8976 101.413 71.4195 101.768 72.108C102.135 72.7966 102.318 73.6406 102.318 74.6401ZM95.706 74.6401C95.706 75.6507 95.8948 76.4392 96.2722 77.0055C96.6608 77.5719 97.2715 77.8551 98.1042 77.8551C98.9369 77.8551 99.542 77.5719 99.9195 77.0055C100.308 76.4392 100.502 75.6507 100.502 74.6401C100.502 73.6184 100.308 72.8355 99.9195 72.2913C99.5309 71.736 98.9203 71.4584 98.0876 71.4584C97.2549 71.4584 96.6497 71.736 96.2722 72.2913C95.8948 72.8355 95.706 73.6184 95.706 74.6401Z" fill="#2AAFD3"/>
<path d="M112.283 70.159V79.1378H110.868L110.618 77.955H110.535C110.246 78.4215 109.846 78.7657 109.335 78.9878C108.825 79.1988 108.286 79.3043 107.72 79.3043C106.665 79.3043 105.86 79.0434 105.305 78.5214C104.75 77.9995 104.472 77.1721 104.472 76.0394V70.159H106.254V75.7728C106.254 77.161 106.86 77.8551 108.07 77.8551C108.991 77.8551 109.63 77.583 109.985 77.0388C110.34 76.4947 110.518 75.7173 110.518 74.7067V70.159H112.283Z" fill="#2AAFD3"/>
<path d="M119.593 69.9925C120.636 69.9925 121.436 70.2534 121.991 70.7754C122.546 71.2974 122.823 72.1358 122.823 73.2908V79.1378H121.075V73.5406C121.075 72.1414 120.459 71.4417 119.226 71.4417C118.305 71.4417 117.672 71.7138 117.328 72.258C116.983 72.8021 116.811 73.5851 116.811 74.6068V79.1378H115.046V70.159H116.445L116.695 71.3584H116.795C117.083 70.892 117.477 70.5477 117.977 70.3256C118.488 70.1035 119.026 69.9925 119.593 69.9925Z" fill="#2AAFD3"/>
<path d="M128.767 77.8717C129 77.8717 129.239 77.8551 129.483 77.8218C129.727 77.7774 129.938 77.7218 130.116 77.6552V78.9878C129.916 79.0767 129.655 79.1489 129.333 79.2044C129.022 79.271 128.706 79.3043 128.384 79.3043C127.896 79.3043 127.446 79.2211 127.035 79.0545C126.624 78.8879 126.297 78.5992 126.052 78.1883C125.819 77.7774 125.703 77.2054 125.703 76.4725V71.5084H124.454V70.7088L125.769 70.0424L126.386 68.1434H127.468V70.159H130.033V71.5084H127.468V76.4392C127.468 76.9278 127.585 77.2887 127.818 77.5219C128.062 77.7551 128.378 77.8717 128.767 77.8717Z" fill="#2AAFD3"/>
<path d="M132.811 66.7441C133.077 66.7441 133.311 66.8219 133.51 66.9774C133.71 67.1328 133.81 67.3938 133.81 67.7603C133.81 68.1157 133.71 68.3766 133.51 68.5432C133.311 68.6987 133.077 68.7764 132.811 68.7764C132.522 68.7764 132.278 68.6987 132.078 68.5432C131.889 68.3766 131.795 68.1157 131.795 67.7603C131.795 67.3938 131.889 67.1328 132.078 66.9774C132.278 66.8219 132.522 66.7441 132.811 66.7441ZM133.677 70.159V79.1378H131.912V70.159H133.677Z" fill="#2AAFD3"/>
<path d="M140.996 69.9925C142.04 69.9925 142.839 70.2534 143.394 70.7754C143.949 71.2974 144.227 72.1358 144.227 73.2908V79.1378H142.478V73.5406C142.478 72.1414 141.862 71.4417 140.629 71.4417C139.708 71.4417 139.075 71.7138 138.731 72.258C138.387 72.8021 138.215 73.5851 138.215 74.6068V79.1378H136.449V70.159H137.848L138.098 71.3584H138.198C138.487 70.892 138.881 70.5477 139.38 70.3256C139.891 70.1035 140.43 69.9925 140.996 69.9925Z" fill="#2AAFD3"/>
<path d="M150.037 69.9925C151.225 69.9925 152.141 70.4422 152.785 71.3418H152.868L153.068 70.159H154.501V79.2544C154.501 80.5315 154.156 81.4977 153.468 82.1529C152.791 82.8081 151.753 83.1357 150.354 83.1357C149.699 83.1357 149.099 83.0913 148.555 83.0024C148.022 82.9136 147.528 82.7748 147.073 82.586V81.0368C148.028 81.5032 149.155 81.7364 150.454 81.7364C151.186 81.7364 151.753 81.5254 152.152 81.1034C152.552 80.6925 152.752 80.1095 152.752 79.3543V79.0545C152.752 78.9101 152.757 78.7213 152.768 78.4881C152.78 78.2549 152.791 78.0772 152.802 77.955H152.735C152.435 78.4215 152.058 78.7657 151.603 78.9878C151.147 79.1988 150.626 79.3043 150.037 79.3043C148.905 79.3043 148.016 78.899 147.373 78.0883C146.74 77.2665 146.423 76.1282 146.423 74.6734C146.423 73.2297 146.74 72.0914 147.373 71.2585C148.016 70.4145 148.905 69.9925 150.037 69.9925ZM150.404 71.4584C149.704 71.4584 149.166 71.736 148.788 72.2913C148.422 72.8466 148.239 73.6461 148.239 74.6901C148.239 75.734 148.422 76.528 148.788 77.0722C149.166 77.6163 149.715 77.8884 150.437 77.8884C151.258 77.8884 151.858 77.6663 152.236 77.2221C152.624 76.7668 152.818 76.0283 152.818 75.0066V74.6734C152.818 73.5295 152.624 72.7077 152.236 72.208C151.847 71.7083 151.236 71.4584 150.404 71.4584Z" fill="#2AAFD3"/>
<path d="M40.2227 68.6112C40.2227 67.853 40.8372 67.2383 41.5953 67.2383H45.164C45.9221 67.2383 46.5366 67.853 46.5366 68.6112V70.8079C46.5366 71.5661 45.9221 72.1808 45.164 72.1808H41.5953C40.8372 72.1808 40.2227 71.5661 40.2227 70.8079V68.6112Z" fill="#2AAFD3"/>
<path d="M40.2227 74.3775C40.2227 73.6192 40.8372 73.0045 41.5953 73.0045H45.164C45.9221 73.0045 46.5366 73.6192 46.5366 74.3775V76.5741C46.5366 77.3324 45.9221 77.9471 45.164 77.9471H41.5953C40.8372 77.9471 40.2227 77.3324 40.2227 76.5741V74.3775Z" fill="#2AAFD3"/>
<path d="M47.3602 68.6112C47.3602 67.853 47.9747 67.2383 48.7328 67.2383H52.3016C53.0597 67.2383 53.6742 67.853 53.6742 68.6112V70.8079C53.6742 71.5661 53.0597 72.1808 52.3016 72.1808H48.7328C47.9747 72.1808 47.3602 71.5661 47.3602 70.8079V68.6112Z" fill="#2AAFD3"/>
<path d="M47.3602 74.3775C47.3602 73.6192 47.9747 73.0045 48.7328 73.0045H52.3016C53.0597 73.0045 53.6742 73.6192 53.6742 74.3775V76.5741C53.6742 77.3324 53.0597 77.9471 52.3016 77.9471H48.7328C47.9747 77.9471 47.3602 77.3324 47.3602 76.5741V74.3775Z" fill="#2AAFD3"/>
<path fill-rule="evenodd" clip-rule="evenodd" d="M944.312 171.352C962.708 171.352 977.62 156.436 977.62 138.036C977.62 119.636 962.708 104.72 944.312 104.72C925.916 104.72 911.003 119.636 911.003 138.036C911.003 156.436 925.916 171.352 944.312 171.352ZM944.312 173.732C964.022 173.732 980 157.75 980 138.036C980 118.321 964.022 102.34 944.312 102.34C924.602 102.34 908.624 118.321 908.624 138.036C908.624 157.75 924.602 173.732 944.312 173.732Z" fill="#6F7070"/>
<path fill-rule="evenodd" clip-rule="evenodd" d="M928.45 119.129C928.45 117.304 929.93 115.824 931.755 115.824H956.868C958.693 115.824 960.173 117.304 960.173 119.129V156.147C960.173 157.973 958.693 159.453 956.868 159.453H931.755C929.93 159.453 928.45 157.973 928.45 156.147V119.129ZM931.755 117.146C930.66 117.146 929.772 118.034 929.772 119.129V156.147C929.772 157.243 930.66 158.13 931.755 158.13H956.868C957.963 158.13 958.851 157.243 958.851 156.147V119.129C958.851 118.034 957.963 117.146 956.868 117.146H931.755Z" fill="#6F7070"/>
<path fill-rule="evenodd" clip-rule="evenodd" d="M932.68 121.509C932.68 120.998 933.094 120.584 933.605 120.584H955.018C955.529 120.584 955.943 120.998 955.943 121.509V128.384C955.943 128.895 955.529 129.31 955.018 129.31H933.605C933.094 129.31 932.68 128.895 932.68 128.384V121.509ZM933.605 121.377C933.532 121.377 933.473 121.436 933.473 121.509V128.384C933.473 128.457 933.532 128.516 933.605 128.516H955.018C955.091 128.516 955.15 128.457 955.15 128.384V121.509C955.15 121.436 955.091 121.377 955.018 121.377H933.605Z" fill="#6F7070"/>
<path fill-rule="evenodd" clip-rule="evenodd" d="M932.68 132.086C932.68 131.574 933.094 131.16 933.605 131.16H937.835C938.346 131.16 938.76 131.574 938.76 132.086V134.994C938.76 135.505 938.346 135.92 937.835 135.92H933.605C933.094 135.92 932.68 135.505 932.68 134.994V132.086ZM933.605 131.953C933.532 131.953 933.473 132.013 933.473 132.086V134.994C933.473 135.067 933.532 135.126 933.605 135.126H937.835C937.908 135.126 937.967 135.067 937.967 134.994V132.086C937.967 132.013 937.908 131.953 937.835 131.953H933.605Z" fill="#6F7070"/>
<path fill-rule="evenodd" clip-rule="evenodd" d="M932.68 138.697C932.68 138.186 933.094 137.771 933.605 137.771H937.835C938.346 137.771 938.76 138.186 938.76 138.697V141.606C938.76 142.117 938.346 142.531 937.835 142.531H933.605C933.094 142.531 932.68 142.117 932.68 141.606V138.697ZM933.605 138.565C933.532 138.565 933.473 138.624 933.473 138.697V141.606C933.473 141.679 933.532 141.738 933.605 141.738H937.835C937.908 141.738 937.967 141.679 937.967 141.606V138.697C937.967 138.624 937.908 138.565 937.835 138.565H933.605Z" fill="#6F7070"/>
<path fill-rule="evenodd" clip-rule="evenodd" d="M932.68 145.306C932.68 144.795 933.094 144.381 933.605 144.381H937.835C938.346 144.381 938.76 144.795 938.76 145.306V148.215C938.76 148.726 938.346 149.14 937.835 149.14H933.605C933.094 149.14 932.68 148.726 932.68 148.215V145.306ZM933.605 145.174C933.532 145.174 933.473 145.233 933.473 145.306V148.215C933.473 148.288 933.532 148.347 933.605 148.347H937.835C937.908 148.347 937.967 148.288 937.967 148.215V145.306C937.967 145.233 937.908 145.174 937.835 145.174H933.605Z" fill="#6F7070"/>
<path fill-rule="evenodd" clip-rule="evenodd" d="M932.68 151.918C932.68 151.407 933.094 150.992 933.605 150.992H937.835C938.346 150.992 938.76 151.407 938.76 151.918V154.826C938.76 155.337 938.346 155.752 937.835 155.752H933.605C933.094 155.752 932.68 155.337 932.68 154.826V151.918ZM933.605 151.785C933.532 151.785 933.473 151.845 933.473 151.918V154.826C933.473 154.899 933.532 154.958 933.605 154.958H937.835C937.908 154.958 937.967 154.899 937.967 154.826V151.918C937.967 151.845 937.908 151.785 937.835 151.785H933.605Z" fill="#6F7070"/>
<path fill-rule="evenodd" clip-rule="evenodd" d="M941.14 132.086C941.14 131.574 941.554 131.16 942.065 131.16H946.295C946.806 131.16 947.22 131.574 947.22 132.086V134.994C947.22 135.505 946.806 135.92 946.295 135.92H942.065C941.554 135.92 941.14 135.505 941.14 134.994V132.086ZM942.065 131.953C941.992 131.953 941.933 132.013 941.933 132.086V134.994C941.933 135.067 941.992 135.126 942.065 135.126H946.295C946.368 135.126 946.427 135.067 946.427 134.994V132.086C946.427 132.013 946.368 131.953 946.295 131.953H942.065Z" fill="#6F7070"/>
<path fill-rule="evenodd" clip-rule="evenodd" d="M941.14 138.697C941.14 138.186 941.554 137.771 942.065 137.771H946.295C946.806 137.771 947.22 138.186 947.22 138.697V141.606C947.22 142.117 946.806 142.531 946.295 142.531H942.065C941.554 142.531 941.14 142.117 941.14 141.606V138.697ZM942.065 138.565C941.992 138.565 941.933 138.624 941.933 138.697V141.606C941.933 141.679 941.992 141.738 942.065 141.738H946.295C946.368 141.738 946.427 141.679 946.427 141.606V138.697C946.427 138.624 946.368 138.565 946.295 138.565H942.065Z" fill="#6F7070"/>
<path fill-rule="evenodd" clip-rule="evenodd" d="M941.14 145.306C941.14 144.795 941.554 144.381 942.065 144.381H946.295C946.806 144.381 947.22 144.795 947.22 145.306V148.215C947.22 148.726 946.806 149.14 946.295 149.14H942.065C941.554 149.14 941.14 148.726 941.14 148.215V145.306ZM942.065 145.174C941.992 145.174 941.933 145.233 941.933 145.306V148.215C941.933 148.288 941.992 148.347 942.065 148.347H946.295C946.368 148.347 946.427 148.288 946.427 148.215V145.306C946.427 145.233 946.368 145.174 946.295 145.174H942.065Z" fill="#6F7070"/>
<path fill-rule="evenodd" clip-rule="evenodd" d="M941.14 151.918C941.14 151.407 941.554 150.992 942.065 150.992H946.295C946.806 150.992 947.22 151.407 947.22 151.918V154.826C947.22 155.337 946.806 155.752 946.295 155.752H942.065C941.554 155.752 941.14 155.337 941.14 154.826V151.918ZM942.065 151.785C941.992 151.785 941.933 151.845 941.933 151.918V154.826C941.933 154.899 941.992 154.958 942.065 154.958H946.295C946.368 154.958 946.427 154.899 946.427 154.826V151.918C946.427 151.845 946.368 151.785 946.295 151.785H942.065Z" fill="#6F7070"/>
<path fill-rule="evenodd" clip-rule="evenodd" d="M949.863 132.086C949.863 131.574 950.278 131.16 950.789 131.16H955.018C955.529 131.16 955.943 131.574 955.943 132.086V134.994C955.943 135.505 955.529 135.92 955.018 135.92H950.789C950.278 135.92 949.863 135.505 949.863 134.994V132.086ZM950.789 131.953C950.716 131.953 950.656 132.013 950.656 132.086V134.994C950.656 135.067 950.716 135.126 950.789 135.126H955.018C955.091 135.126 955.15 135.067 955.15 134.994V132.086C955.15 132.013 955.091 131.953 955.018 131.953H950.789Z" fill="#6F7070"/>
<path fill-rule="evenodd" clip-rule="evenodd" d="M949.863 138.697C949.863 138.186 950.278 137.771 950.789 137.771H955.018C955.529 137.771 955.943 138.186 955.943 138.697V141.606C955.943 142.117 955.529 142.531 955.018 142.531H950.789C950.278 142.531 949.863 142.117 949.863 141.606V138.697ZM950.789 138.565C950.716 138.565 950.656 138.624 950.656 138.697V141.606C950.656 141.679 950.716 141.738 950.789 141.738H955.018C955.091 141.738 955.15 141.679 955.15 141.606V138.697C955.15 138.624 955.091 138.565 955.018 138.565H950.789Z" fill="#6F7070"/>
<path fill-rule="evenodd" clip-rule="evenodd" d="M949.863 145.306C949.863 144.795 950.278 144.381 950.789 144.381H955.018C955.529 144.381 955.943 144.795 955.943 145.306V154.825C955.943 155.336 955.529 155.751 955.018 155.751H950.789C950.278 155.751 949.863 155.336 949.863 154.825V145.306ZM950.789 145.174C950.716 145.174 950.656 145.233 950.656 145.306V154.825C950.656 154.898 950.716 154.957 950.789 154.957H955.018C955.091 154.957 955.15 154.898 955.15 154.825V145.306C955.15 145.233 955.091 145.174 955.018 145.174H950.789Z" fill="#6F7070"/>
<path fill-rule="evenodd" clip-rule="evenodd" d="M944.312 254.643C962.708 254.643 977.62 239.727 977.62 221.327C977.62 202.927 962.708 188.011 944.312 188.011C925.916 188.011 911.003 202.927 911.003 221.327C911.003 239.727 925.916 254.643 944.312 254.643ZM944.312 257.023C964.022 257.023 980 241.041 980 221.327C980 201.612 964.022 185.631 944.312 185.631C924.602 185.631 908.624 201.612 908.624 221.327C908.624 241.041 924.602 257.023 944.312 257.023Z" fill="#6F7070"/>
<path fill-rule="evenodd" clip-rule="evenodd" d="M929.244 199.115H959.645V242.744H929.244V199.115ZM930.566 200.437V241.422H958.323V200.437H930.566Z" fill="#6F7070"/>
<path d="M935.226 230.979C935.783 230.979 936.193 231.082 936.457 231.289C936.726 231.497 936.86 231.812 936.86 232.235C936.86 232.458 936.817 232.647 936.732 232.802C936.651 232.952 936.545 233.076 936.415 233.174C936.285 233.267 936.149 233.342 936.006 233.399L937.226 235.332H936.47L935.421 233.57H934.665V235.332H934.007V230.979H935.226ZM935.183 231.539H934.665V233.021H935.214C935.551 233.021 935.797 232.958 935.952 232.832C936.106 232.702 936.183 232.511 936.183 232.259C936.183 231.999 936.102 231.814 935.939 231.704C935.777 231.594 935.525 231.539 935.183 231.539Z" fill="#6F7070"/>
<path d="M938.822 231.985C939.216 231.985 939.533 232.127 939.773 232.411C940.017 232.696 940.138 233.121 940.138 233.686C940.138 234.243 940.017 234.668 939.773 234.96C939.529 235.249 939.21 235.393 938.816 235.393C938.564 235.393 938.358 235.348 938.2 235.259C938.045 235.166 937.921 235.056 937.828 234.93H937.785C937.798 235.003 937.808 235.09 937.816 235.192C937.824 235.29 937.828 235.377 937.828 235.454V236.796H937.182V232.046H937.706L937.798 232.485H937.828C937.921 232.346 938.045 232.229 938.2 232.131C938.358 232.033 938.566 231.985 938.822 231.985ZM938.669 232.515C938.364 232.515 938.149 232.605 938.023 232.783C937.897 232.958 937.832 233.224 937.828 233.582V233.68C937.828 234.058 937.889 234.35 938.011 234.558C938.133 234.761 938.356 234.863 938.681 234.863C938.95 234.863 939.149 234.753 939.279 234.533C939.409 234.314 939.474 234.027 939.474 233.674C939.474 233.316 939.409 233.033 939.279 232.826C939.149 232.619 938.946 232.515 938.669 232.515Z" fill="#6F7070"/>
<path d="M934.007 206.615H955.155V207.937H934.007V206.615Z" fill="#6F7070"/>
<path fill-rule="evenodd" clip-rule="evenodd" d="M933.874 211.133H943.655V213.865H933.874V211.133ZM934.138 211.397V213.601H943.391V211.397H934.138Z" fill="#6F7070"/>
<path fill-rule="evenodd" clip-rule="evenodd" d="M933.874 213.602H943.655V216.334H933.874V213.602ZM934.138 213.866V216.069H943.391V213.866H934.138Z" fill="#6F7070"/>
<path fill-rule="evenodd" clip-rule="evenodd" d="M933.874 216.068H943.655V218.801H933.874V216.068ZM934.138 216.333V218.536H943.391V216.333H934.138Z" fill="#6F7070"/>
<path fill-rule="evenodd" clip-rule="evenodd" d="M933.874 218.537H943.655V221.269H933.874V218.537ZM934.138 218.802V221.005H943.391V218.802H934.138Z" fill="#6F7070"/>
<path fill-rule="evenodd" clip-rule="evenodd" d="M933.874 221.004H943.655V223.736H933.874V221.004ZM934.138 221.268V223.472H943.391V221.268H934.138Z" fill="#6F7070"/>
<path fill-rule="evenodd" clip-rule="evenodd" d="M933.874 223.473H943.655V226.205H933.874V223.473ZM934.138 223.737V225.941H943.391V223.737H934.138Z" fill="#6F7070"/>
<path fill-rule="evenodd" clip-rule="evenodd" d="M943.392 211.133H948.943V213.865H943.392V211.133ZM943.656 211.397V213.601H948.679V211.397H943.656Z" fill="#6F7070"/>
<path fill-rule="evenodd" clip-rule="evenodd" d="M943.392 213.602H948.943V216.334H943.392V213.602ZM943.656 213.866V216.069H948.679V213.866H943.656Z" fill="#6F7070"/>
<path fill-rule="evenodd" clip-rule="evenodd" d="M943.392 216.068H948.943V218.801H943.392V216.068ZM943.656 216.333V218.536H948.679V216.333H943.656Z" fill="#6F7070"/>
<path fill-rule="evenodd" clip-rule="evenodd" d="M943.392 218.537H948.943V221.269H943.392V218.537ZM943.656 218.802V221.005H948.679V218.802H943.656Z" fill="#6F7070"/>
<path fill-rule="evenodd" clip-rule="evenodd" d="M943.392 221.004H948.943V223.736H943.392V221.004ZM943.656 221.268V223.472H948.679V221.268H943.656Z" fill="#6F7070"/>
<path fill-rule="evenodd" clip-rule="evenodd" d="M943.392 223.473H948.943V226.205H943.392V223.473ZM943.656 223.737V225.941H948.679V223.737H943.656Z" fill="#6F7070"/>
<path fill-rule="evenodd" clip-rule="evenodd" d="M948.678 211.133H955.287V213.865H948.678V211.133ZM948.942 211.397V213.601H955.022V211.397H948.942Z" fill="#6F7070"/>
<path fill-rule="evenodd" clip-rule="evenodd" d="M948.678 213.602H955.287V216.334H948.678V213.602ZM948.942 213.866V216.069H955.022V213.866H948.942Z" fill="#6F7070"/>
<path fill-rule="evenodd" clip-rule="evenodd" d="M948.678 216.068H955.287V218.801H948.678V216.068ZM948.942 216.333V218.536H955.022V216.333H948.942Z" fill="#6F7070"/>
<path fill-rule="evenodd" clip-rule="evenodd" d="M948.678 218.537H955.287V221.269H948.678V218.537ZM948.942 218.802V221.005H955.022V218.802H948.942Z" fill="#6F7070"/>
<path fill-rule="evenodd" clip-rule="evenodd" d="M948.678 221.004H955.287V223.736H948.678V221.004ZM948.942 221.268V223.472H955.022V221.268H948.942Z" fill="#6F7070"/>
<path fill-rule="evenodd" clip-rule="evenodd" d="M948.678 223.473H955.287V226.205H948.678V223.473ZM948.942 223.737V225.941H955.022V223.737H948.942Z" fill="#6F7070"/>
<path fill-rule="evenodd" clip-rule="evenodd" d="M948.678 226.086H955.287V228.818H948.678V226.086ZM948.942 226.35V228.554H955.022V226.35H948.942Z" fill="#6F7070"/>
<path fill-rule="evenodd" clip-rule="evenodd" d="M944.312 337.932C962.708 337.932 977.62 323.016 977.62 304.616C977.62 286.216 962.708 271.3 944.312 271.3C925.916 271.3 911.003 286.216 911.003 304.616C911.003 323.016 925.916 337.932 944.312 337.932ZM944.312 340.312C964.022 340.312 980 324.33 980 304.616C980 284.902 964.022 268.92 944.312 268.92C924.602 268.92 908.624 284.902 908.624 304.616C908.624 324.33 924.602 340.312 944.312 340.312Z" fill="#6F7070"/>
<path fill-rule="evenodd" clip-rule="evenodd" d="M933.063 302.867C933.063 301.412 934.243 300.232 935.697 300.232H963.091C964.545 300.232 965.725 301.412 965.725 302.867V319.728C965.725 321.183 964.545 322.363 963.091 322.363H935.697C934.243 322.363 933.063 321.183 933.063 319.728V302.867ZM935.697 301.286C934.825 301.286 934.117 301.994 934.117 302.867V319.728C934.117 320.601 934.825 321.309 935.697 321.309H963.091C963.963 321.309 964.671 320.601 964.671 319.728V302.867C964.671 301.994 963.963 301.286 963.091 301.286H935.697Z" fill="#6F7070"/>
<path fill-rule="evenodd" clip-rule="evenodd" d="M924.951 288.639C924.195 288.639 923.581 289.253 923.581 290.009V306.871C923.581 307.627 924.195 308.241 924.951 308.241H932.642V302.655C932.642 301.084 933.916 299.81 935.487 299.81H953.714V290.009C953.714 289.253 953.101 288.639 952.344 288.639H924.951ZM922.106 290.009C922.106 288.438 923.38 287.164 924.951 287.164H952.344C953.915 287.164 955.189 288.438 955.189 290.009V300.548C955.189 300.955 954.859 301.285 954.451 301.285H935.487C934.73 301.285 934.117 301.899 934.117 302.655V308.978C934.117 309.386 933.787 309.716 933.38 309.716H924.951C923.38 309.716 922.106 308.442 922.106 306.871V290.009Z" fill="#6F7070"/>
<path d="M922.844 292.117H954.451V296.332H922.844V292.117Z" fill="#6F7070"/>
<path d="M953.608 302.867H962.037V304.975H953.608V302.867Z" fill="#6F7070"/>
<path d="M936.751 317.619H949.394V318.251H936.751V317.619Z" fill="#6F7070"/>
<path d="M936.751 314.881H940.965V315.513H936.751V314.881Z" fill="#6F7070"/>
<path d="M942.02 314.881H946.234V315.513H942.02V314.881Z" fill="#6F7070"/>
<path d="M947.286 314.881H951.501V315.513H947.286V314.881Z" fill="#6F7070"/>
<path d="M952.555 314.881H956.769V315.513H952.555V314.881Z" fill="#6F7070"/>
<path d="M957.822 314.881H962.037V315.513H957.822V314.881Z" fill="#6F7070"/>
<path d="M936.751 309.189C936.751 308.84 937.034 308.557 937.383 308.557H941.738C942.087 308.557 942.37 308.84 942.37 309.189V312.14C942.37 312.489 942.087 312.772 941.738 312.772H937.383C937.034 312.772 936.751 312.489 936.751 312.14V309.189Z" fill="#6F7070"/>
<path fill-rule="evenodd" clip-rule="evenodd" d="M905.888 129.112H908.624V130.896H905.888V129.112ZM894.944 129.112H900.416V130.896H894.944V129.112ZM883.999 129.112H889.472V130.896H883.999V129.112ZM873.055 129.112H878.527V130.896H873.055V129.112ZM862.111 129.112H867.583V130.896H862.111V129.112ZM853.903 129.112H856.639V130.896H853.903V129.112Z" fill="#6F7070"/>
<path fill-rule="evenodd" clip-rule="evenodd" d="M944.906 182.359V185.631H943.122V182.359H944.906ZM944.906 172.542V175.814H943.122V172.542H944.906Z" fill="#6F7070"/>
<path fill-rule="evenodd" clip-rule="evenodd" d="M944.906 266.839V270.111H943.122V266.839H944.906ZM944.906 257.023V260.295H943.122V257.023H944.906Z" fill="#6F7070"/>
<path d="M858.066 129.409C858.066 131.874 856.069 133.871 853.605 133.871C851.142 133.871 849.145 131.874 849.145 129.409C849.145 126.945 851.142 124.947 853.605 124.947C856.069 124.947 858.066 126.945 858.066 129.409Z" fill="#6F7070"/>
</g>
<defs>
<filter id="filter0_d" x="0" y="0.910156" width="1000" height="577.818" filterUnits="userSpaceOnUse" color-interpolation-filters="sRGB">
<feFlood flood-opacity="0" result="BackgroundImageFix"/>
<feColorMatrix in="SourceAlpha" type="matrix" values="0 0 0 0 0 0 0 0 0 0 0 0 0 0 0 0 0 0 127 0"/>
<feOffset dy="9"/>
<feGaussianBlur stdDeviation="10"/>
<feColorMatrix type="matrix" values="0 0 0 0 0 0 0 0 0 0 0 0 0 0 0 0 0 0 0.1 0"/>
<feBlend mode="normal" in2="BackgroundImageFix" result="effect1_dropShadow"/>
<feBlend mode="normal" in="SourceGraphic" in2="effect1_dropShadow" result="shape"/>
</filter>
</defs>
</svg>
