<svg width="1000" height="579" viewBox="0 0 1000 579" fill="none" xmlns="http://www.w3.org/2000/svg">
<g filter="url(#filter0_d)">
<path d="M21.4736 21.1304C21.4736 16.1935 25.4645 12.1914 30.3874 12.1914H868.282C873.205 12.1914 877.195 16.1936 877.195 21.1304V539.595C877.195 544.532 873.205 548.534 868.282 548.534H30.3874C25.4645 548.534 21.4736 544.532 21.4736 539.595V21.1304Z" fill="#EFFAFD"/>
<path fill-rule="evenodd" clip-rule="evenodd" d="M30.3874 11H868.282C873.861 11 878.384 15.5358 878.384 21.1309V539.595C878.384 545.19 873.861 549.726 868.282 549.726H30.3874C24.8081 549.726 20.2852 545.19 20.2852 539.595V21.1309C20.2852 15.5358 24.8081 11 30.3874 11ZM30.3874 12.1919C25.4645 12.1919 21.4737 16.194 21.4737 21.1309V539.595C21.4737 544.532 25.4645 548.534 30.3874 548.534H868.282C873.205 548.534 877.195 544.532 877.195 539.595V21.1309C877.195 16.194 873.205 12.1919 868.282 12.1919H30.3874Z" fill="#2AAFD3"/>
<path d="M21.4736 21.1304C21.4736 16.1936 25.4645 12.1914 30.3874 12.1914H868.282C873.205 12.1914 877.195 16.1936 877.195 21.1304V53.9069H21.4736V21.1304Z" fill="#2AAFD3"/>
<path fill-rule="evenodd" clip-rule="evenodd" d="M878.384 55.0993H20.2852V21.1309C20.2852 15.5358 24.8081 11 30.3874 11H868.282C873.861 11 878.384 15.5358 878.384 21.1309V55.0993ZM30.3874 12.1919C25.4645 12.1919 21.4737 16.194 21.4737 21.1309V53.9074H877.195V21.1309C877.195 16.194 873.205 12.1919 868.282 12.1919H30.3874Z" fill="#2AAFD3"/>
<path d="M843.917 25.8984H858.773V40.7968H843.917V25.8984Z" fill="#EFFAFD"/>
<path d="M820.147 25.8984H835.004V40.7968H820.147V25.8984Z" fill="#EFFAFD"/>
<path d="M796.377 25.8984H811.233V40.7968H796.377V25.8984Z" fill="#EFFAFD"/>
<path d="M43.4609 331.019C43.4609 329.373 44.7912 328.039 46.4322 328.039H441.609C443.25 328.039 444.581 329.373 444.581 331.019V533.637C444.581 535.283 443.25 536.617 441.609 536.617H46.4322C44.7912 536.617 43.4609 535.283 43.4609 533.637V331.019Z" fill="white"/>
<path fill-rule="evenodd" clip-rule="evenodd" d="M441.609 328.635H46.4322C45.1194 328.635 44.0552 329.702 44.0552 331.019V533.637C44.0552 534.954 45.1194 536.021 46.4322 536.021H441.609C442.922 536.021 443.986 534.954 443.986 533.637V331.019C443.986 329.702 442.922 328.635 441.609 328.635ZM46.4322 328.039C44.7912 328.039 43.4609 329.373 43.4609 331.019V533.637C43.4609 535.283 44.7912 536.617 46.4322 536.617H441.609C443.25 536.617 444.581 535.283 444.581 533.637V331.019C444.581 329.373 443.25 328.039 441.609 328.039H46.4322Z" fill="#2AAFD3"/>
<path d="M43.4609 113.501C43.4609 111.856 44.7912 110.521 46.4322 110.521H441.609C443.25 110.521 444.581 111.856 444.581 113.501V316.119C444.581 317.765 443.25 319.099 441.609 319.099H46.4322C44.7912 319.099 43.4609 317.765 43.4609 316.119V113.501Z" fill="white"/>
<path fill-rule="evenodd" clip-rule="evenodd" d="M441.609 111.117H46.4322C45.1194 111.117 44.0552 112.185 44.0552 113.501V316.119C44.0552 317.436 45.1194 318.503 46.4322 318.503H441.609C442.922 318.503 443.986 317.436 443.986 316.119V113.501C443.986 112.185 442.922 111.117 441.609 111.117ZM46.4322 110.521C44.7912 110.521 43.4609 111.856 43.4609 113.501V316.119C43.4609 317.765 44.7912 319.099 46.4322 319.099H441.609C443.25 319.099 444.581 317.765 444.581 316.119V113.501C444.581 111.856 443.25 110.521 441.609 110.521H46.4322Z" fill="#2AAFD3"/>
<path d="M453.494 331.019C453.494 329.373 454.824 328.039 456.465 328.039H851.642C853.283 328.039 854.614 329.373 854.614 331.019V533.637C854.614 535.283 853.283 536.617 851.642 536.617H456.465C454.824 536.617 453.494 535.283 453.494 533.637V331.019Z" fill="white"/>
<path fill-rule="evenodd" clip-rule="evenodd" d="M851.642 328.635H456.465C455.153 328.635 454.088 329.702 454.088 331.019V533.637C454.088 534.954 455.153 536.021 456.465 536.021H851.642C852.955 536.021 854.019 534.954 854.019 533.637V331.019C854.019 329.702 852.955 328.635 851.642 328.635ZM456.465 328.039C454.824 328.039 453.494 329.373 453.494 331.019V533.637C453.494 535.283 454.824 536.617 456.465 536.617H851.642C853.283 536.617 854.614 535.283 854.614 533.637V331.019C854.614 329.373 853.283 328.039 851.642 328.039H456.465Z" fill="#2AAFD3"/>
<path d="M453.494 113.501C453.494 111.856 454.824 110.521 456.465 110.521H851.642C853.283 110.521 854.614 111.856 854.614 113.501V316.119C854.614 317.765 853.283 319.099 851.642 319.099H456.465C454.824 319.099 453.494 317.765 453.494 316.119V113.501Z" fill="white"/>
<path fill-rule="evenodd" clip-rule="evenodd" d="M851.642 111.117H456.465C455.153 111.117 454.088 112.185 454.088 113.501V316.119C454.088 317.436 455.153 318.503 456.465 318.503H851.642C852.955 318.503 854.019 317.436 854.019 316.119V113.501C854.019 112.185 852.955 111.117 851.642 111.117ZM456.465 110.521C454.824 110.521 453.494 111.856 453.494 113.501V316.119C453.494 317.765 454.824 319.099 456.465 319.099H851.642C853.283 319.099 854.614 317.765 854.614 316.119V113.501C854.614 111.856 853.283 110.521 851.642 110.521H456.465Z" fill="#2AAFD3"/>
<path fill-rule="evenodd" clip-rule="evenodd" d="M161.122 129.592H62.4766V139.127H161.122V129.592ZM61.2881 128.4V140.319H162.311V128.4H61.2881Z" fill="#BABABB"/>
<path fill-rule="evenodd" clip-rule="evenodd" d="M161.122 347.108H62.4766V356.643H161.122V347.108ZM61.2881 345.916V357.835H162.311V345.916H61.2881Z" fill="#BABABB"/>
<path fill-rule="evenodd" clip-rule="evenodd" d="M571.157 129.592H472.511V139.127H571.157V129.592ZM471.322 128.4V140.319H572.345V128.4H471.322Z" fill="#BABABB"/>
<path fill-rule="evenodd" clip-rule="evenodd" d="M571.157 347.108H472.511V356.643H571.157V347.108ZM471.322 345.916V357.835H572.345V345.916H471.322Z" fill="#BABABB"/>
<path fill-rule="evenodd" clip-rule="evenodd" d="M278.784 298.242H220.547V303.01H278.784V298.242ZM219.953 297.646V303.606H279.378V297.646H219.953Z" fill="#BABABB"/>
<path fill-rule="evenodd" clip-rule="evenodd" d="M93.3776 198.721H88.6235V257.123H93.3776V198.721ZM88.0293 198.125V257.719H93.9718V198.125H88.0293Z" fill="#BABABB"/>
<path d="M368.516 260.697H395.257V291.686H368.516V260.697Z" fill="#BFD7E9"/>
<path d="M118.931 196.336H145.672V291.686H118.931V196.336Z" fill="#BFD7E9"/>
<path d="M154.586 213.619H181.327V291.687H154.586V213.619Z" fill="#BFD7E9"/>
<path d="M190.24 217.791H216.982V291.687H190.24V217.791Z" fill="#BFD7E9"/>
<path d="M225.896 232.094H252.637V291.687H225.896V232.094Z" fill="#BFD7E9"/>
<path d="M261.551 217.791H288.292V291.687H261.551V217.791Z" fill="#BFD7E9"/>
<path d="M297.206 238.053H323.947V291.687H297.206V238.053Z" fill="#BFD7E9"/>
<path d="M332.861 243.416H359.603V291.687H332.861V243.416Z" fill="#BFD7E9"/>
<path fill-rule="evenodd" clip-rule="evenodd" d="M100.211 291.389V164.156H99.6172V291.985H400.011V291.389H100.211Z" fill="#C2C2C3"/>
<path fill-rule="evenodd" clip-rule="evenodd" d="M652.568 510.395H594.332V515.162H652.568V510.395ZM593.737 509.799V515.758H653.162V509.799H593.737Z" fill="#BABABB"/>
<path fill-rule="evenodd" clip-rule="evenodd" d="M509.354 410.873H504.6V469.275H509.354V410.873ZM504.006 410.277V469.871H509.948V410.277H504.006Z" fill="#BABABB"/>
<path d="M534.907 448.416H561.649V503.838H534.907V448.416Z" fill="#BFD7E9"/>
<path d="M570.562 425.771H597.303V503.839H570.562V425.771Z" fill="#BFD7E9"/>
<path d="M606.217 418.619H632.958V503.838H606.217V418.619Z" fill="#BFD7E9"/>
<path d="M641.872 430.539H668.613V503.839H641.872V430.539Z" fill="#BFD7E9"/>
<path d="M677.527 410.277H704.269V503.839H677.527V410.277Z" fill="#BFD7E9"/>
<path fill-rule="evenodd" clip-rule="evenodd" d="M516.188 503.541V376.309H515.594V504.137H731.01V503.541H516.188Z" fill="#BABABB"/>
<path d="M659.7 229.41C659.7 266.437 629.768 296.453 592.846 296.453C555.924 296.453 525.993 266.437 525.993 229.41C525.993 192.383 555.924 162.367 592.846 162.367C629.768 162.367 659.7 192.383 659.7 229.41Z" fill="#BFD7E9"/>
<path fill-rule="evenodd" clip-rule="evenodd" d="M659.7 229.41H592.847V228.516H659.7V229.41Z" fill="white"/>
<path fill-rule="evenodd" clip-rule="evenodd" d="M635.408 177.691L592.847 229.391L592.159 228.822L634.721 177.121L635.408 177.691Z" fill="white"/>
<path fill-rule="evenodd" clip-rule="evenodd" d="M611.498 164.921L592.846 229.302L591.99 229.053L610.642 164.672L611.498 164.921Z" fill="white"/>
<path fill-rule="evenodd" clip-rule="evenodd" d="M549.551 178.33L592.801 229.453L592.121 230.031L548.871 178.908L549.551 178.33Z" fill="white"/>
<path fill-rule="evenodd" clip-rule="evenodd" d="M534.907 263.349L592.561 229.411L593.013 230.182L535.358 264.12L534.907 263.349Z" fill="white"/>
<path fill-rule="evenodd" clip-rule="evenodd" d="M595.826 296.387L592.847 229.411L593.737 229.371L596.716 296.347L595.826 296.387Z" fill="white"/>
<path d="M235.404 448.715C235.404 485.741 205.473 515.758 168.551 515.758C131.628 515.758 101.697 485.741 101.697 448.715C101.697 411.688 131.628 381.672 168.551 381.672C205.473 381.672 235.404 411.688 235.404 448.715Z" fill="#BFD7E9"/>
<path fill-rule="evenodd" clip-rule="evenodd" d="M211.112 396.997L168.551 448.698L167.863 448.129L210.425 396.428L211.112 396.997Z" fill="white"/>
<path fill-rule="evenodd" clip-rule="evenodd" d="M168.253 448.417L197.978 508.468L197.18 508.865L167.455 448.814L168.253 448.417Z" fill="white"/>
<path fill-rule="evenodd" clip-rule="evenodd" d="M125.255 397.635L168.505 448.758L167.825 449.336L124.575 398.213L125.255 397.635Z" fill="white"/>
<path fill-rule="evenodd" clip-rule="evenodd" d="M110.611 482.653L168.266 448.715L168.717 449.486L111.062 483.424L110.611 482.653Z" fill="white"/>
<path fill-rule="evenodd" clip-rule="evenodd" d="M168.261 448.649L165.282 381.673L166.173 381.633L169.152 448.609L168.261 448.649Z" fill="white"/>
<path fill-rule="evenodd" clip-rule="evenodd" d="M807.668 170.115H701.891V174.883H807.668V170.115ZM701.297 169.52V175.479H808.262V169.52H701.297Z" fill="#BABABB"/>
<path fill-rule="evenodd" clip-rule="evenodd" d="M344.152 389.42H277.596V394.188H344.152V389.42ZM277.002 388.824V394.784H344.747V388.824H277.002Z" fill="#BABABB"/>
<path fill-rule="evenodd" clip-rule="evenodd" d="M805.885 389.42H739.329V394.188H805.885V389.42ZM738.734 388.824V394.784H806.479V388.824H738.734Z" fill="#BABABB"/>
<path fill-rule="evenodd" clip-rule="evenodd" d="M787.463 182.033H701.891V186.801H787.463V182.033ZM701.297 181.438V187.397H788.057V181.438H701.297Z" fill="#BABABB"/>
<path fill-rule="evenodd" clip-rule="evenodd" d="M363.168 401.338H277.596V406.106H363.168V401.338ZM277.002 400.742V406.702H363.763V400.742H277.002Z" fill="#BABABB"/>
<path fill-rule="evenodd" clip-rule="evenodd" d="M824.901 413.256H739.329V418.024H824.901V413.256ZM738.734 412.66V418.62H825.495V412.66H738.734Z" fill="#BABABB"/>
<path fill-rule="evenodd" clip-rule="evenodd" d="M775.578 193.953H701.891V198.721H775.578V193.953ZM701.297 193.357V199.317H776.172V193.357H701.297Z" fill="#BABABB"/>
<path fill-rule="evenodd" clip-rule="evenodd" d="M351.283 413.256H277.596V418.024H351.283V413.256ZM277.002 412.66V418.62H351.878V412.66H277.002Z" fill="#BABABB"/>
<path fill-rule="evenodd" clip-rule="evenodd" d="M813.016 401.338H739.329V406.106H813.016V401.338ZM738.734 400.742V406.702H813.61V400.742H738.734Z" fill="#BABABB"/>
<path fill-rule="evenodd" clip-rule="evenodd" d="M798.754 205.871H701.891V210.639H798.754V205.871ZM701.297 205.275V211.235H799.348V205.275H701.297Z" fill="#BABABB"/>
<path fill-rule="evenodd" clip-rule="evenodd" d="M367.922 425.176H277.596V429.943H367.922V425.176ZM277.002 424.58V430.539H368.517V424.58H277.002Z" fill="#BABABB"/>
<path fill-rule="evenodd" clip-rule="evenodd" d="M829.655 437.094H739.329V441.861H829.655V437.094ZM738.734 436.498V442.457H830.249V436.498H738.734Z" fill="#BABABB"/>
<path fill-rule="evenodd" clip-rule="evenodd" d="M768.447 217.789H701.891V222.557H768.447V217.789ZM701.297 217.193V223.153H769.042V217.193H701.297Z" fill="#BABABB"/>
<path fill-rule="evenodd" clip-rule="evenodd" d="M344.152 437.094H277.596V441.861H344.152V437.094ZM277.002 436.498V442.457H344.747V436.498H277.002Z" fill="#BABABB"/>
<path fill-rule="evenodd" clip-rule="evenodd" d="M805.885 425.176H739.329V429.943H805.885V425.176ZM738.734 424.58V430.539H806.479V424.58H738.734Z" fill="#BABABB"/>
<path fill-rule="evenodd" clip-rule="evenodd" d="M739.923 229.709H701.891V234.477H739.923V229.709ZM701.297 229.113V235.073H740.517V229.113H701.297Z" fill="#BABABB"/>
<path d="M62.4766 33.3471C62.4766 39.4359 57.5545 44.3719 51.4829 44.3719C45.4113 44.3719 40.4893 39.4359 40.4893 33.3471C40.4893 27.2582 45.4113 22.3223 51.4829 22.3223C57.5545 22.3223 62.4766 27.2582 62.4766 33.3471Z" fill="#EFFAFD"/>
<path d="M69.0137 27.6855H137.947V38.4124H69.0137V27.6855Z" fill="#EFFAFD"/>
<path d="M21.4736 53.9082H877.195V89.6644H21.4736V53.9082Z" fill="white"/>
<path d="M75.028 78.3417L73.7635 74.9043H69.1711L67.9065 78.3417H66.043L70.5521 66.3777H72.4157L76.9083 78.3417H75.028ZM72.0663 69.9819C72.033 69.8595 71.972 69.676 71.8833 69.4312C71.8056 69.1865 71.728 68.9307 71.6503 68.6637C71.5727 68.3967 71.5117 68.1798 71.4673 68.0129C71.3786 68.3578 71.2787 68.7249 71.1678 69.1142C71.0569 69.5035 70.9681 69.7928 70.9016 69.9819L69.7036 73.3358H73.2643L72.0663 69.9819Z" fill="#2AAFD3"/>
<path d="M82.8533 69.1809C83.896 69.1809 84.6947 69.4424 85.2494 69.9652C85.804 70.488 86.0813 71.3279 86.0813 72.4848V78.3417H84.3342V72.7351C84.3342 71.3335 83.7186 70.6326 82.4873 70.6326C81.5666 70.6326 80.9343 70.9052 80.5904 71.4503C80.2466 71.9954 80.0746 72.7796 80.0746 73.803V78.3417H78.3109V69.3478H79.7086L79.9581 70.5492H80.058C80.3464 70.082 80.7402 69.7372 81.2393 69.5147C81.7496 69.2922 82.2876 69.1809 82.8533 69.1809Z" fill="#2AAFD3"/>
<path d="M92.2691 69.1809C93.3894 69.1809 94.2269 69.4312 94.7816 69.9318C95.3473 70.4213 95.6302 71.1944 95.6302 72.2512V78.3417H94.3822L94.0328 77.0902H93.9663C93.578 77.5797 93.1676 77.9412 92.735 78.1748C92.3134 78.3973 91.7255 78.5085 90.9712 78.5085C90.1615 78.5085 89.4904 78.2916 88.9579 77.8578C88.4255 77.4128 88.1592 76.7231 88.1592 75.7887C88.1592 74.8765 88.5031 74.1812 89.1909 73.7029C89.8786 73.2246 90.938 72.9632 92.3689 72.9187L93.8997 72.8686V72.368C93.8997 71.7117 93.75 71.25 93.4505 70.9831C93.1509 70.705 92.7294 70.5659 92.1859 70.5659C91.7311 70.5659 91.2929 70.6326 90.8714 70.7661C90.4499 70.8996 90.045 71.0609 89.6567 71.25L89.091 69.9652C89.5125 69.7427 89.9951 69.5592 90.5386 69.4146C91.0933 69.2588 91.6701 69.1809 92.2691 69.1809ZM92.6851 74.0533C91.6645 74.0978 90.9546 74.2702 90.5553 74.5706C90.167 74.8598 89.9729 75.2714 89.9729 75.8054C89.9729 76.2726 90.1116 76.6119 90.3889 76.8232C90.6662 77.0346 91.0267 77.1403 91.4704 77.1403C92.1582 77.1403 92.7294 76.9456 93.1842 76.5563C93.6501 76.1669 93.8831 75.5829 93.8831 74.8042V74.0199L92.6851 74.0533Z" fill="#2AAFD3"/>
<path d="M100.11 78.3417H98.346V65.6602H100.11V78.3417Z" fill="#2AAFD3"/>
<path d="M101.515 69.3478H103.412L105.275 74.4538C105.42 74.8431 105.542 75.2214 105.642 75.5885C105.752 75.9444 105.836 76.2948 105.891 76.6397H105.958C106.013 76.3505 106.096 76.0112 106.207 75.6218C106.329 75.2325 106.462 74.8376 106.607 74.4371L108.37 69.3478H110.267L106.424 79.5598C106.102 80.4275 105.669 81.106 105.126 81.5955C104.593 82.0961 103.894 82.3464 103.029 82.3464C102.752 82.3464 102.513 82.3297 102.314 82.2963C102.114 82.2741 101.942 82.2463 101.798 82.2129V80.8112C101.909 80.8335 102.053 80.8557 102.231 80.878C102.408 80.9002 102.591 80.9114 102.78 80.9114C103.29 80.9114 103.7 80.7612 104.011 80.4608C104.322 80.1716 104.566 79.7878 104.743 79.3095L105.109 78.3417L101.515 69.3478Z" fill="#2AAFD3"/>
<path d="M114.882 77.0735C115.115 77.0735 115.353 77.0568 115.597 77.0235C115.841 76.979 116.052 76.9234 116.23 76.8566V78.1915C116.03 78.2805 115.769 78.3528 115.448 78.4084C115.137 78.4752 114.821 78.5085 114.499 78.5085C114.011 78.5085 113.562 78.4251 113.151 78.2582C112.741 78.0914 112.414 77.8022 112.17 77.3906C111.937 76.979 111.82 76.4061 111.82 75.6719V70.6994H110.572V69.8985L111.887 69.231L112.503 67.3288H113.584V69.3478H116.146V70.6994H113.584V75.6385C113.584 76.128 113.701 76.4895 113.933 76.7231C114.178 76.9567 114.494 77.0735 114.882 77.0735Z" fill="#2AAFD3"/>
<path d="M118.922 65.9271C119.188 65.9271 119.421 66.005 119.621 66.1607C119.821 66.3165 119.92 66.5779 119.92 66.945C119.92 67.301 119.821 67.5624 119.621 67.7292C119.421 67.885 119.188 67.9629 118.922 67.9629C118.634 67.9629 118.39 67.885 118.19 67.7292C118.001 67.5624 117.907 67.301 117.907 66.945C117.907 66.5779 118.001 66.3165 118.19 66.1607C118.39 66.005 118.634 65.9271 118.922 65.9271ZM119.787 69.3478V78.3417H118.024V69.3478H119.787Z" fill="#2AAFD3"/>
<path d="M126.168 78.5085C124.925 78.5085 123.927 78.1414 123.173 77.4073C122.418 76.6619 122.041 75.4939 122.041 73.9031C122.041 72.7907 122.224 71.8897 122.59 71.2C122.956 70.5103 123.461 70.0041 124.104 69.6815C124.748 69.3478 125.48 69.1809 126.301 69.1809C126.8 69.1809 127.266 69.2366 127.699 69.3478C128.142 69.4479 128.508 69.5647 128.797 69.6982L128.264 71.1332C127.954 71.0109 127.621 70.9052 127.266 70.8162C126.922 70.7272 126.595 70.6827 126.284 70.6827C124.665 70.6827 123.855 71.7506 123.855 73.8865C123.855 74.9099 124.055 75.6886 124.454 76.2225C124.853 76.7565 125.441 77.0235 126.218 77.0235C126.717 77.0235 127.155 76.9678 127.532 76.8566C127.92 76.7454 128.275 76.6007 128.597 76.4228V77.9579C128.275 78.147 127.926 78.2861 127.549 78.3751C127.172 78.464 126.711 78.5085 126.168 78.5085Z" fill="#2AAFD3"/>
<path d="M136.671 75.8054C136.671 76.6842 136.349 77.3572 135.706 77.8244C135.062 78.2805 134.169 78.5085 133.027 78.5085C132.395 78.5085 131.851 78.4585 131.396 78.3584C130.953 78.2694 130.542 78.1359 130.165 77.9579V76.4061C130.553 76.5952 131.008 76.7676 131.529 76.9233C132.062 77.068 132.578 77.1403 133.077 77.1403C133.742 77.1403 134.219 77.0346 134.508 76.8232C134.807 76.6119 134.957 76.3282 134.957 75.9722C134.957 75.772 134.902 75.594 134.791 75.4383C134.68 75.2714 134.469 75.1046 134.158 74.9377C133.859 74.7597 133.415 74.5595 132.827 74.337C132.25 74.1034 131.762 73.8753 131.363 73.6529C130.975 73.4192 130.675 73.1467 130.465 72.8352C130.254 72.5126 130.148 72.101 130.148 71.6004C130.148 70.8218 130.459 70.2266 131.08 69.815C131.712 69.3923 132.544 69.1809 133.576 69.1809C134.12 69.1809 134.63 69.2366 135.107 69.3478C135.595 69.4591 136.066 69.6148 136.521 69.815L135.939 71.1666C135.55 70.9997 135.151 70.8607 134.741 70.7495C134.33 70.6271 133.914 70.5659 133.493 70.5659C132.96 70.5659 132.555 70.6493 132.278 70.8162C132.001 70.9831 131.862 71.2167 131.862 71.517C131.862 71.7284 131.929 71.9119 132.062 72.0677C132.195 72.2234 132.417 72.3791 132.727 72.5349C133.049 72.6906 133.487 72.8797 134.042 73.1022C134.597 73.3136 135.068 73.5305 135.456 73.753C135.856 73.9755 136.155 74.248 136.355 74.5706C136.565 74.8932 136.671 75.3048 136.671 75.8054Z" fill="#2AAFD3"/>
<path d="M40.4893 67.7971C40.4893 67.0376 41.1032 66.4219 41.8606 66.4219H45.4261C46.1835 66.4219 46.7975 67.0376 46.7975 67.7971V69.9975C46.7975 70.757 46.1835 71.3727 45.4261 71.3727H41.8606C41.1032 71.3727 40.4893 70.757 40.4893 69.9975V67.7971Z" fill="#2AAFD3"/>
<path d="M40.4893 73.5731C40.4893 72.8136 41.1032 72.1979 41.8606 72.1979H45.4261C46.1835 72.1979 46.7975 72.8136 46.7975 73.5731V75.7735C46.7975 76.533 46.1835 77.1487 45.4261 77.1487H41.8606C41.1032 77.1487 40.4893 76.533 40.4893 75.7735V73.5731Z" fill="#2AAFD3"/>
<path d="M47.6203 67.7971C47.6203 67.0376 48.2342 66.4219 48.9916 66.4219H52.5571C53.3145 66.4219 53.9285 67.0376 53.9285 67.7971V69.9975C53.9285 70.757 53.3145 71.3727 52.5571 71.3727H48.9916C48.2342 71.3727 47.6203 70.757 47.6203 69.9975V67.7971Z" fill="#2AAFD3"/>
<path d="M47.6203 73.5731C47.6203 72.8136 48.2342 72.1979 48.9916 72.1979H52.5571C53.3145 72.1979 53.9285 72.8136 53.9285 73.5731V75.7735C53.9285 76.533 53.3145 77.1487 52.5571 77.1487H48.9916C48.2342 77.1487 47.6203 76.533 47.6203 75.7735V73.5731Z" fill="#2AAFD3"/>
<path fill-rule="evenodd" clip-rule="evenodd" d="M906.036 127.04H908.77V128.828H906.036V127.04ZM895.102 127.04H900.569V128.828H895.102V127.04ZM884.168 127.04H889.635V128.828H884.168V127.04ZM873.233 127.04H878.7V128.828H873.233V127.04ZM862.299 127.04H867.766V128.828H862.299V127.04ZM854.098 127.04H856.832V128.828H854.098V127.04Z" fill="#6F7070"/>
<path d="M858.258 127.339C858.258 129.807 856.263 131.808 853.802 131.808C851.34 131.808 849.345 129.807 849.345 127.339C849.345 124.87 851.34 122.869 853.802 122.869C856.263 122.869 858.258 124.87 858.258 127.339Z" fill="#6F7070"/>
<path fill-rule="evenodd" clip-rule="evenodd" d="M943.994 160.58C962.373 160.58 977.272 145.638 977.272 127.207C977.272 108.776 962.373 93.8349 943.994 93.8349C925.615 93.8349 910.716 108.776 910.716 127.207C910.716 145.638 925.615 160.58 943.994 160.58ZM943.994 162.964C963.686 162.964 979.649 146.955 979.649 127.207C979.649 107.46 963.686 91.4512 943.994 91.4512C924.302 91.4512 908.339 107.46 908.339 127.207C908.339 146.955 924.302 162.964 943.994 162.964Z" fill="#6F7070"/>
<path fill-rule="evenodd" clip-rule="evenodd" d="M924.13 109.727C924.537 109.727 924.867 110.057 924.867 110.465V143.506H966.235C966.642 143.506 966.972 143.837 966.972 144.245C966.972 144.653 966.642 144.984 966.235 144.984H924.13C923.723 144.984 923.394 144.653 923.394 144.245V110.465C923.394 110.057 923.723 109.727 924.13 109.727Z" fill="#6F7070"/>
<path d="M931.499 138.334C931.499 139.5 930.556 140.445 929.393 140.445C928.231 140.445 927.288 139.5 927.288 138.334C927.288 137.168 928.231 136.223 929.393 136.223C930.556 136.223 931.499 137.168 931.499 138.334Z" fill="#6F7070"/>
<path d="M939.078 129.045C939.078 130.211 938.135 131.156 936.972 131.156C935.81 131.156 934.867 130.211 934.867 129.045C934.867 127.879 935.81 126.934 936.972 126.934C938.135 126.934 939.078 127.879 939.078 129.045Z" fill="#6F7070"/>
<path d="M946.657 130.732C946.657 131.898 945.714 132.844 944.552 132.844C943.389 132.844 942.446 131.898 942.446 130.732C942.446 129.566 943.389 128.621 944.552 128.621C945.714 128.621 946.657 129.566 946.657 130.732Z" fill="#6F7070"/>
<path d="M954.236 123.976C954.236 125.142 953.293 126.088 952.131 126.088C950.968 126.088 950.025 125.142 950.025 123.976C950.025 122.81 950.968 121.865 952.131 121.865C953.293 121.865 954.236 122.81 954.236 123.976Z" fill="#6F7070"/>
<path d="M961.814 116.377C961.814 117.543 960.871 118.488 959.709 118.488C958.546 118.488 957.604 117.543 957.604 116.377C957.604 115.211 958.546 114.266 959.709 114.266C960.871 114.266 961.814 115.211 961.814 116.377Z" fill="#6F7070"/>
<path fill-rule="evenodd" clip-rule="evenodd" d="M959.938 116.383L952.348 124.417L944.641 131.073L937.095 129.601L929.636 138.536L929.151 138.129L936.85 128.908L944.461 130.392L951.912 123.958L959.48 115.947L959.938 116.383Z" fill="#6F7070"/>
</g>
<defs>
<filter id="filter0_d" x="0" y="0" width="1000" height="578.909" filterUnits="userSpaceOnUse" color-interpolation-filters="sRGB">
<feFlood flood-opacity="0" result="BackgroundImageFix"/>
<feColorMatrix in="SourceAlpha" type="matrix" values="0 0 0 0 0 0 0 0 0 0 0 0 0 0 0 0 0 0 127 0"/>
<feOffset dy="9"/>
<feGaussianBlur stdDeviation="10"/>
<feColorMatrix type="matrix" values="0 0 0 0 0 0 0 0 0 0 0 0 0 0 0 0 0 0 0.1 0"/>
<feBlend mode="normal" in2="BackgroundImageFix" result="effect1_dropShadow"/>
<feBlend mode="normal" in="SourceGraphic" in2="effect1_dropShadow" result="shape"/>
</filter>
</defs>
</svg>
