<svg viewBox="0 0 22 22" fill="none" xmlns="http://www.w3.org/2000/svg">
<path d="M8.85213 13.774L11.6299 10.9963L8.85213 8.21851C8.78585 8.15223 8.73327 8.07354 8.6974 7.98694C8.66153 7.90034 8.64307 7.80752 8.64307 7.71379C8.64307 7.62005 8.66153 7.52723 8.6974 7.44063C8.73327 7.35403 8.78585 7.27534 8.85213 7.20906C8.91841 7.14278 8.9971 7.0902 9.0837 7.05433C9.1703 7.01846 9.26312 7 9.35685 7C9.45059 7 9.5434 7.01846 9.63 7.05433C9.71661 7.0902 9.79529 7.14278 9.86157 7.20906L13.1476 10.4951C13.4268 10.7743 13.4268 11.2254 13.1476 11.5046L9.86157 14.7906C9.79534 14.857 9.71667 14.9097 9.63006 14.9456C9.54346 14.9815 9.45061 15 9.35685 15C9.26309 15 9.17025 14.9815 9.08364 14.9456C8.99703 14.9097 8.91836 14.857 8.85213 14.7906C8.58008 14.5114 8.57292 14.0532 8.85213 13.774Z" fill="#CDCCCD"/>
</svg>
