<svg width="73" height="100" viewBox="0 0 73 100" fill="none" xmlns="http://www.w3.org/2000/svg">
<path d="M40.5557 78.3332C40.5557 77.2235 41.4553 76.3238 42.5651 76.3238H58.6402C59.7499 76.3238 60.6496 77.2235 60.6496 78.3332C60.6496 79.443 59.7499 80.3426 58.6402 80.3426H42.5651C41.4553 80.3426 40.5557 79.443 40.5557 78.3332Z" fill="#2AAFD3"/>
<path d="M50.6031 88.379C49.4934 88.379 48.5938 87.4793 48.5938 86.3696V70.2945C48.5938 69.1847 49.4934 68.2851 50.6031 68.2851C51.7129 68.2851 52.6125 69.1847 52.6125 70.2945V86.3696C52.6125 87.4793 51.7129 88.379 50.6031 88.379Z" fill="#2AAFD3"/>
<path fill-rule="evenodd" clip-rule="evenodd" d="M50.2013 59.8122C40.195 59.8122 32.0833 67.9239 32.0833 77.9302C32.0833 87.9365 40.195 96.0483 50.2013 96.0483C60.2077 96.0483 68.3194 87.9365 68.3194 77.9302C68.3194 67.9239 60.2077 59.8122 50.2013 59.8122ZM28.1316 77.9302C28.1316 65.7414 38.0126 55.8605 50.2013 55.8605C62.3901 55.8605 72.2711 65.7414 72.2711 77.9302C72.2711 90.119 62.3901 100 50.2013 100C38.0126 100 28.1316 90.119 28.1316 77.9302Z" fill="#2AAFD3"/>
<path fill-rule="evenodd" clip-rule="evenodd" d="M6.91551 3.95172C5.27865 3.95172 3.95172 5.27865 3.95172 6.91551V87.4587C3.95172 89.0956 5.27865 90.4225 6.91551 90.4225H32.0047C29.5624 86.871 28.1314 82.5671 28.1314 77.9308C28.1314 65.742 38.0124 55.861 50.2011 55.861C50.8896 55.861 51.571 55.8926 52.2441 55.9545V6.91551C52.2441 5.27866 50.9172 3.95172 49.2803 3.95172H6.91551ZM0 6.91551C0 3.09617 3.09618 0 6.91551 0H49.2803C53.0997 0 56.1959 3.09618 56.1959 6.91551V58.2389C56.1959 58.8318 55.9296 59.3934 55.4705 59.7687C55.0114 60.1439 54.408 60.2932 53.8269 60.1752C52.657 59.9378 51.4447 59.8128 50.2011 59.8128C40.1948 59.8128 32.0831 67.9245 32.0831 77.9308C32.0831 83.0542 34.2071 87.6781 37.6278 90.9759C38.2079 91.5352 38.3903 92.3906 38.0888 93.1378C37.7872 93.885 37.0622 94.3743 36.2565 94.3743H6.91551C3.09618 94.3743 0 91.2781 0 87.4587V6.91551Z" fill="#2AAFD3"/>
<path fill-rule="evenodd" clip-rule="evenodd" d="M8.40601 14.2496C8.40601 13.704 8.84832 13.2617 9.39394 13.2617H47.6059C48.1515 13.2617 48.5938 13.704 48.5938 14.2496C48.5938 14.7953 48.1515 15.2376 47.6059 15.2376H9.39394C8.84832 15.2376 8.40601 14.7953 8.40601 14.2496Z" fill="#2AAFD3"/>
<path fill-rule="evenodd" clip-rule="evenodd" d="M8.40601 19.0728C8.40601 18.5272 8.84832 18.0849 9.39394 18.0849H47.6059C48.1515 18.0849 48.5938 18.5272 48.5938 19.0728C48.5938 19.6184 48.1515 20.0607 47.6059 20.0607H9.39394C8.84832 20.0607 8.40601 19.6184 8.40601 19.0728Z" fill="#2AAFD3"/>
<path fill-rule="evenodd" clip-rule="evenodd" d="M8.40601 23.8949C8.40601 23.3492 8.84832 22.9069 9.39394 22.9069H47.6059C48.1515 22.9069 48.5938 23.3492 48.5938 23.8949C48.5938 24.4405 48.1515 24.8828 47.6059 24.8828H9.39394C8.84832 24.8828 8.40601 24.4405 8.40601 23.8949Z" fill="#2AAFD3"/>
<path fill-rule="evenodd" clip-rule="evenodd" d="M8.40601 34.3441C8.40601 33.7985 8.84832 33.3561 9.39394 33.3561H35.5495C36.0951 33.3561 36.5375 33.7985 36.5375 34.3441C36.5375 34.8897 36.0951 35.332 35.5495 35.332H9.39394C8.84832 35.332 8.40601 34.8897 8.40601 34.3441Z" fill="#2AAFD3"/>
<path fill-rule="evenodd" clip-rule="evenodd" d="M8.40601 42.3812C8.40601 41.8356 8.84832 41.3932 9.39394 41.3932H35.5495C36.0951 41.3932 36.5375 41.8356 36.5375 42.3812C36.5375 42.9268 36.0951 43.3691 35.5495 43.3691H9.39394C8.84832 43.3691 8.40601 42.9268 8.40601 42.3812Z" fill="#2AAFD3"/>
<path fill-rule="evenodd" clip-rule="evenodd" d="M8.40601 50.4194C8.40601 49.8738 8.84832 49.4315 9.39394 49.4315H35.5495C36.0951 49.4315 36.5375 49.8738 36.5375 50.4194C36.5375 50.965 36.0951 51.4073 35.5495 51.4073H9.39394C8.84832 51.4073 8.40601 50.965 8.40601 50.4194Z" fill="#2AAFD3"/>
<path fill-rule="evenodd" clip-rule="evenodd" d="M40.5557 34.3441C40.5557 33.7985 40.998 33.3561 41.5436 33.3561H47.6053C48.1509 33.3561 48.5932 33.7985 48.5932 34.3441C48.5932 34.8897 48.1509 35.332 47.6053 35.332H41.5436C40.998 35.332 40.5557 34.8897 40.5557 34.3441Z" fill="#2AAFD3"/>
<path fill-rule="evenodd" clip-rule="evenodd" d="M40.5557 42.3812C40.5557 41.8356 40.998 41.3932 41.5436 41.3932H47.6053C48.1509 41.3932 48.5932 41.8356 48.5932 42.3812C48.5932 42.9268 48.1509 43.3691 47.6053 43.3691H41.5436C40.998 43.3691 40.5557 42.9268 40.5557 42.3812Z" fill="#2AAFD3"/>
<path fill-rule="evenodd" clip-rule="evenodd" d="M40.5557 50.4194C40.5557 49.8738 40.998 49.4315 41.5436 49.4315H47.6053C48.1509 49.4315 48.5932 49.8738 48.5932 50.4194C48.5932 50.965 48.1509 51.4073 47.6053 51.4073H41.5436C40.998 51.4073 40.5557 50.965 40.5557 50.4194Z" fill="#2AAFD3"/>
<path d="M10.5916 67.0291C11.7081 67.0291 12.5312 67.2369 13.0609 67.6526C13.5988 68.0682 13.8677 68.6998 13.8677 69.5473C13.8677 69.9956 13.7822 70.3745 13.611 70.6842C13.448 70.9857 13.2362 71.2343 12.9754 71.4299C12.7146 71.6173 12.4416 71.7681 12.1563 71.8822L14.6012 75.7573H13.0854L10.9828 72.2245H9.46696V75.7573H8.14673V67.0291H10.5916ZM10.506 68.1538H9.46696V71.1243H10.5672C11.2436 71.1243 11.7366 70.998 12.0463 70.7453C12.356 70.4845 12.5108 70.1015 12.5108 69.5962C12.5108 69.0747 12.3478 68.7039 12.0219 68.4838C11.6959 68.2638 11.1906 68.1538 10.506 68.1538Z" fill="#2AAFD3"/>
<path d="M17.8017 69.0461C18.5922 69.0461 19.2279 69.3314 19.7087 69.9018C20.1977 70.4723 20.4422 71.324 20.4422 72.4567C20.4422 73.5732 20.1977 74.4249 19.7087 75.0116C19.2197 75.5903 18.58 75.8796 17.7895 75.8796C17.2842 75.8796 16.8727 75.7899 16.5548 75.6106C16.2451 75.4232 15.9966 75.2032 15.8091 74.9505H15.7236C15.748 75.0972 15.7684 75.2724 15.7847 75.4762C15.801 75.6718 15.8091 75.847 15.8091 76.0018V78.6912H14.5133V69.1684H15.5646L15.748 70.0485H15.8091C15.9966 69.7715 16.2451 69.5351 16.5548 69.3395C16.8727 69.1439 17.2883 69.0461 17.8017 69.0461ZM17.4961 70.1097C16.8849 70.1097 16.453 70.289 16.2003 70.6475C15.9477 70.998 15.8173 71.5318 15.8091 72.2489V72.4445C15.8091 73.2024 15.9314 73.7892 16.1759 74.2048C16.4204 74.6123 16.8686 74.8161 17.5205 74.8161C18.0584 74.8161 18.4578 74.596 18.7185 74.1559C18.9793 73.7159 19.1097 73.1413 19.1097 72.4323C19.1097 71.7151 18.9793 71.1487 18.7185 70.7331C18.4578 70.3175 18.0503 70.1097 17.4961 70.1097Z" fill="#2AAFD3"/>
</svg>
