<svg width="76" height="90" viewBox="0 0 76 90" fill="none" xmlns="http://www.w3.org/2000/svg">
<path fill-rule="evenodd" clip-rule="evenodd" d="M33.7538 4.19801C24.7915 4.19801 17.5261 11.4634 17.5261 20.4257C17.5261 29.388 24.7915 36.6534 33.7538 36.6534C42.7161 36.6534 49.9815 29.388 49.9815 20.4257C49.9815 11.4634 42.7161 4.19801 33.7538 4.19801ZM13.3281 20.4257C13.3281 9.14489 22.473 0 33.7538 0C45.0346 0 54.1795 9.14489 54.1795 20.4257C54.1795 31.7065 45.0346 40.8514 33.7538 40.8514C22.473 40.8514 13.3281 31.7065 13.3281 20.4257Z" fill="#2AAFD3"/>
<path fill-rule="evenodd" clip-rule="evenodd" d="M43.7942 42.5611C44.3196 42.2891 44.9354 42.2515 45.4901 42.4576C53.1521 45.3041 59.5166 50.8477 63.3949 57.9329C63.7805 58.6373 63.7304 59.4998 63.266 60.1549C62.8015 60.8099 62.0041 61.1425 61.2118 61.0117C60.5461 60.9018 59.8613 60.8444 59.1616 60.8444C52.2696 60.8444 46.6825 66.4315 46.6825 73.3235C46.6825 76.8157 48.1142 79.9697 50.4281 82.2371C51.0372 82.834 51.2246 83.7401 50.9022 84.5297C50.5798 85.3193 49.8118 85.8353 48.9589 85.8353H2.09901C0.939757 85.8353 0 84.8955 0 83.7363V73.9361C0 59.4999 9.19937 47.2106 21.992 42.4577C22.5466 42.2517 23.1625 42.2893 23.6879 42.5612C26.3084 43.9176 29.8206 44.7819 33.7409 44.7819C37.6613 44.7819 41.1737 43.9175 43.7942 42.5611ZM44.8534 46.7136C41.7074 48.1562 37.8546 48.9799 33.7409 48.9799C29.6274 48.9799 25.7747 48.1562 22.6287 46.7137C11.8401 51.0952 4.19801 61.6436 4.19801 73.9361V81.6373H44.7018C43.292 79.19 42.4845 76.3502 42.4845 73.3235C42.4845 64.6202 49.1514 57.474 57.6568 56.7134C54.4284 52.2955 49.9959 48.8022 44.8534 46.7136Z" fill="#2AAFD3"/>
<path fill-rule="evenodd" clip-rule="evenodd" d="M59.1614 60.8435C52.2694 60.8435 46.6824 66.4306 46.6824 73.3226C46.6824 80.2145 52.2694 85.8016 59.1614 85.8016C66.0534 85.8016 71.6405 80.2145 71.6405 73.3226C71.6405 66.4306 66.0534 60.8435 59.1614 60.8435ZM42.4844 73.3226C42.4844 64.1121 49.9509 56.6455 59.1614 56.6455C68.3719 56.6455 75.8385 64.1121 75.8385 73.3226C75.8385 82.533 68.3719 89.9996 59.1614 89.9996C49.9509 89.9996 42.4844 82.533 42.4844 73.3226Z" fill="#2AAFD3"/>
<path d="M52.0811 73.7393C52.0811 72.8192 52.827 72.0732 53.7471 72.0732H65.4095C66.3297 72.0732 67.0756 72.8192 67.0756 73.7393C67.0756 74.6594 66.3297 75.4054 65.4095 75.4054H53.7471C52.827 75.4054 52.0811 74.6594 52.0811 73.7393Z" fill="#2AAFD3"/>
<path d="M59.5772 81.2373C58.6571 81.2373 57.9111 80.4914 57.9111 79.5712V67.9088C57.9111 66.9887 58.6571 66.2427 59.5772 66.2427C60.4973 66.2427 61.2433 66.9887 61.2433 67.9088V79.5712C61.2433 80.4914 60.4973 81.2373 59.5772 81.2373Z" fill="#2AAFD3"/>
<path d="M12.0947 64.1607C12.0947 63.4706 12.6542 62.9111 13.3443 62.9111C14.0344 62.9111 14.5938 63.4706 14.5938 64.1607V83.7369H12.0947V64.1607Z" fill="#2AAFD3"/>
</svg>
