<svg width="71" height="90" viewBox="0 0 71 90" fill="none" xmlns="http://www.w3.org/2000/svg">
<path d="M37.0566 16.1536C37.0566 15.2301 37.8053 14.4814 38.7289 14.4814H50.4346C51.3581 14.4814 52.1068 15.2301 52.1068 16.1536C52.1068 17.0772 51.3581 17.8259 50.4346 17.8259H38.7289C37.8053 17.8259 37.0566 17.0772 37.0566 16.1536Z" fill="#2AAFD3"/>
<path d="M44.5809 23.6783C43.6574 23.6783 42.9087 22.9297 42.9087 22.0061V10.3004C42.9087 9.37685 43.6574 8.62816 44.5809 8.62816C45.5045 8.62816 46.2532 9.37685 46.2532 10.3004V22.0061C46.2532 22.9297 45.5045 23.6783 44.5809 23.6783Z" fill="#2AAFD3"/>
<path fill-rule="evenodd" clip-rule="evenodd" d="M0 9.69761C0 4.34177 4.34177 0 9.69761 0H50.708C56.0638 0 60.4056 4.34177 60.4056 9.69761V69.4324C60.4056 74.7882 56.0638 79.13 50.708 79.13H9.6976C4.34176 79.13 0 74.7882 0 69.4324V9.69761ZM9.69761 3.87904C6.4841 3.87904 3.87904 6.4841 3.87904 9.69761V69.4324C3.87904 72.6459 6.4841 75.2509 9.6976 75.2509H50.708C53.9215 75.2509 56.5265 72.6459 56.5265 69.4324V9.69761C56.5265 6.4841 53.9215 3.87904 50.708 3.87904H9.69761Z" fill="#2AAFD3"/>
<path fill-rule="evenodd" clip-rule="evenodd" d="M56.527 12.8093C56.527 11.7382 57.3953 10.8698 58.4665 10.8698H61.0717C66.4276 10.8698 70.7693 15.2116 70.7693 20.5674V80.3022C70.7693 85.658 66.4276 89.9998 61.0717 89.9998H20.0614C14.7055 89.9998 10.3638 85.658 10.3638 80.3022V77.1907C10.3638 76.1195 11.2321 75.2512 12.3033 75.2512H50.7084C53.9219 75.2512 56.527 72.6461 56.527 69.4326V12.8093ZM60.406 14.7489V69.4326C60.406 74.7884 56.0642 79.1302 50.7084 79.1302H14.2428V80.3022C14.2428 83.5157 16.8479 86.1207 20.0614 86.1207H61.0717C64.2852 86.1207 66.8903 83.5157 66.8903 80.3022V20.5674C66.8903 17.3539 64.2852 14.7489 61.0717 14.7489H60.406Z" fill="#2AAFD3"/>
<path fill-rule="evenodd" clip-rule="evenodd" d="M9.46436 26.0536C9.46436 25.518 9.89853 25.0839 10.4341 25.0839H36.9227C37.4583 25.0839 37.8925 25.518 37.8925 26.0536C37.8925 26.5892 37.4583 27.0234 36.9227 27.0234H10.4341C9.89853 27.0234 9.46436 26.5892 9.46436 26.0536Z" fill="#2AAFD3"/>
<path fill-rule="evenodd" clip-rule="evenodd" d="M9.46436 33.5792C9.46436 33.0436 9.89853 32.6095 10.4341 32.6095H43.6117C44.1473 32.6095 44.5815 33.0436 44.5815 33.5792C44.5815 34.1148 44.1473 34.549 43.6117 34.549H10.4341C9.89853 34.549 9.46436 34.1148 9.46436 33.5792Z" fill="#2AAFD3"/>
<path fill-rule="evenodd" clip-rule="evenodd" d="M9.46436 41.1041C9.46436 40.5685 9.89853 40.1343 10.4341 40.1343H39.4311C39.9667 40.1343 40.4008 40.5685 40.4008 41.1041C40.4008 41.6397 39.9667 42.0739 39.4311 42.0739H10.4341C9.89853 42.0739 9.46436 41.6397 9.46436 41.1041Z" fill="#2AAFD3"/>
<path fill-rule="evenodd" clip-rule="evenodd" d="M9.46436 48.6289C9.46436 48.0934 9.89853 47.6592 10.4341 47.6592H46.9562C47.4918 47.6592 47.9259 48.0934 47.9259 48.6289C47.9259 49.1645 47.4918 49.5987 46.9562 49.5987H10.4341C9.89853 49.5987 9.46436 49.1645 9.46436 48.6289Z" fill="#2AAFD3"/>
<path fill-rule="evenodd" clip-rule="evenodd" d="M9.46436 56.1531C9.46436 55.6175 9.89853 55.1833 10.4341 55.1833H46.9562C47.4918 55.1833 47.9259 55.6175 47.9259 56.1531C47.9259 56.6887 47.4918 57.1228 46.9562 57.1228H10.4341C9.89853 57.1228 9.46436 56.6887 9.46436 56.1531Z" fill="#2AAFD3"/>
<path fill-rule="evenodd" clip-rule="evenodd" d="M9.46436 63.6787C9.46436 63.1431 9.89853 62.7089 10.4341 62.7089H46.9562C47.4918 62.7089 47.9259 63.1431 47.9259 63.6787C47.9259 64.2143 47.4918 64.6484 46.9562 64.6484H10.4341C9.89853 64.6484 9.46436 64.2143 9.46436 63.6787Z" fill="#2AAFD3"/>
</svg>
