<svg width="70" height="68" viewBox="0 0 70 68" fill="none" xmlns="http://www.w3.org/2000/svg">
<path fill-rule="evenodd" clip-rule="evenodd" d="M0 18.75C0 14.0901 3.7776 10.3125 8.4375 10.3125H61.5625C66.2224 10.3125 70 14.0901 70 18.75V58.75C70 63.4099 66.2224 67.1875 61.5625 67.1875H8.4375C3.7776 67.1875 0 63.4099 0 58.75V18.75ZM8.4375 14.6875C6.19384 14.6875 4.375 16.5063 4.375 18.75V58.75C4.375 60.9937 6.19384 62.8125 8.4375 62.8125H61.5625C63.8062 62.8125 65.625 60.9937 65.625 58.75V18.75C65.625 16.5063 63.8062 14.6875 61.5625 14.6875H8.4375Z" fill="#2AAFD3"/>
<path fill-rule="evenodd" clip-rule="evenodd" d="M0.3125 25C0.3125 23.9645 1.15197 23.125 2.1875 23.125H67.8125C68.848 23.125 69.6875 23.9645 69.6875 25C69.6875 26.0355 68.848 26.875 67.8125 26.875H2.1875C1.15197 26.875 0.3125 26.0355 0.3125 25Z" fill="#2AAFD3"/>
<path d="M12.8125 3.125C12.8125 1.39911 14.2116 0 15.9375 0C17.6634 0 19.0625 1.39911 19.0625 3.125V12.5H12.8125V3.125Z" fill="#2AAFD3"/>
<path d="M50.9377 3.125C50.9377 1.39911 52.3369 0 54.0627 0C55.7886 0 57.1877 1.39911 57.1877 3.125V12.5H50.9377V3.125Z" fill="#2AAFD3"/>
<path d="M10.9375 45H15.3125V57.5H10.9375V45Z" fill="#2AAFD3"/>
<path d="M17.1875 40H21.5625V57.5H17.1875V40Z" fill="#2AAFD3"/>
<path d="M23.4373 49.375H27.8123V57.5H23.4373V49.375Z" fill="#2AAFD3"/>
<path d="M29.6875 34.375H34.0625V57.5H29.6875V34.375Z" fill="#2AAFD3"/>
<path d="M35.9375 34.375H40.3125V57.5H35.9375V34.375Z" fill="#2AAFD3"/>
<path d="M42.1877 39.375H46.5627V57.5H42.1877V39.375Z" fill="#2AAFD3"/>
<path d="M48.4375 45H52.8125V57.5H48.4375V45Z" fill="#2AAFD3"/>
<path d="M54.6875 42.5H59.0625V57.5H54.6875V42.5Z" fill="#2AAFD3"/>
</svg>
