<svg width="60" height="75" viewBox="0 0 60 75" fill="none" xmlns="http://www.w3.org/2000/svg">
<path fill-rule="evenodd" clip-rule="evenodd" d="M29.6428 5.00001C22.3447 5.00001 16.4285 10.9163 16.4285 18.2143C16.4285 25.5124 22.3447 31.4286 29.6428 31.4286C36.9408 31.4286 42.8571 25.5124 42.8571 18.2143C42.8571 10.9163 36.9408 5.00001 29.6428 5.00001ZM11.4285 18.2143C11.4285 8.15483 19.5833 0 29.6428 0C39.7023 0 47.8571 8.15483 47.8571 18.2143C47.8571 28.2738 39.7023 36.4286 29.6428 36.4286C19.5833 36.4286 11.4285 28.2738 11.4285 18.2143Z" fill="#2AAFD3"/>
<path fill-rule="evenodd" clip-rule="evenodd" d="M39.2764 35.7535C39.8792 35.3214 40.6428 35.1793 41.3608 35.3656C51.6577 38.0375 59.2636 47.3916 59.2636 58.5284V72.5001C59.2636 73.8808 58.1443 75.0001 56.7636 75.0001H2.5C1.11929 75.0001 0 73.8808 0 72.5001V58.5284C0 47.3917 7.60572 38.0378 17.9024 35.3657C18.6204 35.1794 19.384 35.3215 19.9869 35.7536C22.1302 37.29 25.5778 38.3982 29.6316 38.3982C33.6854 38.3982 37.133 37.2899 39.2764 35.7535ZM41.1391 40.5055C38.0611 42.3495 33.9806 43.3982 29.6316 43.3982C25.2827 43.3982 21.2022 42.3495 18.1242 40.5057C10.5084 42.956 5.00001 50.1018 5.00001 58.5284V70.0001H54.2636V58.5284C54.2636 50.1017 48.7551 42.9558 41.1391 40.5055Z" fill="#2AAFD3"/>
<path d="M45.3574 56.4285C45.3574 55.4423 46.1569 54.6428 47.1431 54.6428C48.1294 54.6428 48.9289 55.4423 48.9289 56.4285V72.5H45.3574V56.4285Z" fill="#2AAFD3"/>
<path d="M10.3572 56.4285C10.3572 55.4423 11.1567 54.6428 12.1429 54.6428C13.1291 54.6428 13.9286 55.4423 13.9286 56.4285V72.5H10.3572V56.4285Z" fill="#2AAFD3"/>
</svg>
