<svg width="85" height="85" viewBox="0 0 85 85" fill="none" xmlns="http://www.w3.org/2000/svg">
<path d="M20.7998 48.2099C20.7998 47.369 21.4816 46.6872 22.3226 46.6872H34.5046C35.3455 46.6872 36.0273 47.369 36.0273 48.2099C36.0273 49.0509 35.3455 49.7327 34.5046 49.7327H22.3226C21.4816 49.7327 20.7998 49.0509 20.7998 48.2099Z" fill="#2AAFD3"/>
<path d="M28.4144 55.8235C27.5734 55.8235 26.8916 55.1418 26.8916 54.3008V42.1188C26.8916 41.2778 27.5734 40.596 28.4144 40.596C29.2553 40.596 29.9371 41.2778 29.9371 42.1188V54.3008C29.9371 55.1418 29.2553 55.8235 28.4144 55.8235Z" fill="#2AAFD3"/>
<path fill-rule="evenodd" clip-rule="evenodd" d="M6.85181 6.18148C6.85181 2.76754 9.61934 0 13.0333 0H43.7941C47.208 0 49.9756 2.76754 49.9756 6.18147V15.4709C49.9756 16.4463 49.1849 17.237 48.2094 17.237H8.61794C7.64253 17.237 6.85181 16.4463 6.85181 15.4709V6.18148ZM13.0333 3.53227C11.5702 3.53227 10.3841 4.71836 10.3841 6.18148V13.7047H46.4433V6.18147C46.4433 4.71836 45.2572 3.53227 43.7941 3.53227H13.0333Z" fill="#2AAFD3"/>
<path fill-rule="evenodd" clip-rule="evenodd" d="M9.89788 15.4707C9.89788 14.4953 10.6886 13.7046 11.664 13.7046H45.1645C46.1399 13.7046 46.9306 14.4953 46.9306 15.4707V21.202C52.6667 23.0005 56.8285 28.3555 56.8285 34.6861V57.2563C56.8285 58.018 56.3402 58.6939 55.617 58.9331C51.0114 60.4566 47.692 64.7975 47.692 69.909C47.692 73.5088 49.3356 76.7233 51.9199 78.8458C52.3219 79.176 52.5579 79.6665 52.565 80.1866C52.5721 80.7067 52.3495 81.2035 51.9566 81.5445C49.4782 83.6955 46.2389 84.9993 42.6994 84.9993H14.1291C6.32581 84.9993 0 78.6735 0 70.8702V34.6861C0 28.3555 4.16182 23.0004 9.89788 21.202V15.4707ZM13.4302 17.2368V22.5689C13.4302 23.4093 12.838 24.1333 12.0143 24.3C7.17492 25.2791 3.53227 29.5592 3.53227 34.6861V70.8702C3.53227 76.7226 8.27663 81.467 14.1291 81.467H42.6994C44.6517 81.467 46.4785 80.9403 48.0483 80.0203C45.633 77.3458 44.1597 73.799 44.1597 69.909C44.1597 63.687 47.9244 58.3483 53.2962 56.0393V34.6861C53.2962 29.5592 49.6536 25.2792 44.8142 24.3C43.9906 24.1333 43.3984 23.4093 43.3984 22.5689V17.2368H13.4302Z" fill="#2AAFD3"/>
<path fill-rule="evenodd" clip-rule="evenodd" d="M28.414 33.8652C20.4918 33.8652 14.0696 40.2874 14.0696 48.2096C14.0696 56.1318 20.4918 62.5541 28.414 62.5541C36.3362 62.5541 42.7585 56.1318 42.7585 48.2096C42.7585 40.2874 36.3362 33.8652 28.414 33.8652ZM12.3035 48.2096C12.3035 39.312 19.5164 32.0991 28.414 32.0991C37.3117 32.0991 44.5246 39.312 44.5246 48.2096C44.5246 57.1073 37.3117 64.3202 28.414 64.3202C19.5164 64.3202 12.3035 57.1073 12.3035 48.2096Z" fill="#2AAFD3"/>
<path fill-rule="evenodd" clip-rule="evenodd" d="M59.2494 58.3514C52.8661 58.3514 47.6914 63.5261 47.6914 69.9094C47.6914 76.2926 52.8661 81.4673 59.2494 81.4673C65.6326 81.4673 70.8073 76.2926 70.8073 69.9094C70.8073 63.5261 65.6326 58.3514 59.2494 58.3514ZM44.1592 69.9094C44.1592 61.5753 50.9153 54.8192 59.2494 54.8192C67.5835 54.8192 74.3396 61.5753 74.3396 69.9094C74.3396 78.2434 67.5835 84.9995 59.2494 84.9995C50.9153 84.9995 44.1592 78.2434 44.1592 69.9094Z" fill="#2AAFD3"/>
<path fill-rule="evenodd" clip-rule="evenodd" d="M73.7162 46.9314C69.4354 46.9314 65.9651 50.4017 65.9651 54.6825V56.3931C70.927 58.8627 74.3402 63.9859 74.3402 69.9101C74.3402 74.0441 72.6766 77.7899 69.9866 80.5137C71.093 81.1224 72.3634 81.4679 73.7162 81.4679C77.997 81.4679 81.4672 77.9976 81.4672 73.7169V54.6825C81.4672 50.4017 77.997 46.9314 73.7162 46.9314ZM62.4329 54.6825C62.4329 48.4509 67.4846 43.3992 73.7162 43.3992C79.9478 43.3992 84.9995 48.4509 84.9995 54.6825V73.7169C84.9995 79.9485 79.9478 85.0002 73.7162 85.0002C70.7106 85.0002 67.9763 83.8227 65.9555 81.9074C65.5765 81.5482 65.3759 81.0397 65.4075 80.5185C65.4391 79.9973 65.6998 79.5168 66.1195 79.2061C68.9673 77.0976 70.808 73.719 70.808 69.9101C70.808 65.0466 67.8034 60.8806 63.5427 59.175C62.8723 58.9067 62.4329 58.2574 62.4329 57.5354V54.6825Z" fill="#2AAFD3"/>
<path fill-rule="evenodd" clip-rule="evenodd" d="M49.732 78.6652L67.2436 61.1535L68.4924 62.4024L50.9808 79.914L49.732 78.6652Z" fill="#2AAFD3"/>
<path fill-rule="evenodd" clip-rule="evenodd" d="M71.8121 62.6755L81.71 62.6755L81.71 64.4416L71.8121 64.4416L71.8121 62.6755Z" fill="#2AAFD3"/>
</svg>
