<svg width="64" height="75" viewBox="0 0 64 75" fill="none" xmlns="http://www.w3.org/2000/svg">
<path fill-rule="evenodd" clip-rule="evenodd" d="M31.8044 16.1029C16.8415 16.1029 4.71176 28.2327 4.71176 43.1955C4.71176 58.1583 16.8415 70.2881 31.8044 70.2881C46.7672 70.2881 58.897 58.1583 58.897 43.1955C58.897 37.5947 57.2001 32.3975 54.2927 28.0809C53.5658 27.0017 53.8514 25.5377 54.9305 24.8108C56.0097 24.084 57.4738 24.3695 58.2006 25.4487C61.6155 30.5187 63.6088 36.6279 63.6088 43.1955C63.6088 60.7606 49.3695 74.9999 31.8044 74.9999C14.2393 74.9999 0 60.7606 0 43.1955C0 25.6304 14.2393 11.3911 31.8044 11.3911C34.6609 11.3911 37.4331 11.7683 40.072 12.4769C41.3286 12.8143 42.0737 14.1065 41.7363 15.3631C41.3989 16.6197 40.1066 17.3649 38.85 17.0275C36.606 16.4249 34.2446 16.1029 31.8044 16.1029Z" fill="#2AAFD3"/>
<path fill-rule="evenodd" clip-rule="evenodd" d="M0.588867 43.1956C0.588867 42.2198 1.37994 41.4287 2.35578 41.4287H12.3683C13.3441 41.4287 14.1352 42.2198 14.1352 43.1956C14.1352 44.1715 13.3441 44.9625 12.3683 44.9625H2.35578C1.37994 44.9625 0.588867 44.1715 0.588867 43.1956Z" fill="#2AAFD3"/>
<path fill-rule="evenodd" clip-rule="evenodd" d="M49.4736 43.1956C49.4736 42.2198 50.2647 41.4287 51.2405 41.4287H61.253C62.2289 41.4287 63.0199 42.2198 63.0199 43.1956C63.0199 44.1715 62.2289 44.9625 61.253 44.9625H51.2405C50.2647 44.9625 49.4736 44.1715 49.4736 43.1956Z" fill="#2AAFD3"/>
<path fill-rule="evenodd" clip-rule="evenodd" d="M52.5763 31.1217C52.251 30.5583 52.444 29.8379 53.0074 29.5126L56.5779 27.4512C57.1413 27.1259 57.8617 27.319 58.187 27.8824C58.5122 28.4458 58.3192 29.1662 57.7558 29.4914L54.1854 31.5528C53.622 31.8781 52.9016 31.6851 52.5763 31.1217Z" fill="#2AAFD3"/>
<path fill-rule="evenodd" clip-rule="evenodd" d="M51.9872 54.975C52.3125 54.4116 53.0329 54.2185 53.5963 54.5438L57.1667 56.6052C57.7301 56.9305 57.9232 57.6509 57.5979 58.2143C57.2726 58.7777 56.5522 58.9707 55.9888 58.6455L52.4184 56.5841C51.855 56.2588 51.6619 55.5384 51.9872 54.975Z" fill="#2AAFD3"/>
<path fill-rule="evenodd" clip-rule="evenodd" d="M43.5839 63.3783C44.1473 63.053 44.8677 63.246 45.193 63.8094L47.2544 67.3799C47.5796 67.9433 47.3866 68.6637 46.8232 68.989C46.2598 69.3143 45.5394 69.1212 45.2141 68.5578L43.1527 64.9874C42.8274 64.424 43.0205 63.7036 43.5839 63.3783Z" fill="#2AAFD3"/>
<path fill-rule="evenodd" clip-rule="evenodd" d="M10.4809 31.1217C10.8061 30.5583 10.6131 29.8379 10.0497 29.5126L6.47926 27.4512C5.91586 27.1259 5.19544 27.319 4.87016 27.8824C4.54488 28.4458 4.73792 29.1662 5.30132 29.4914L8.87176 31.5528C9.43516 31.8781 10.1556 31.6851 10.4809 31.1217Z" fill="#2AAFD3"/>
<path fill-rule="evenodd" clip-rule="evenodd" d="M19.7304 22.4606C20.2938 22.1353 20.4868 21.4149 20.1615 20.8515L18.1001 17.281C17.7748 16.7176 17.0544 16.5246 16.491 16.8499C15.9276 17.1751 15.7346 17.8956 16.0599 18.459L18.1213 22.0294C18.4465 22.5928 19.167 22.7858 19.7304 22.4606Z" fill="#2AAFD3"/>
<path fill-rule="evenodd" clip-rule="evenodd" d="M11.0692 54.975C10.7439 54.4116 10.0235 54.2185 9.4601 54.5438L5.88966 56.6052C5.32626 56.9305 5.13322 57.6509 5.4585 58.2143C5.78378 58.7777 6.5042 58.9707 7.0676 58.6455L10.638 56.5841C11.2014 56.2588 11.3945 55.5384 11.0692 54.975Z" fill="#2AAFD3"/>
<path fill-rule="evenodd" clip-rule="evenodd" d="M19.473 63.3783C18.9096 63.053 18.1892 63.246 17.8639 63.8094L15.8025 67.3799C15.4772 67.9433 15.6703 68.6637 16.2337 68.989C16.7971 69.3143 17.5175 69.1212 17.8428 68.5578L19.9042 64.9874C20.2294 64.424 20.0364 63.7036 19.473 63.3783Z" fill="#2AAFD3"/>
<path fill-rule="evenodd" clip-rule="evenodd" d="M31.8043 74.4111C30.8284 74.4111 30.0374 73.6201 30.0374 72.6442V62.6317C30.0374 61.6559 30.8284 60.8648 31.8043 60.8648C32.7801 60.8648 33.5712 61.6559 33.5712 62.6317V72.6442C33.5712 73.6201 32.7801 74.4111 31.8043 74.4111Z" fill="#2AAFD3"/>
<path fill-rule="evenodd" clip-rule="evenodd" d="M32.4096 1.26545C33.3083 0.566561 34.6034 0.728551 35.3023 1.62727L45.0643 14.1805C45.7632 15.0792 45.6012 16.3743 44.7025 17.0732L32.1493 26.8352C31.2506 27.5341 29.9555 27.3721 29.2566 26.4734C28.5577 25.5747 28.7197 24.2796 29.6184 23.5807L40.5444 15.0841L32.0478 4.15816C31.3489 3.25945 31.5109 1.96434 32.4096 1.26545Z" fill="#2AAFD3"/>
<path d="M34.1602 43.1955C34.1602 44.4966 33.1055 45.5514 31.8044 45.5514C30.5032 45.5514 29.4485 44.4966 29.4485 43.1955C29.4485 41.8944 30.5032 40.8396 31.8044 40.8396C33.1055 40.8396 34.1602 41.8944 34.1602 43.1955Z" fill="#2AAFD3"/>
</svg>
