<svg width="150" height="150" viewBox="0 0 150 150" fill="none" xmlns="http://www.w3.org/2000/svg">
<circle cx="75" cy="75" r="75" fill="white"/>
<path fill-rule="evenodd" clip-rule="evenodd" d="M80.7502 40.0478C80.7502 38.6407 81.8909 37.5 83.2981 37.5C102.878 37.5 118.75 53.3726 118.75 72.9524C118.75 74.3596 117.61 75.5002 116.203 75.5002C114.796 75.5002 113.655 74.3596 113.655 72.9524C113.655 56.1868 100.064 42.5956 83.2981 42.5956C81.8909 42.5956 80.7502 41.4549 80.7502 40.0478Z" fill="#2AAFD3"/>
<path fill-rule="evenodd" clip-rule="evenodd" d="M80.1497 48.4226C80.1497 47.0155 81.2904 45.8748 82.6975 45.8748C97.3211 45.8748 109.176 57.7296 109.176 72.3532C109.176 73.7603 108.035 74.901 106.628 74.901C105.221 74.901 104.08 73.7603 104.08 72.3532C104.08 60.5438 94.5069 50.9704 82.6975 50.9704C81.2904 50.9704 80.1497 49.8297 80.1497 48.4226Z" fill="#2AAFD3"/>
<path fill-rule="evenodd" clip-rule="evenodd" d="M80.7502 57.9943C80.7502 56.5872 81.8909 55.4465 83.2981 55.4465C92.9655 55.4465 100.803 63.2835 100.803 72.951C100.803 74.3581 99.6618 75.4988 98.2547 75.4988C96.8476 75.4988 95.7069 74.3581 95.7069 72.951C95.7069 66.0978 90.1513 60.5422 83.2981 60.5422C81.8909 60.5422 80.7502 59.4015 80.7502 57.9943Z" fill="#2AAFD3"/>
<circle cx="85.573" cy="70.071" r="4.4419" fill="#2AAFD3"/>
<path fill-rule="evenodd" clip-rule="evenodd" d="M53.9418 52.4716C50.1894 52.4716 47.1476 55.5134 47.1476 59.2657V101.729C47.1476 105.482 50.1894 108.524 53.9418 108.524H96.4054C100.158 108.524 103.2 105.482 103.2 101.729V80.4975C103.2 79.5595 103.96 78.799 104.898 78.799C105.836 78.799 106.597 79.5595 106.597 80.4975V101.729C106.597 107.358 102.034 111.921 96.4054 111.921H53.9418C48.3133 111.921 43.7505 107.358 43.7505 101.729V59.2657C43.7505 53.6372 48.3133 49.0745 53.9418 49.0745H75.1736C76.1116 49.0745 76.8721 49.8349 76.8721 50.773C76.8721 51.7111 76.1116 52.4716 75.1736 52.4716H53.9418Z" fill="#2AAFD3"/>
</svg>
