<svg width="1001" height="929" viewBox="0 0 1001 929" fill="none" xmlns="http://www.w3.org/2000/svg">
<g filter="url(#filter0_d)">
<path d="M22.0723 21.8419C22.0723 16.9133 26.0676 12.918 30.9962 12.918H869.843C874.771 12.918 878.767 16.9133 878.767 21.8419V331.204C878.767 336.132 874.771 340.127 869.843 340.127H30.9962C26.0676 340.127 22.0723 336.132 22.0723 331.204V21.8419Z" fill="#EFFAFD"/>
<path fill-rule="evenodd" clip-rule="evenodd" d="M30.9956 11.7285H869.842C875.428 11.7285 879.956 16.2566 879.956 21.8423V331.204C879.956 336.79 875.428 341.318 869.842 341.318H30.9956C25.4099 341.318 20.8818 336.79 20.8818 331.204V21.8423C20.8818 16.2566 25.4099 11.7285 30.9956 11.7285ZM30.9956 12.9184C26.0671 12.9184 22.0717 16.9137 22.0717 21.8423V331.204C22.0717 336.133 26.0671 340.128 30.9956 340.128H869.842C874.77 340.128 878.766 336.133 878.766 331.204V21.8423C878.766 16.9137 874.77 12.9184 869.842 12.9184H30.9956Z" fill="#2AAFD3"/>
<path d="M22.0723 21.8419C22.0723 16.9133 26.0676 12.918 30.9962 12.918H869.843C874.771 12.918 878.767 16.9133 878.767 21.8419V54.5628H22.0723V21.8419Z" fill="#2AAFD3"/>
<path fill-rule="evenodd" clip-rule="evenodd" d="M879.956 55.7531H20.8818V21.8423C20.8818 16.2566 25.4099 11.7285 30.9956 11.7285H869.842C875.428 11.7285 879.956 16.2566 879.956 21.8423V55.7531ZM30.9956 12.9184C26.0671 12.9184 22.0717 16.9137 22.0717 21.8423V54.5632H878.766V21.8423C878.766 16.9137 874.77 12.9184 869.842 12.9184H30.9956Z" fill="#2AAFD3"/>
<path d="M45.8691 114.057C45.8691 112.414 47.2009 111.082 48.8438 111.082H197.575C199.218 111.082 200.55 112.414 200.55 114.057V188.312C200.55 189.955 199.218 191.287 197.575 191.287H48.8438C47.2009 191.287 45.8691 189.955 45.8691 188.312V114.057Z" fill="white"/>
<path fill-rule="evenodd" clip-rule="evenodd" d="M197.575 111.677H48.8438C47.5295 111.677 46.4641 112.742 46.4641 114.057V188.312C46.4641 189.627 47.5295 190.692 48.8438 190.692H197.575C198.89 190.692 199.955 189.627 199.955 188.312V114.057C199.955 112.742 198.89 111.677 197.575 111.677ZM48.8438 111.082C47.2009 111.082 45.8691 112.414 45.8691 114.057V188.312C45.8691 189.955 47.2009 191.287 48.8438 191.287H197.575C199.218 191.287 200.55 189.955 200.55 188.312V114.057C200.55 112.414 199.218 111.082 197.575 111.082H48.8438Z" fill="#2AAFD3"/>
<path d="M55.1504 119.125H137.441V131.499H55.1504V119.125Z" fill="#2AAFD3"/>
<path d="M55.1504 158.725H109.804V174.193H55.1504V158.725Z" fill="#BFD7E9"/>
<path fill-rule="evenodd" clip-rule="evenodd" d="M95.3912 137.044H55.7453V143.279H95.3912V137.044ZM55.1504 136.449V143.874H95.9861V136.449H55.1504Z" fill="#BABABB"/>
<path d="M209.474 114.057C209.474 112.414 210.805 111.082 212.448 111.082H361.18C362.823 111.082 364.154 112.414 364.154 114.057V188.312C364.154 189.955 362.823 191.287 361.18 191.287H212.448C210.805 191.287 209.474 189.955 209.474 188.312V114.057Z" fill="white"/>
<path fill-rule="evenodd" clip-rule="evenodd" d="M361.18 111.677H212.448C211.134 111.677 210.069 112.742 210.069 114.057V188.312C210.069 189.627 211.134 190.692 212.448 190.692H361.18C362.494 190.692 363.56 189.627 363.56 188.312V114.057C363.56 112.742 362.494 111.677 361.18 111.677ZM212.448 111.082C210.805 111.082 209.474 112.414 209.474 114.057V188.312C209.474 189.955 210.805 191.287 212.448 191.287H361.18C362.823 191.287 364.154 189.955 364.154 188.312V114.057C364.154 112.414 362.823 111.082 361.18 111.082H212.448Z" fill="#2AAFD3"/>
<path d="M218.755 119.125H301.045V131.499H218.755V119.125Z" fill="#2AAFD3"/>
<path d="M218.755 158.725H273.409V174.193H218.755V158.725Z" fill="#BFD7E9"/>
<path fill-rule="evenodd" clip-rule="evenodd" d="M258.996 137.044H219.35V143.279H258.996V137.044ZM218.755 136.449V143.874H259.591V136.449H218.755Z" fill="#BABABB"/>
<path d="M373.078 114.057C373.078 112.414 374.41 111.082 376.053 111.082H524.784C526.427 111.082 527.759 112.414 527.759 114.057V188.312C527.759 189.955 526.427 191.287 524.784 191.287H376.053C374.41 191.287 373.078 189.955 373.078 188.312V114.057Z" fill="white"/>
<path fill-rule="evenodd" clip-rule="evenodd" d="M524.784 111.677H376.053C374.738 111.677 373.673 112.742 373.673 114.057V188.312C373.673 189.627 374.738 190.692 376.053 190.692H524.784C526.099 190.692 527.164 189.627 527.164 188.312V114.057C527.164 112.742 526.099 111.677 524.784 111.677ZM376.053 111.082C374.41 111.082 373.078 112.414 373.078 114.057V188.312C373.078 189.955 374.41 191.287 376.053 191.287H524.784C526.427 191.287 527.759 189.955 527.759 188.312V114.057C527.759 112.414 526.427 111.082 524.784 111.082H376.053Z" fill="#2AAFD3"/>
<path d="M382.359 119.125H464.65V131.499H382.359V119.125Z" fill="#2AAFD3"/>
<path d="M382.359 158.725H437.013V174.193H382.359V158.725Z" fill="#BFD7E9"/>
<path fill-rule="evenodd" clip-rule="evenodd" d="M422.6 137.044H382.954V143.279H422.6V137.044ZM382.359 136.449V143.874H423.195V136.449H382.359Z" fill="#BABABB"/>
<path d="M536.683 114.057C536.683 112.414 538.014 111.082 539.657 111.082H688.389C690.032 111.082 691.363 112.414 691.363 114.057V188.312C691.363 189.955 690.032 191.287 688.389 191.287H539.657C538.014 191.287 536.683 189.955 536.683 188.312V114.057Z" fill="white"/>
<path fill-rule="evenodd" clip-rule="evenodd" d="M688.389 111.677H539.657C538.343 111.677 537.278 112.742 537.278 114.057V188.312C537.278 189.627 538.343 190.692 539.657 190.692H688.389C689.703 190.692 690.769 189.627 690.769 188.312V114.057C690.769 112.742 689.703 111.677 688.389 111.677ZM539.657 111.082C538.014 111.082 536.683 112.414 536.683 114.057V188.312C536.683 189.955 538.014 191.287 539.657 191.287H688.389C690.032 191.287 691.363 189.955 691.363 188.312V114.057C691.363 112.414 690.032 111.082 688.389 111.082H539.657Z" fill="#2AAFD3"/>
<path d="M545.963 119.125H628.253V131.499H545.963V119.125Z" fill="#2AAFD3"/>
<path d="M545.963 158.725H600.617V174.193H545.963V158.725Z" fill="#BFD7E9"/>
<path fill-rule="evenodd" clip-rule="evenodd" d="M586.204 137.044H546.558V143.279H586.204V137.044ZM545.963 136.449V143.874H586.799V136.449H545.963Z" fill="#BABABB"/>
<path d="M700.288 114.057C700.288 112.414 701.62 111.082 703.263 111.082H851.994C853.637 111.082 854.969 112.414 854.969 114.057V188.312C854.969 189.955 853.637 191.287 851.994 191.287H703.263C701.62 191.287 700.288 189.955 700.288 188.312V114.057Z" fill="white"/>
<path fill-rule="evenodd" clip-rule="evenodd" d="M851.994 111.677H703.263C701.948 111.677 700.883 112.742 700.883 114.057V188.312C700.883 189.627 701.948 190.692 703.263 190.692H851.994C853.309 190.692 854.374 189.627 854.374 188.312V114.057C854.374 112.742 853.309 111.677 851.994 111.677ZM703.263 111.082C701.62 111.082 700.288 112.414 700.288 114.057V188.312C700.288 189.955 701.62 191.287 703.263 191.287H851.994C853.637 191.287 854.969 189.955 854.969 188.312V114.057C854.969 112.414 853.637 111.082 851.994 111.082H703.263Z" fill="#2AAFD3"/>
<path d="M709.568 119.125H791.859V131.499H709.568V119.125Z" fill="#2AAFD3"/>
<path d="M709.568 158.725H764.222V174.193H709.568V158.725Z" fill="#BFD7E9"/>
<path fill-rule="evenodd" clip-rule="evenodd" d="M749.809 137.044H710.163V143.279H749.809V137.044ZM709.568 136.449V143.874H750.404V136.449H709.568Z" fill="#BABABB"/>
<path d="M45.8691 203.295C45.8691 201.652 47.2009 200.32 48.8438 200.32H197.575C199.218 200.32 200.55 201.652 200.55 203.295V277.551C200.55 279.193 199.218 280.525 197.575 280.525H48.8438C47.2009 280.525 45.8691 279.193 45.8691 277.551V203.295Z" fill="white"/>
<path fill-rule="evenodd" clip-rule="evenodd" d="M197.575 200.915H48.8438C47.5295 200.915 46.4641 201.981 46.4641 203.295V277.551C46.4641 278.865 47.5295 279.93 48.8438 279.93H197.575C198.89 279.93 199.955 278.865 199.955 277.551V203.295C199.955 201.981 198.89 200.915 197.575 200.915ZM48.8438 200.32C47.2009 200.32 45.8691 201.652 45.8691 203.295V277.551C45.8691 279.193 47.2009 280.525 48.8438 280.525H197.575C199.218 280.525 200.55 279.193 200.55 277.551V203.295C200.55 201.652 199.218 200.32 197.575 200.32H48.8438Z" fill="#2AAFD3"/>
<path d="M55.1504 208.363H137.441V220.738H55.1504V208.363Z" fill="#2AAFD3"/>
<path d="M55.1504 247.963H109.804V263.431H55.1504V247.963Z" fill="#BFD7E9"/>
<path fill-rule="evenodd" clip-rule="evenodd" d="M95.3912 226.282H55.7453V232.517H95.3912V226.282ZM55.1504 225.688V233.112H95.9861V225.688H55.1504Z" fill="#BABABB"/>
<path d="M209.474 203.295C209.474 201.652 210.805 200.32 212.448 200.32H361.18C362.823 200.32 364.154 201.652 364.154 203.295V277.551C364.154 279.193 362.823 280.525 361.18 280.525H212.448C210.805 280.525 209.474 279.193 209.474 277.551V203.295Z" fill="white"/>
<path fill-rule="evenodd" clip-rule="evenodd" d="M361.18 200.915H212.448C211.134 200.915 210.069 201.981 210.069 203.295V277.551C210.069 278.865 211.134 279.93 212.448 279.93H361.18C362.494 279.93 363.56 278.865 363.56 277.551V203.295C363.56 201.981 362.494 200.915 361.18 200.915ZM212.448 200.32C210.805 200.32 209.474 201.652 209.474 203.295V277.551C209.474 279.193 210.805 280.525 212.448 280.525H361.18C362.823 280.525 364.154 279.193 364.154 277.551V203.295C364.154 201.652 362.823 200.32 361.18 200.32H212.448Z" fill="#2AAFD3"/>
<path d="M218.755 208.363H301.045V220.738H218.755V208.363Z" fill="#2AAFD3"/>
<path d="M218.755 247.963H273.409V263.431H218.755V247.963Z" fill="#BFD7E9"/>
<path fill-rule="evenodd" clip-rule="evenodd" d="M258.996 226.282H219.35V232.517H258.996V226.282ZM218.755 225.688V233.112H259.591V225.688H218.755Z" fill="#BABABB"/>
<path d="M373.078 203.295C373.078 201.652 374.41 200.32 376.053 200.32H524.784C526.427 200.32 527.759 201.652 527.759 203.295V277.551C527.759 279.193 526.427 280.525 524.784 280.525H376.053C374.41 280.525 373.078 279.193 373.078 277.551V203.295Z" fill="white"/>
<path fill-rule="evenodd" clip-rule="evenodd" d="M524.784 200.915H376.053C374.738 200.915 373.673 201.981 373.673 203.295V277.551C373.673 278.865 374.738 279.93 376.053 279.93H524.784C526.099 279.93 527.164 278.865 527.164 277.551V203.295C527.164 201.981 526.099 200.915 524.784 200.915ZM376.053 200.32C374.41 200.32 373.078 201.652 373.078 203.295V277.551C373.078 279.193 374.41 280.525 376.053 280.525H524.784C526.427 280.525 527.759 279.193 527.759 277.551V203.295C527.759 201.652 526.427 200.32 524.784 200.32H376.053Z" fill="#2AAFD3"/>
<path d="M382.359 208.363H464.65V220.738H382.359V208.363Z" fill="#2AAFD3"/>
<path d="M382.359 247.963H437.013V263.431H382.359V247.963Z" fill="#BFD7E9"/>
<path fill-rule="evenodd" clip-rule="evenodd" d="M422.6 226.282H382.954V232.517H422.6V226.282ZM382.359 225.688V233.112H423.195V225.688H382.359Z" fill="#BABABB"/>
<path d="M536.683 203.295C536.683 201.652 538.014 200.32 539.657 200.32H688.389C690.032 200.32 691.363 201.652 691.363 203.295V277.551C691.363 279.193 690.032 280.525 688.389 280.525H539.657C538.014 280.525 536.683 279.193 536.683 277.551V203.295Z" fill="white"/>
<path fill-rule="evenodd" clip-rule="evenodd" d="M688.389 200.915H539.657C538.343 200.915 537.278 201.981 537.278 203.295V277.551C537.278 278.865 538.343 279.93 539.657 279.93H688.389C689.703 279.93 690.769 278.865 690.769 277.551V203.295C690.769 201.981 689.703 200.915 688.389 200.915ZM539.657 200.32C538.014 200.32 536.683 201.652 536.683 203.295V277.551C536.683 279.193 538.014 280.525 539.657 280.525H688.389C690.032 280.525 691.363 279.193 691.363 277.551V203.295C691.363 201.652 690.032 200.32 688.389 200.32H539.657Z" fill="#2AAFD3"/>
<path d="M545.963 208.363H628.253V220.738H545.963V208.363Z" fill="#2AAFD3"/>
<path d="M545.963 247.963H600.617V263.431H545.963V247.963Z" fill="#BFD7E9"/>
<path fill-rule="evenodd" clip-rule="evenodd" d="M586.204 226.282H546.558V232.517H586.204V226.282ZM545.963 225.688V233.112H586.799V225.688H545.963Z" fill="#BABABB"/>
<path d="M63.1217 34.0374C63.1217 40.1159 58.194 45.0435 52.1155 45.0435C46.037 45.0435 41.1094 40.1159 41.1094 34.0374C41.1094 27.9589 46.037 23.0312 52.1155 23.0312C58.194 23.0312 63.1217 27.9589 63.1217 34.0374Z" fill="#EFFAFD"/>
<path d="M69.666 28.3867H138.677V39.0954H69.666V28.3867Z" fill="#EFFAFD"/>
<path d="M22.0723 54.5625H878.767V90.2581H22.0723V54.5625Z" fill="white"/>
<path d="M845.45 26.6016H860.323V41.4747H845.45V26.6016Z" fill="#EFFAFD"/>
<path d="M821.653 26.6016H836.526V41.4747H821.653V26.6016Z" fill="#EFFAFD"/>
<path d="M797.855 26.6016H812.729V41.4747H797.855V26.6016Z" fill="#EFFAFD"/>
<path d="M71.9385 78.9543H67.3242V77.9215L68.7401 77.5051V68.5264L67.3242 68.0933V67.0605H71.9385V68.0933L70.5392 68.5264V77.5051L71.9385 77.9215V78.9543Z" fill="#2AAFD3"/>
<path d="M78.5103 69.8091C79.5542 69.8091 80.3538 70.0701 80.909 70.592C81.4643 71.114 81.7419 71.9524 81.7419 73.1074V78.9543H79.9928V73.3572C79.9928 71.958 79.3765 71.2583 78.1438 71.2583C77.2221 71.2583 76.5891 71.5304 76.2448 72.0746C75.9005 72.6187 75.7284 73.4017 75.7284 74.4234V78.9543H73.9627V69.9757H75.3619L75.6118 71.1751H75.7117C76.0005 70.7086 76.3947 70.3644 76.8945 70.1423C77.4053 69.9202 77.9439 69.8091 78.5103 69.8091Z" fill="#2AAFD3"/>
<path d="M86.4708 78.9543L83.0726 69.9757H84.9383L86.804 75.2229C86.9261 75.5672 87.0483 75.9559 87.1705 76.389C87.2926 76.811 87.3704 77.1608 87.4037 77.4384H87.4703C87.5147 77.1608 87.6036 76.8054 87.7368 76.3723C87.8701 75.9392 87.9922 75.5561 88.1033 75.2229L89.969 69.9757H91.8347L88.4198 78.9543H86.4708Z" fill="#2AAFD3"/>
<path d="M96.7549 69.8091C97.932 69.8091 98.8593 70.1756 99.5368 70.9085C100.214 71.6304 100.553 72.6187 100.553 73.8736V74.8398H94.5227C94.5449 75.7615 94.7837 76.4667 95.239 76.9554C95.7054 77.444 96.3551 77.6883 97.188 77.6883C97.7655 77.6883 98.2763 77.6383 98.7205 77.5384C99.1758 77.4273 99.6423 77.2663 100.12 77.0553V78.5212C99.6645 78.7211 99.2092 78.871 98.7538 78.971C98.2985 79.0709 97.7544 79.1209 97.1214 79.1209C96.244 79.1209 95.4722 78.9488 94.8059 78.6045C94.1507 78.2602 93.6343 77.7494 93.2567 77.072C92.8902 76.3834 92.707 75.5394 92.707 74.54C92.707 73.5294 92.8736 72.6743 93.2067 71.9746C93.551 71.275 94.023 70.742 94.6227 70.3755C95.2335 69.9979 95.9442 69.8091 96.7549 69.8091ZM96.7549 71.1751C96.1219 71.1751 95.611 71.3805 95.2224 71.7914C94.8448 72.2023 94.6227 72.7853 94.556 73.5405H98.7872C98.776 72.8409 98.6039 72.2745 98.2708 71.8414C97.9487 71.3972 97.4434 71.1751 96.7549 71.1751Z" fill="#2AAFD3"/>
<path d="M107.304 69.8091C108.348 69.8091 109.147 70.0701 109.703 70.592C110.258 71.114 110.535 71.9524 110.535 73.1074V78.9543H108.786V73.3572C108.786 71.958 108.17 71.2583 106.937 71.2583C106.016 71.2583 105.383 71.5304 105.038 72.0746C104.694 72.6187 104.522 73.4017 104.522 74.4234V78.9543H102.756V69.9757H104.155L104.405 71.1751H104.505C104.794 70.7086 105.188 70.3644 105.688 70.1423C106.199 69.9202 106.737 69.8091 107.304 69.8091Z" fill="#2AAFD3"/>
<path d="M116.48 77.6883C116.714 77.6883 116.952 77.6717 117.197 77.6383C117.441 77.5939 117.652 77.5384 117.83 77.4718V78.8044C117.63 78.8932 117.369 78.9654 117.047 79.0209C116.736 79.0876 116.419 79.1209 116.097 79.1209C115.609 79.1209 115.159 79.0376 114.748 78.871C114.337 78.7044 114.009 78.4157 113.765 78.0048C113.532 77.5939 113.415 77.022 113.415 76.289V71.325H112.166V70.5254L113.482 69.8591L114.098 67.9601H115.181V69.9757H117.746V71.325H115.181V76.2557C115.181 76.7444 115.298 77.1053 115.531 77.3385C115.775 77.5717 116.092 77.6883 116.48 77.6883Z" fill="#2AAFD3"/>
<path d="M127.538 74.4567C127.538 75.9448 127.155 77.0942 126.389 77.9049C125.622 78.7155 124.59 79.1209 123.29 79.1209C122.48 79.1209 121.758 78.9377 121.125 78.5712C120.503 78.2047 120.009 77.6772 119.642 76.9887C119.287 76.289 119.109 75.445 119.109 74.4567C119.109 72.9686 119.487 71.8247 120.242 71.0251C120.997 70.2144 122.03 69.8091 123.34 69.8091C124.162 69.8091 124.884 69.9923 125.506 70.3588C126.139 70.7142 126.633 71.2361 126.988 71.9247C127.355 72.6132 127.538 73.4572 127.538 74.4567ZM120.925 74.4567C120.925 75.4673 121.114 76.2557 121.491 76.8221C121.88 77.3885 122.491 77.6717 123.324 77.6717C124.157 77.6717 124.762 77.3885 125.139 76.8221C125.528 76.2557 125.722 75.4673 125.722 74.4567C125.722 73.435 125.528 72.6521 125.139 72.1079C124.751 71.5526 124.14 71.275 123.307 71.275C122.474 71.275 121.869 71.5526 121.491 72.1079C121.114 72.6521 120.925 73.435 120.925 74.4567Z" fill="#2AAFD3"/>
<path d="M134.208 69.8091C134.363 69.8091 134.53 69.8202 134.707 69.8424C134.896 69.8535 135.057 69.8702 135.19 69.8924L135.007 71.5415C134.718 71.4638 134.419 71.4249 134.108 71.4249C133.663 71.4249 133.241 71.536 132.842 71.7581C132.453 71.9802 132.136 72.3022 131.892 72.7242C131.659 73.1351 131.542 73.6349 131.542 74.2235V78.9543H129.777V69.9757H131.176L131.409 71.5748H131.476C131.764 71.0973 132.136 70.6864 132.592 70.3422C133.047 69.9868 133.586 69.8091 134.208 69.8091Z" fill="#2AAFD3"/>
<path d="M135.487 69.9757H137.386L139.252 75.073C139.396 75.4617 139.518 75.8393 139.618 76.2058C139.729 76.5611 139.812 76.9109 139.868 77.2552H139.935C139.99 76.9665 140.073 76.6278 140.184 76.2391C140.307 75.8504 140.44 75.4561 140.584 75.0564L142.35 69.9757H144.249L140.401 80.1703C140.079 81.0366 139.646 81.714 139.102 82.2026C138.569 82.7023 137.869 82.9522 137.003 82.9522C136.725 82.9522 136.486 82.9356 136.287 82.9022C136.087 82.88 135.914 82.8523 135.77 82.819V81.4197C135.881 81.4419 136.026 81.4641 136.203 81.4863C136.381 81.5085 136.564 81.5196 136.753 81.5196C137.264 81.5196 137.675 81.3697 137.986 81.0699C138.297 80.7811 138.541 80.398 138.719 79.9205L139.085 78.9543L135.487 69.9757Z" fill="#2AAFD3"/>
<path d="M41.1094 68.4295C41.1094 67.6713 41.724 67.0566 42.4823 67.0566H46.0518C46.8101 67.0566 47.4248 67.6713 47.4248 68.4295V70.6262C47.4248 71.3844 46.8101 71.9991 46.0518 71.9991H42.4823C41.724 71.9991 41.1094 71.3844 41.1094 70.6262V68.4295Z" fill="#2AAFD3"/>
<path d="M41.1094 74.1958C41.1094 73.4375 41.724 72.8229 42.4823 72.8229H46.0518C46.8101 72.8229 47.4248 73.4375 47.4248 74.1958V76.3924C47.4248 77.1506 46.8101 77.7653 46.0518 77.7653H42.4823C41.724 77.7653 41.1094 77.1506 41.1094 76.3924V74.1958Z" fill="#2AAFD3"/>
<path d="M48.2485 68.4295C48.2485 67.6713 48.8632 67.0566 49.6214 67.0566H53.191C53.9492 67.0566 54.5639 67.6713 54.5639 68.4295V70.6262C54.5639 71.3844 53.9492 71.9991 53.191 71.9991H49.6214C48.8632 71.9991 48.2485 71.3844 48.2485 70.6262V68.4295Z" fill="#2AAFD3"/>
<path d="M48.2485 74.1958C48.2485 73.4375 48.8632 72.8229 49.6214 72.8229H53.191C53.9492 72.8229 54.5639 73.4375 54.5639 74.1958V76.3924C54.5639 77.1506 53.9492 77.7653 53.191 77.7653H49.6214C48.8632 77.7653 48.2485 77.1506 48.2485 76.3924V74.1958Z" fill="#2AAFD3"/>
<path fill-rule="evenodd" clip-rule="evenodd" d="M905.72 128.645H908.457V130.43H905.72V128.645ZM894.774 128.645H900.247V130.43H894.774V128.645ZM883.827 128.645H889.301V130.43H883.827V128.645ZM872.881 128.645H878.354V130.43H872.881V128.645ZM861.935 128.645H867.408V130.43H861.935V128.645ZM853.725 128.645H856.461V130.43H853.725V128.645Z" fill="#6F7070"/>
<path d="M857.89 128.942C857.89 131.407 855.892 133.404 853.428 133.404C850.963 133.404 848.966 131.407 848.966 128.942C848.966 126.478 850.963 124.48 853.428 124.48C855.892 124.48 857.89 126.478 857.89 128.942Z" fill="#6F7070"/>
<path fill-rule="evenodd" clip-rule="evenodd" d="M943.749 163.426C962.149 163.426 977.065 148.509 977.065 130.11C977.065 111.71 962.149 96.7938 943.749 96.7938C925.349 96.7938 910.433 111.71 910.433 130.11C910.433 148.509 925.349 163.426 943.749 163.426ZM943.749 165.805C963.463 165.805 979.445 149.824 979.445 130.11C979.445 110.396 963.463 94.4141 943.749 94.4141C924.035 94.4141 908.054 110.396 908.054 130.11C908.054 149.824 924.035 165.805 943.749 165.805Z" fill="#6F7070"/>
<path d="M919.952 115.172L941.87 119.858V149.147L919.952 144.461V115.172Z" fill="#6F7070"/>
<path fill-rule="evenodd" clip-rule="evenodd" d="M941.889 119.133L963.656 115.657L945.609 111.798L923.842 115.274L941.889 119.133ZM941.871 119.859L967.546 115.758L945.628 111.072L919.952 115.173L941.871 119.859Z" fill="#6F7070"/>
<path d="M954.395 117.773L932.477 113.087L935.921 112.537L957.839 117.223L954.395 117.773Z" fill="#6F7070"/>
<path fill-rule="evenodd" clip-rule="evenodd" d="M967.546 115.758V145.046L941.87 149.147V119.858L967.546 115.758ZM965.88 117.711V143.626L943.536 147.194V121.279L965.88 117.711Z" fill="#6F7070"/>
<path d="M954.396 117.516L957.84 117.223L957.84 131.419L954.396 132.004L954.396 117.516Z" fill="#6F7070"/>
<path d="M22.1895 371.506C22.1895 366.577 26.1847 362.582 31.1132 362.582H869.945C874.873 362.582 878.868 366.577 878.868 371.506V889.083C878.868 894.011 874.873 898.006 869.945 898.006H31.1132C26.1848 898.006 22.1895 894.011 22.1895 889.083V371.506Z" fill="#EFFAFD"/>
<path fill-rule="evenodd" clip-rule="evenodd" d="M31.1136 361.393H869.945C875.531 361.393 880.059 365.921 880.059 371.506V889.083C880.059 894.669 875.531 899.197 869.945 899.197H31.1136C25.528 899.197 21 894.669 21 889.083V371.506C21 365.921 25.528 361.393 31.1136 361.393ZM31.1136 362.582C26.1851 362.582 22.1898 366.578 22.1898 371.506V889.083C22.1898 894.011 26.1851 898.007 31.1136 898.007H869.945C874.874 898.007 878.869 894.011 878.869 889.083V371.506C878.869 366.578 874.874 362.582 869.945 362.582H31.1136Z" fill="#2AAFD3"/>
<path fill-rule="evenodd" clip-rule="evenodd" d="M243.907 832.289H186.565V844.84H243.907V832.289ZM185.375 831.1V846.03H245.097V831.1H185.375Z" fill="#BABABB"/>
<path fill-rule="evenodd" clip-rule="evenodd" d="M365.563 832.289H308.221V844.84H365.563V832.289ZM307.031 831.1V846.03H366.753V831.1H307.031Z" fill="#BABABB"/>
<path fill-rule="evenodd" clip-rule="evenodd" d="M487.219 832.289H429.876V844.84H487.219V832.289ZM428.687 831.1V846.03H488.409V831.1H428.687Z" fill="#BABABB"/>
<path fill-rule="evenodd" clip-rule="evenodd" d="M608.875 832.289H551.533V844.84H608.875V832.289ZM550.343 831.1V846.03H610.065V831.1H550.343Z" fill="#BABABB"/>
<path fill-rule="evenodd" clip-rule="evenodd" d="M730.531 832.289H673.189V844.84H730.531V832.289ZM671.999 831.1V846.03H731.721V831.1H671.999Z" fill="#BABABB"/>
<path fill-rule="evenodd" clip-rule="evenodd" d="M108.314 566.379H94.7699V723.235H108.314V566.379ZM93.5801 565.189V724.425H109.504V565.189H93.5801Z" fill="#BABABB"/>
<path d="M165.468 517.559H265.004V815.063H165.468V517.559Z" fill="#BFD7E9"/>
<path d="M287.124 606.592H386.661V815.19H287.124V606.592Z" fill="#BFD7E9"/>
<path d="M408.779 646.955H508.316V815.062H408.779V646.955Z" fill="#BFD7E9"/>
<path d="M530.436 577.281H629.972V815.063H530.436V577.281Z" fill="#BFD7E9"/>
<path d="M652.092 702.807H751.628V815.062H652.092V702.807Z" fill="#BFD7E9"/>
<path fill-rule="evenodd" clip-rule="evenodd" d="M126.545 814.17V474.426H124.761V815.955H807.479V814.17H126.545Z" fill="#BABABB"/>
<path d="M22.1895 371.506C22.1895 366.577 26.1847 362.582 31.1132 362.582H869.945C874.873 362.582 878.868 366.577 878.868 371.506V404.226H22.1895V371.506Z" fill="#2AAFD3"/>
<path fill-rule="evenodd" clip-rule="evenodd" d="M880.059 405.416H21V371.506C21 365.921 25.528 361.393 31.1136 361.393H869.945C875.531 361.393 880.059 365.921 880.059 371.506V405.416ZM31.1136 362.582C26.1851 362.582 22.1898 366.578 22.1898 371.506V404.227H878.869V371.506C878.869 366.578 874.874 362.582 869.945 362.582H31.1136Z" fill="#2AAFD3"/>
<path d="M63.2394 383.701C63.2394 389.78 58.3119 394.707 52.2335 394.707C46.1551 394.707 41.2275 389.78 41.2275 383.701C41.2275 377.623 46.1551 372.695 52.2335 372.695C58.3119 372.695 63.2394 377.623 63.2394 383.701Z" fill="#EFFAFD"/>
<path d="M69.7832 378.051H138.793V388.759H69.7832V378.051Z" fill="#EFFAFD"/>
<path d="M22.1895 404.227H878.868V439.922H22.1895V404.227Z" fill="white"/>
<path d="M845.554 376.266H860.427V391.139H845.554V376.266Z" fill="#EFFAFD"/>
<path d="M821.757 376.266H836.63V391.139H821.757V376.266Z" fill="#EFFAFD"/>
<path d="M797.96 376.266H812.833V391.139H797.96V376.266Z" fill="#EFFAFD"/>
<path d="M72.0556 428.618H67.4414V427.585L68.8573 427.169V418.19L67.4414 417.757V416.725H72.0556V417.757L70.6563 418.19V427.169L72.0556 427.585V428.618Z" fill="#2AAFD3"/>
<path d="M78.6273 419.473C79.6712 419.473 80.4707 419.734 81.026 420.256C81.5812 420.778 81.8589 421.616 81.8589 422.771V428.618H80.1098V423.021C80.1098 421.622 79.4935 420.922 78.2608 420.922C77.3391 420.922 76.7061 421.194 76.3618 421.739C76.0176 422.283 75.8455 423.066 75.8455 424.087V428.618H74.0797V419.64H75.479L75.7288 420.839H75.8288C76.1175 420.373 76.5118 420.028 77.0115 419.806C77.5223 419.584 78.0609 419.473 78.6273 419.473Z" fill="#2AAFD3"/>
<path d="M86.5877 428.618L83.1895 419.64H85.0552L86.9208 424.887C87.043 425.231 87.1652 425.62 87.2873 426.053C87.4095 426.475 87.4872 426.825 87.5205 427.102H87.5871C87.6316 426.825 87.7204 426.469 87.8537 426.036C87.9869 425.603 88.1091 425.22 88.2201 424.887L90.0858 419.64H91.9515L88.5366 428.618H86.5877Z" fill="#2AAFD3"/>
<path d="M96.8716 419.473C98.0487 419.473 98.976 419.84 99.6534 420.573C100.331 421.294 100.67 422.283 100.67 423.538V424.504H94.6394C94.6617 425.425 94.9004 426.131 95.3557 426.619C95.8221 427.108 96.4718 427.352 97.3047 427.352C97.8821 427.352 98.393 427.302 98.8372 427.202C99.2925 427.091 99.7589 426.93 100.236 426.719V428.185C99.7811 428.385 99.3258 428.535 98.8705 428.635C98.4152 428.735 97.871 428.785 97.238 428.785C96.3607 428.785 95.5889 428.613 94.9226 428.268C94.2674 427.924 93.751 427.413 93.3735 426.736C93.007 426.047 92.8238 425.203 92.8238 424.204C92.8238 423.193 92.9903 422.338 93.3235 421.639C93.6678 420.939 94.1397 420.406 94.7394 420.039C95.3502 419.662 96.0609 419.473 96.8716 419.473ZM96.8716 420.839C96.2386 420.839 95.7278 421.044 95.3391 421.455C94.9615 421.866 94.7394 422.449 94.6728 423.204H98.9038C98.8927 422.505 98.7206 421.938 98.3874 421.505C98.0654 421.061 97.5601 420.839 96.8716 420.839Z" fill="#2AAFD3"/>
<path d="M107.42 419.473C108.464 419.473 109.264 419.734 109.819 420.256C110.374 420.778 110.652 421.616 110.652 422.771V428.618H108.903V423.021C108.903 421.622 108.286 420.922 107.054 420.922C106.132 420.922 105.499 421.194 105.155 421.739C104.811 422.283 104.638 423.066 104.638 424.087V428.618H102.873V419.64H104.272L104.522 420.839H104.622C104.911 420.373 105.305 420.028 105.804 419.806C106.315 419.584 106.854 419.473 107.42 419.473Z" fill="#2AAFD3"/>
<path d="M116.597 427.352C116.83 427.352 117.069 427.336 117.313 427.302C117.557 427.258 117.768 427.202 117.946 427.136V428.468C117.746 428.557 117.485 428.629 117.163 428.685C116.852 428.751 116.536 428.785 116.214 428.785C115.725 428.785 115.275 428.701 114.864 428.535C114.453 428.368 114.126 428.08 113.882 427.669C113.648 427.258 113.532 426.686 113.532 425.953V420.989H112.282V420.189L113.598 419.523L114.215 417.624H115.297V419.64H117.863V420.989H115.297V425.92C115.297 426.408 115.414 426.769 115.647 427.002C115.892 427.236 116.208 427.352 116.597 427.352Z" fill="#2AAFD3"/>
<path d="M127.654 424.121C127.654 425.609 127.271 426.758 126.505 427.569C125.739 428.379 124.706 428.785 123.407 428.785C122.596 428.785 121.874 428.602 121.241 428.235C120.619 427.869 120.125 427.341 119.759 426.653C119.403 425.953 119.225 425.109 119.225 424.121C119.225 422.633 119.603 421.489 120.358 420.689C121.113 419.878 122.146 419.473 123.457 419.473C124.278 419.473 125 419.656 125.622 420.023C126.255 420.378 126.749 420.9 127.105 421.589C127.471 422.277 127.654 423.121 127.654 424.121ZM121.041 424.121C121.041 425.131 121.23 425.92 121.608 426.486C121.996 427.052 122.607 427.336 123.44 427.336C124.273 427.336 124.878 427.052 125.256 426.486C125.644 425.92 125.839 425.131 125.839 424.121C125.839 423.099 125.644 422.316 125.256 421.772C124.867 421.217 124.256 420.939 123.423 420.939C122.59 420.939 121.985 421.217 121.608 421.772C121.23 422.316 121.041 423.099 121.041 424.121Z" fill="#2AAFD3"/>
<path d="M134.324 419.473C134.479 419.473 134.646 419.484 134.823 419.506C135.012 419.518 135.173 419.534 135.306 419.556L135.123 421.206C134.834 421.128 134.535 421.089 134.224 421.089C133.779 421.089 133.357 421.2 132.958 421.422C132.569 421.644 132.252 421.966 132.008 422.388C131.775 422.799 131.658 423.299 131.658 423.887V428.618H129.893V419.64H131.292L131.525 421.239H131.592C131.88 420.761 132.252 420.35 132.708 420.006C133.163 419.651 133.702 419.473 134.324 419.473Z" fill="#2AAFD3"/>
<path d="M135.603 419.64H137.502L139.368 424.737C139.512 425.126 139.634 425.503 139.734 425.87C139.845 426.225 139.928 426.575 139.984 426.919H140.051C140.106 426.63 140.189 426.292 140.3 425.903C140.423 425.514 140.556 425.12 140.7 424.72L142.466 419.64H144.365L140.517 429.834C140.195 430.7 139.762 431.378 139.218 431.866C138.685 432.366 137.985 432.616 137.119 432.616C136.841 432.616 136.602 432.599 136.403 432.566C136.203 432.544 136.031 432.516 135.886 432.483V431.084C135.997 431.106 136.142 431.128 136.319 431.15C136.497 431.172 136.68 431.183 136.869 431.183C137.38 431.183 137.791 431.034 138.102 430.734C138.413 430.445 138.657 430.062 138.835 429.584L139.201 428.618L135.603 419.64Z" fill="#2AAFD3"/>
<path d="M41.2275 418.094C41.2275 417.335 41.8422 416.721 42.6004 416.721H46.1699C46.9281 416.721 47.5428 417.335 47.5428 418.094V420.29C47.5428 421.048 46.9281 421.663 46.1699 421.663H42.6004C41.8422 421.663 41.2275 421.048 41.2275 420.29V418.094Z" fill="#2AAFD3"/>
<path d="M41.2275 423.86C41.2275 423.101 41.8422 422.487 42.6004 422.487H46.1699C46.9281 422.487 47.5428 423.101 47.5428 423.86V426.056C47.5428 426.815 46.9281 427.429 46.1699 427.429H42.6004C41.8422 427.429 41.2275 426.815 41.2275 426.056V423.86Z" fill="#2AAFD3"/>
<path d="M48.3665 418.094C48.3665 417.335 48.9812 416.721 49.7394 416.721H53.3089C54.0671 416.721 54.6818 417.335 54.6818 418.094V420.29C54.6818 421.048 54.0671 421.663 53.3089 421.663H49.7394C48.9812 421.663 48.3665 421.048 48.3665 420.29V418.094Z" fill="#2AAFD3"/>
<path d="M48.3665 423.86C48.3665 423.101 48.9812 422.487 49.7394 422.487H53.3089C54.0671 422.487 54.6818 423.101 54.6818 423.86V426.056C54.6818 426.815 54.0671 427.429 53.3089 427.429H49.7394C48.9812 427.429 48.3665 426.815 48.3665 426.056V423.86Z" fill="#2AAFD3"/>
<path fill-rule="evenodd" clip-rule="evenodd" d="M906.72 802.711H909.457V804.496H906.72V802.711ZM895.774 802.711H901.247V804.496H895.774V802.711ZM884.827 802.711H890.301V804.496H884.827V802.711ZM873.881 802.711H879.354V804.496H873.881V802.711ZM862.935 802.711H868.408V804.496H862.935V802.711ZM854.725 802.711H857.461V804.496H854.725V802.711Z" fill="#6F7070"/>
<path d="M858.89 803.009C858.89 805.473 856.892 807.471 854.428 807.471C851.963 807.471 849.966 805.473 849.966 803.009C849.966 800.545 851.963 798.547 854.428 798.547C856.892 798.547 858.89 800.545 858.89 803.009Z" fill="#6F7070"/>
<path fill-rule="evenodd" clip-rule="evenodd" d="M944.749 836.309C963.148 836.309 978.064 821.393 978.064 802.994C978.064 784.594 963.148 769.678 944.749 769.678C926.349 769.678 911.433 784.594 911.433 802.994C911.433 821.393 926.349 836.309 944.749 836.309ZM944.749 838.689C964.462 838.689 980.444 822.708 980.444 802.994C980.444 783.28 964.462 767.299 944.749 767.299C925.035 767.299 909.054 783.28 909.054 802.994C909.054 822.708 925.035 838.689 944.749 838.689Z" fill="#6F7070"/>
<path fill-rule="evenodd" clip-rule="evenodd" d="M921.745 820.405C921.745 819.945 922.118 819.572 922.578 819.572H968.506C968.966 819.572 969.338 819.945 969.338 820.405C969.338 820.865 968.966 821.238 968.506 821.238H922.578C922.118 821.238 921.745 820.865 921.745 820.405Z" fill="#6F7070"/>
<path fill-rule="evenodd" clip-rule="evenodd" d="M931.502 787.447L931.502 821.238L925.553 821.238L925.553 787.447L931.502 787.447Z" fill="#6F7070"/>
<path fill-rule="evenodd" clip-rule="evenodd" d="M939.83 783.164L939.83 821.238L933.881 821.238L933.881 783.164L939.83 783.164Z" fill="#6F7070"/>
<path fill-rule="evenodd" clip-rule="evenodd" d="M948.159 807.912L948.159 821.238L942.21 821.238L942.21 807.912L948.159 807.912Z" fill="#6F7070"/>
<path fill-rule="evenodd" clip-rule="evenodd" d="M956.488 797.918V821.238H950.539V797.918H956.488Z" fill="#6F7070"/>
<path fill-rule="evenodd" clip-rule="evenodd" d="M964.816 806.008L964.816 821.238L958.867 821.238L958.867 806.008L964.816 806.008Z" fill="#6F7070"/>
</g>
<defs>
<filter id="filter0_d" x="0" y="0.728516" width="1001" height="927.651" filterUnits="userSpaceOnUse" color-interpolation-filters="sRGB">
<feFlood flood-opacity="0" result="BackgroundImageFix"/>
<feColorMatrix in="SourceAlpha" type="matrix" values="0 0 0 0 0 0 0 0 0 0 0 0 0 0 0 0 0 0 127 0"/>
<feOffset dy="9"/>
<feGaussianBlur stdDeviation="10"/>
<feColorMatrix type="matrix" values="0 0 0 0 0 0 0 0 0 0 0 0 0 0 0 0 0 0 0.1 0"/>
<feBlend mode="normal" in2="BackgroundImageFix" result="effect1_dropShadow"/>
<feBlend mode="normal" in="SourceGraphic" in2="effect1_dropShadow" result="shape"/>
</filter>
</defs>
</svg>
