<svg width="150" height="150" viewBox="0 0 150 150" fill="none" xmlns="http://www.w3.org/2000/svg">
<circle cx="75" cy="75" r="75" fill="white"/>
<path fill-rule="evenodd" clip-rule="evenodd" d="M22.5 51.5534C22.5 47.9341 25.4341 45 29.0534 45H52.2633C55.8827 45 58.8167 47.9341 58.8167 51.5534V95.2427C58.8167 98.8621 55.8827 101.796 52.2633 101.796H29.0534C25.4341 101.796 22.5 98.8621 22.5 95.2427V51.5534ZM29.0534 47.1845C26.6405 47.1845 24.6845 49.1405 24.6845 51.5534V95.2427C24.6845 97.6556 26.6405 99.6116 29.0534 99.6116H52.2633C54.6762 99.6116 56.6323 97.6556 56.6323 95.2427V51.5534C56.6323 49.1405 54.6762 47.1845 52.2633 47.1845H29.0534Z" fill="#2AAFD3"/>
<path fill-rule="evenodd" clip-rule="evenodd" d="M47.8933 69.2968C47.8933 65.3758 44.7147 62.1973 40.7938 62.1973C36.8728 62.1973 33.6943 65.3758 33.6943 69.2968V75.3041C33.6943 79.225 36.8728 82.4036 40.7938 82.4036C44.7147 82.4036 47.8933 79.225 47.8933 75.3041V69.2968ZM40.7938 63.8356C43.8099 63.8356 46.255 66.2807 46.255 69.2968V75.3041C46.255 78.3202 43.8099 80.7652 40.7938 80.7652C37.7777 80.7652 35.3326 78.3202 35.3326 75.3041V69.2968C35.3326 66.2807 37.7777 63.8356 40.7938 63.8356Z" fill="#2AAFD3"/>
<mask id="mask0" mask-type="alpha" maskUnits="userSpaceOnUse" x="34" y="63" width="14" height="19">
<path d="M47.073 69.2957C47.073 65.8272 44.2612 63.0154 40.7927 63.0154C37.3241 63.0154 34.5123 65.8272 34.5123 69.2957V75.303C34.5123 78.7715 37.3241 81.5833 40.7927 81.5833C44.2612 81.5833 47.073 78.7715 47.073 75.303V69.2957Z" fill="#2AAFD3"/>
</mask>
<g mask="url(#mask0)">
<path fill-rule="evenodd" clip-rule="evenodd" d="M40.6128 66.0195C39.2899 66.0195 38.2175 67.0919 38.2175 68.4148C38.2175 69.7377 39.2899 70.8101 40.6128 70.8101C41.9357 70.8101 43.0081 69.7377 43.0081 68.4148C43.0081 67.0919 41.9357 66.0195 40.6128 66.0195ZM36.5791 68.4148C36.5791 66.187 38.385 64.3811 40.6128 64.3811C42.8405 64.3811 44.6465 66.187 44.6465 68.4148C44.6465 70.6425 42.8405 72.4485 40.6128 72.4485C38.385 72.4485 36.5791 70.6425 36.5791 68.4148Z" fill="#2AAFD3"/>
<path fill-rule="evenodd" clip-rule="evenodd" d="M42.1681 71.8955C42.3732 71.7893 42.6136 71.7745 42.8302 71.855C45.2529 72.7552 46.9812 75.0883 46.9812 77.8271V83.4943C46.9812 83.9467 46.6144 84.3135 46.162 84.3135H35.0619C34.6094 84.3135 34.2427 83.9467 34.2427 83.4943V77.8271C34.2427 75.0885 35.9707 72.7556 38.3931 71.8552C38.6096 71.7748 38.85 71.7894 39.0551 71.8957C39.4426 72.0963 39.9861 72.2349 40.6114 72.2349C41.237 72.2349 41.7806 72.0962 42.1681 71.8955ZM42.5614 73.515C41.9837 73.7471 41.3126 73.8732 40.6114 73.8732C39.9105 73.8732 39.2396 73.7472 38.662 73.5153C37.0209 74.2586 35.881 75.9107 35.881 77.8271V82.6751H45.3428V77.8271C45.3428 75.9105 44.2027 74.2583 42.5614 73.515Z" fill="#2AAFD3"/>
</g>
<path fill-rule="evenodd" clip-rule="evenodd" d="M36.4255 51.0047C36.4255 50.5523 36.7923 50.1855 37.2447 50.1855H43.7981C44.2505 50.1855 44.6173 50.5523 44.6173 51.0047C44.6173 51.4571 44.2505 51.8239 43.7981 51.8239H37.2447C36.7923 51.8239 36.4255 51.4571 36.4255 51.0047Z" fill="#2AAFD3"/>
<circle cx="40.7938" cy="94.9688" r="1.36529" fill="#2AAFD3"/>
<path fill-rule="evenodd" clip-rule="evenodd" d="M131.175 92.5115C131.175 93.7179 130.197 94.696 128.991 94.696H71.6483C70.4419 94.696 69.4639 93.7179 69.4639 92.5115V59.7445C69.4639 55.5219 72.8869 52.0989 77.1095 52.0989H123.529C127.752 52.0989 131.175 55.5219 131.175 59.7445V92.5115ZM77.1095 54.2833C74.0934 54.2833 71.6483 56.7284 71.6483 59.7445V92.5115H128.991V59.7445C128.991 56.7284 126.546 54.2833 123.529 54.2833H77.1095Z" fill="#2AAFD3"/>
<path fill-rule="evenodd" clip-rule="evenodd" d="M107.424 70.3949C107.424 66.474 104.246 63.2954 100.325 63.2954C96.4038 63.2954 93.2253 66.474 93.2253 70.3949V76.4022C93.2253 80.3232 96.4038 83.5017 100.325 83.5017C104.246 83.5017 107.424 80.3232 107.424 76.4022V70.3949ZM100.325 64.9338C103.341 64.9338 105.786 67.3788 105.786 70.3949V76.4022C105.786 79.4183 103.341 81.8634 100.325 81.8634C97.3087 81.8634 94.8636 79.4183 94.8636 76.4022V70.3949C94.8636 67.3788 97.3087 64.9338 100.325 64.9338Z" fill="#2AAFD3"/>
<mask id="mask1" mask-type="alpha" maskUnits="userSpaceOnUse" x="94" y="64" width="13" height="19">
<path d="M106.604 70.3939C106.604 66.9253 103.792 64.1135 100.324 64.1135C96.8551 64.1135 94.0433 66.9253 94.0433 70.3939V76.4011C94.0433 79.8697 96.8551 82.6815 100.324 82.6815C103.792 82.6815 106.604 79.8697 106.604 76.4011V70.3939Z" fill="#2AAFD3"/>
</mask>
<g mask="url(#mask1)">
<path fill-rule="evenodd" clip-rule="evenodd" d="M100.142 67.6662C98.8187 67.6662 97.7463 68.7386 97.7463 70.0615C97.7463 71.3844 98.8187 72.4569 100.142 72.4569C101.465 72.4569 102.537 71.3844 102.537 70.0615C102.537 68.7386 101.465 67.6662 100.142 67.6662ZM96.1079 70.0615C96.1079 67.8338 97.9139 66.0278 100.142 66.0278C102.369 66.0278 104.175 67.8338 104.175 70.0615C104.175 72.2893 102.369 74.0952 100.142 74.0952C97.9139 74.0952 96.1079 72.2893 96.1079 70.0615Z" fill="#2AAFD3"/>
<path fill-rule="evenodd" clip-rule="evenodd" d="M101.697 73.5422C101.902 73.436 102.142 73.4213 102.359 73.5017C104.782 74.4019 106.51 76.735 106.51 79.4738V85.141C106.51 85.5934 106.143 85.9602 105.691 85.9602H94.5907C94.1382 85.9602 93.7715 85.5934 93.7715 85.141V79.4738C93.7715 76.7353 95.4995 74.4023 97.9219 73.502C98.1384 73.4215 98.3788 73.4362 98.5839 73.5424C98.9714 73.743 99.5149 73.8816 100.14 73.8816C100.766 73.8816 101.309 73.7429 101.697 73.5422ZM102.09 75.1618C101.512 75.3939 100.841 75.5199 100.14 75.5199C99.4393 75.5199 98.7684 75.3939 98.1908 75.162C96.5497 75.9053 95.4098 77.5574 95.4098 79.4738V84.3218H104.872V79.4738C104.872 77.5572 103.732 75.905 102.09 75.1618Z" fill="#2AAFD3"/>
</g>
<path fill-rule="evenodd" clip-rule="evenodd" d="M134.999 92.5117H65.0964C65.0964 93.2682 65.199 94.0007 65.3909 94.6962C66.3469 98.1599 69.5205 100.703 73.2882 100.703H126.808C130.575 100.703 133.749 98.1599 134.705 94.6962C134.897 94.0007 134.999 93.2682 134.999 92.5117ZM132.405 94.6962H67.6904C68.5643 96.9338 70.7411 98.519 73.2882 98.519H126.808C129.355 98.519 131.531 96.9338 132.405 94.6962Z" fill="#2AAFD3"/>
</svg>
