<svg width="1920" height="963" viewBox="0 0 1920 963" fill="none" xmlns="http://www.w3.org/2000/svg">
<path d="M-518.337 -1039.47C-502.58 -1144.82 -439.712 -1237.25 -347.528 -1290.61L456.849 -1756.22C549.033 -1809.58 660.499 -1818.06 759.693 -1779.26L1625.24 -1440.67C1724.44 -1401.87 1800.56 -1320.01 1832.07 -1218.26L2107.02 -330.447C2138.53 -228.7 2121.99 -118.143 2062.09 -30.0698L1539.39 738.437C1479.49 826.51 1382.74 882.513 1276.53 890.591L349.795 961.086C243.588 969.165 139.482 928.441 66.9472 850.443L-565.981 169.841C-638.516 91.8424 -671.586 -14.9419 -655.829 -120.284L-518.337 -1039.47Z" fill="#2AAFD3"/>
</svg>
