<svg width="1920" height="974" viewBox="0 0 1920 974" fill="none" xmlns="http://www.w3.org/2000/svg">
<path d="M1025.44 -1834C1126.37 -1868.03 1237.3 -1854.25 1326.84 -1796.55L2085 -1308.01C2174.54 -1250.31 2232.93 -1154.99 2243.64 -1049.02L2334.39 -151.657C2345.11 -45.6835 2306.99 59.4026 2230.81 133.855L1585.81 764.299C1509.64 838.751 1403.71 874.465 1298.01 861.332L402.957 750.125C297.256 736.992 203.288 676.441 147.652 585.612L-323.459 -183.506C-379.095 -274.334 -390.342 -385.555 -354.018 -485.683L-46.4301 -1333.55C-10.1057 -1433.68 69.8371 -1511.82 170.768 -1545.85L1025.44 -1834Z" fill="#2AAFD3"/>
</svg>
