<svg width="1920" height="909" viewBox="0 0 1920 909" fill="none" xmlns="http://www.w3.org/2000/svg">
<path d="M-351.432 2582.39C-444.67 2530.9 -509.385 2439.74 -527.258 2334.74L-713.833 1238.6C-731.706 1133.59 -700.791 1026.17 -629.839 946.724L110.833 117.419C181.784 37.9773 285.05 -4.83254 391.398 1.10839L1501.58 63.1262C1607.92 69.067 1705.78 123.112 1767.44 209.962L2411.14 1116.6C2472.8 1203.45 2491.56 1313.65 2462.1 1416.01L2154.6 2484.56C2125.14 2586.92 2050.68 2670.29 1952.29 2711.08L925.142 3136.89C826.748 3177.68 715.134 3171.45 621.896 3119.95L-351.432 2582.39Z" fill="#2AAFD3"/>
</svg>
