<svg width="150" height="150" viewBox="0 0 150 150" fill="none" xmlns="http://www.w3.org/2000/svg">
<circle cx="75" cy="75" r="75" fill="white"/>
<path fill-rule="evenodd" clip-rule="evenodd" d="M33.22 65.7207C32.1317 64.6324 32.1317 62.868 33.22 61.7798C56.2941 38.7057 93.7046 38.7057 116.779 61.7798C117.867 62.868 117.867 64.6324 116.779 65.7207C115.69 66.8089 113.926 66.8089 112.838 65.7207C91.9402 44.8231 58.0585 44.8231 37.1608 65.7207C36.0726 66.8089 34.3082 66.8089 33.22 65.7207Z" fill="#2AAFD3"/>
<path fill-rule="evenodd" clip-rule="evenodd" d="M42.8879 74.2483C41.7997 73.16 41.7997 71.3956 42.8879 70.3074C61.2508 51.9445 91.0228 51.9445 109.386 70.3074C110.474 71.3956 110.474 73.16 109.386 74.2483C108.297 75.3365 106.533 75.3365 105.445 74.2483C89.2584 58.0619 63.0152 58.0619 46.8288 74.2483C45.7406 75.3365 43.9762 75.3365 42.8879 74.2483Z" fill="#2AAFD3"/>
<path fill-rule="evenodd" clip-rule="evenodd" d="M50.2795 82.7785C49.1913 81.6903 49.1913 79.9259 50.2795 78.8377C63.9311 65.1861 86.0647 65.1861 99.7163 78.8377C100.805 79.9259 100.805 81.6903 99.7163 82.7785C98.6281 83.8668 96.8637 83.8668 95.7754 82.7785C84.3003 71.3034 65.6955 71.3034 54.2204 82.7785C53.1322 83.8668 51.3678 83.8668 50.2795 82.7785Z" fill="#2AAFD3"/>
<path fill-rule="evenodd" clip-rule="evenodd" d="M59.9494 91.3098C58.8612 90.2216 58.8612 88.4572 59.9494 87.3689C68.8898 78.4286 83.3849 78.4286 92.3253 87.3689C93.4135 88.4572 93.4135 90.2216 92.3253 91.3098C91.237 92.398 89.4726 92.398 88.3844 91.3098C81.6205 84.5459 70.6542 84.5459 63.8903 91.3098C62.8021 92.398 61.0377 92.398 59.9494 91.3098Z" fill="#2AAFD3"/>
<path fill-rule="evenodd" clip-rule="evenodd" d="M67.343 99.8371C66.2548 98.7489 66.2548 96.9845 67.343 95.8963C71.5721 91.6672 78.4288 91.6672 82.6579 95.8963C83.7461 96.9845 83.7461 98.7489 82.6579 99.8371C81.5696 100.925 79.8052 100.925 78.717 99.8371C76.6644 97.7845 73.3365 97.7845 71.2839 99.8371C70.1956 100.925 68.4312 100.925 67.343 99.8371Z" fill="#2AAFD3"/>
</svg>
