<svg width="41" height="41" viewBox="0 0 41 41" fill="none" xmlns="http://www.w3.org/2000/svg">
<path d="M15.2706 28.4952L20.5001 23.2659L25.7296 28.4952C26.5237 29.2892 27.8379 29.2892 28.6319 28.4952C29.4259 27.7012 29.4259 26.3871 28.6319 25.5931L23.4024 20.3637L28.6319 15.1344C29.4259 14.3404 29.4259 13.0262 28.6319 12.2322C28.2455 11.8503 27.7241 11.6362 27.1808 11.6362C26.6375 11.6362 26.1161 11.8503 25.7296 12.2322L20.5001 17.4616L15.2706 12.2322C14.8842 11.8503 14.3628 11.6362 13.8195 11.6362C13.2762 11.6362 12.7548 11.8503 12.3684 12.2322C11.5744 13.0262 11.5744 14.3404 12.3684 15.1344L17.5979 20.3637L12.3684 25.5931C11.5744 26.3871 11.5744 27.7012 12.3684 28.4952C13.1624 29.2892 14.4766 29.2892 15.2706 28.4952Z" fill="#4D4E4E"/>
<path fill-rule="evenodd" clip-rule="evenodd" d="M0.86377 20.3635C0.86377 9.32353 9.82377 0.363525 20.8638 0.363525C31.9038 0.363525 40.8638 9.32353 40.8638 20.3635C40.8638 31.4035 31.9038 40.3635 20.8638 40.3635C9.82377 40.3635 0.86377 31.4035 0.86377 20.3635ZM4.86377 20.3635C4.86377 29.1835 12.0438 36.3635 20.8638 36.3635C29.6838 36.3635 36.8638 29.1835 36.8638 20.3635C36.8638 11.5435 29.6838 4.36353 20.8638 4.36353C12.0438 4.36353 4.86377 11.5435 4.86377 20.3635Z" fill="#4D4E4E"/>
</svg>
