<svg width="41" height="40" viewBox="0 0 41 40" fill="none" xmlns="http://www.w3.org/2000/svg">
<path d="M20.48 0C9.44 0 0.5 8.96 0.5 20C0.5 31.04 9.44 40 20.48 40C31.54 40 40.5 31.04 40.5 20C40.5 8.96 31.54 0 20.48 0ZM20.5 36C11.66 36 4.5 28.84 4.5 20C4.5 11.16 11.66 4 20.5 4C29.34 4 36.5 11.16 36.5 20C36.5 28.84 29.34 36 20.5 36ZM20.06 10H19.94C19.14 10 18.5 10.64 18.5 11.44V20.88C18.5 21.58 18.86 22.24 19.48 22.6L27.78 27.58C28.46 27.98 29.34 27.78 29.74 27.1C29.8404 26.9381 29.9072 26.7576 29.9364 26.5693C29.9656 26.381 29.9567 26.1887 29.91 26.0039C29.8633 25.8192 29.78 25.6457 29.6649 25.4938C29.5498 25.342 29.4053 25.2148 29.24 25.12L21.5 20.52V11.44C21.5 10.64 20.86 10 20.06 10V10Z" fill="#0D6587"/>
</svg>
