<svg width="16" height="16" viewBox="0 0 25 25" fill="none" xmlns="http://www.w3.org/2000/svg">
<path d="M10.8082 14.2851L8.21025 11.6872C7.98873 11.4657 7.70678 11.3549 7.36442 11.3549C7.02206 11.3549 6.74012 11.4657 6.51859 11.6872C6.29706 11.9087 6.1863 12.1907 6.1863 12.533C6.1863 12.8754 6.29706 13.1574 6.51859 13.3789L9.96234 16.8226C10.204 17.0643 10.4859 17.1851 10.8082 17.1851C11.1304 17.1851 11.4123 17.0643 11.654 16.8226L18.4811 9.99554C18.7026 9.77402 18.8134 9.49207 18.8134 9.14971C18.8134 8.80735 18.7026 8.52541 18.4811 8.30388C18.2596 8.08235 17.9776 7.97159 17.6353 7.97159C17.2929 7.97159 17.0109 8.08235 16.7894 8.30388L10.8082 14.2851ZM12.4998 24.1935C10.8283 24.1935 9.25748 23.8761 7.78734 23.2413C6.3172 22.6065 5.03838 21.7458 3.95088 20.6591C2.86338 19.5716 2.00264 18.2928 1.36867 16.8226C0.734699 15.3525 0.417309 13.7817 0.416504 12.1101C0.416504 10.4386 0.733893 8.86777 1.36867 7.39763C2.00345 5.92749 2.86418 4.64867 3.95088 3.56117C5.03838 2.47367 6.3172 1.61293 7.78734 0.978961C9.25748 0.344989 10.8283 0.0276 12.4998 0.0267944C14.1714 0.0267944 15.7422 0.344183 17.2123 0.978961C18.6825 1.61374 19.9613 2.47448 21.0488 3.56117C22.1363 4.64867 22.9974 5.92749 23.6322 7.39763C24.267 8.86777 24.584 10.4386 24.5832 12.1101C24.5832 13.7817 24.2658 15.3525 23.631 16.8226C22.9962 18.2928 22.1355 19.5716 21.0488 20.6591C19.9613 21.7466 18.6825 22.6077 17.2123 23.2425C15.7422 23.8773 14.1714 24.1943 12.4998 24.1935Z" fill="#FEDDB5"/>
</svg>
